<mxfile host="Electron" agent="Mozilla/5.0 (X11; Linux x86_64) AppleWebKit/537.36 (KHTML, like Gecko) draw.io/25.0.1 Chrome/128.0.6613.186 Electron/32.2.6 Safari/537.36" version="25.0.1" pages="2">
  <diagram name="WG Site to Site" id="ZvQSYUHdSJLZWgRAzExe">
    <mxGraphModel dx="2357" dy="1042" grid="0" gridSize="10" guides="1" tooltips="1" connect="1" arrows="1" fold="1" page="1" pageScale="1" pageWidth="1100" pageHeight="850" math="0" shadow="0">
      <root>
        <mxCell id="Xe_iNNLOO6JcA-pmjDCq-0" />
        <mxCell id="Xe_iNNLOO6JcA-pmjDCq-1" parent="Xe_iNNLOO6JcA-pmjDCq-0" />
        <mxCell id="ju_LUg5YQpEhKKQro8lO-7" style="edgeStyle=orthogonalEdgeStyle;shape=connector;curved=0;rounded=1;orthogonalLoop=1;jettySize=auto;html=1;strokeColor=#FF0000;strokeWidth=5;align=center;verticalAlign=middle;fontFamily=Helvetica;fontSize=11;fontColor=default;labelBackgroundColor=default;endArrow=none;endFill=0;fillColor=#60a917;" edge="1" parent="Xe_iNNLOO6JcA-pmjDCq-1" target="ju_LUg5YQpEhKKQro8lO-6">
          <mxGeometry relative="1" as="geometry">
            <mxPoint x="-571" y="61.5" as="sourcePoint" />
            <Array as="points">
              <mxPoint x="-398" y="62" />
            </Array>
          </mxGeometry>
        </mxCell>
        <mxCell id="lj9n_J-MqQY-TelTE86V-0" value="Site A" style="swimlane;whiteSpace=wrap;html=1;strokeColor=#FFFFFF;fontFamily=Helvetica;fontSize=17;fontColor=#FFFFFF;labelBackgroundColor=none;fillColor=#09555B;align=center;verticalAlign=middle;fontStyle=1;gradientColor=none;" parent="Xe_iNNLOO6JcA-pmjDCq-1" vertex="1">
          <mxGeometry x="-1077" y="38" width="253" height="349" as="geometry" />
        </mxCell>
        <mxCell id="oyBjPbTBiOyCDSS3Ipil-0" value="&lt;span&gt;&lt;b&gt;&lt;font color=&quot;#80ff00&quot;&gt;WAN&lt;/font&gt;&lt;font color=&quot;#ffffff&quot;&gt; 100.69.69.43&lt;/font&gt;&lt;/b&gt;&lt;/span&gt;" style="text;strokeColor=none;fillColor=none;align=left;verticalAlign=middle;spacingLeft=4;spacingRight=4;overflow=hidden;points=[[0,0.5],[1,0.5]];portConstraint=eastwest;rotatable=0;whiteSpace=wrap;html=1;fontFamily=Helvetica;fontSize=20;fontColor=default;labelBackgroundColor=#09555B;" parent="lj9n_J-MqQY-TelTE86V-0" vertex="1">
          <mxGeometry x="3.5" y="29" width="245.5" height="30" as="geometry" />
        </mxCell>
        <mxCell id="oyBjPbTBiOyCDSS3Ipil-2" value="&lt;span&gt;&lt;b&gt;&lt;font color=&quot;#80ff00&quot;&gt;LAN&lt;/font&gt;&lt;font color=&quot;#ffffff&quot;&gt; 192.168.234.1/24&lt;/font&gt;&lt;/b&gt;&lt;/span&gt;" style="text;strokeColor=none;fillColor=none;align=left;verticalAlign=middle;spacingLeft=4;spacingRight=4;overflow=hidden;points=[[0,0.5],[1,0.5]];portConstraint=eastwest;rotatable=0;whiteSpace=wrap;html=1;fontFamily=Helvetica;fontSize=22;fontColor=default;labelBackgroundColor=#09555B;" parent="lj9n_J-MqQY-TelTE86V-0" vertex="1">
          <mxGeometry x="3.5" y="69" width="247.5" height="30" as="geometry" />
        </mxCell>
        <mxCell id="oyBjPbTBiOyCDSS3Ipil-3" value="&lt;span&gt;&lt;b&gt;&lt;font color=&quot;#80ff00&quot;&gt;tun_wg_0&amp;nbsp;&lt;/font&gt;&lt;font color=&quot;#ffffff&quot;&gt;&amp;nbsp;10.69.69.1/24&lt;/font&gt;&lt;/b&gt;&lt;/span&gt;" style="text;strokeColor=none;fillColor=none;align=left;verticalAlign=middle;spacingLeft=4;spacingRight=4;overflow=hidden;points=[[0,0.5],[1,0.5]];portConstraint=eastwest;rotatable=0;whiteSpace=wrap;html=1;fontFamily=Helvetica;fontSize=20;fontColor=default;labelBackgroundColor=#09555B;" parent="lj9n_J-MqQY-TelTE86V-0" vertex="1">
          <mxGeometry x="3.5" y="109" width="246.5" height="30" as="geometry" />
        </mxCell>
        <mxCell id="Nblcg_Ti2Uuh7_BV9bUz-0" value="192.168.234.12" style="fontColor=#FFFFFF;verticalAlign=top;verticalLabelPosition=bottom;labelPosition=center;align=center;html=1;outlineConnect=0;fillColor=#CCCCCC;strokeColor=#6881B3;gradientColor=none;gradientDirection=north;strokeWidth=2;shape=mxgraph.networks.pc;fontStyle=1;fontSize=19;" vertex="1" parent="lj9n_J-MqQY-TelTE86V-0">
          <mxGeometry x="76.5" y="208" width="100" height="70" as="geometry" />
        </mxCell>
        <mxCell id="Nblcg_Ti2Uuh7_BV9bUz-1" value="" style="group" vertex="1" connectable="0" parent="Xe_iNNLOO6JcA-pmjDCq-1">
          <mxGeometry x="-616" y="19" width="132" height="85" as="geometry" />
        </mxCell>
        <mxCell id="Xe_iNNLOO6JcA-pmjDCq-9" value="" style="shape=image;verticalLabelPosition=bottom;verticalAlign=top;imageAspect=0;image=data:image/png,iVBORw0KGgoAAAANSUhEUgAAAPoAAACvCAYAAADUr8N5AAAAAXNSR0IArs4c6QAAGc9JREFUeF7tnX3sZUdZx7/bdtvt9m37st0tQUJINcSUioQYNMQ02BBFxWoIfxg1aIgIhSBWJKLGICGtaJEaCgKKCiIFG2MMUay1EqwNaWpFaJoGK2G3L/v+/tvtbre79X7untmevfu7Z+bMmXPOnHOeJ7n5bXtn5sw8M987z3le18jIOGAcGD0H1ox+hbZA44BxQAZ0OwQpOLBZ0k9J+l5J/y7pa5KOpBjYxkjDAQN6Gj5OcZRXSnqjpJ+W9OoFBhyVdL+kf5H0FUmPTJFBOa3ZgJ7TbuQ9l3Wzm/p1BbC5vV9cY7rbC8AD/Hsl7a7R15om4IABPQETRzyEE8m5tW+UtD7BWk/OJIGHJd1T3PgPSHouwbg2RAUHDOh2PBY5gEjOjf0zkl4l6ZyWWbQi6T5J/1zc9o+3/LxJDm9An+S2n7FoRPIbCmDXFclPD3Teeedp7dq1OnbsmE6e5NKOJoDubnt+APghMGrIAQN6QwYOtPvVxa2NSP76GJF8zZo1Ov/887Vu3br559xzzz3NiuPHj88Bz+fZZ5/V888/H8umZyV9vbjtAf83JDX6FYmdyND7GdCHvoPh87++JJKjJa8tkp9zzjlzUF9wwQXzv4DdR4AcsAP6o0eP6rnnGr2Oo8QD8P9aKPdQ8hkFcMC/UwGDWJMsOYBI/qMlkfwlMbNEJHe3Njd4Uzpx4sTp2z6BmP/NAvi836PUw6xntAoHDOjjOhZOJP/JQiS/uO7yqkTyumOFtHe3vRPzQ/osaYODzlcLTT63/mMNxhpdVwP68LfUieS8b/9QVyJ5G2xDiQfwEfEBPrd/A9pauu1R6u1vMNbguxrQh7eFyM9OS/4GSS+NWUJqkTxmDr4+vM87pR5/Gyj1UOA9WFLq8e9JKfUM6L7Tlsf3Vy1oyWuL5CwDZRqiOR+05HxQrPHhu5yprNQD9Gj2G9DewnbvXHSfbDDWILoa0PPdputKWvIokRxAh96CgP2iiy6aK96GQIj5TpOfQKnH+zw++QB/lAE5BvR8TjUieVlLHi2SA/DYGw/N+oYNG4RoPyRKaLsfZUCOAb3f04xIzns2irQfl1RbJC9ryQHnwYMHo0HuWIEYf/nll89F+iESUkz53b6h7X4UATkG9O5P8veXwjtfE6sld04r7v0aDfXu3bubaqpPc4MfEG72Cy+8sHsOJX4ivHGafLT6DVx0BxuQY0BPfKhWGc6J5Nza+JK/LOaRVVpyDi4gX3ZzEU/Kg3npR4Tgnt4haUvxYvrfSyYE2K+88sq5q+uYqOypF/uKU/BjMAE5BvR2TjB4QhQnAgxf8kvrPqYsknNrV70z7927d35jLdJlkt4h6c2S1lZMgAwRt0v631XaIMZfffXV2Wvl6/LXtXdKPSfqN7TdZxuQY0CPPSFn90Mk5+Lk5v6RVCK5b3oc0D179pzVDLHhTknf4xug+P7YLCj8dwtD82IXtPGXXcbPxvgpoVIvq4AcA3r82UUtXdaSJxfJQ6a2a9eus5RvGyXdJWlTyAClNryA3izpPxb6IV1wq5cj1GoOPcjmiW33vQbkGNDrHcErFrTktUVyHuecVLBZNzFj8U6+c+fOs1ZwxwysP1ZvXadb75P0E6sEgV966aW6+OLaRoHIWeTZbcgBOQZ0/5l6eclxpTOR3D8taWVlZW5OK9MPSvpcSOeKNp+WxI9FmVDIXXUVqgcjxwHE/LI2vwFnWg/IMaCfvTtOJHda8mtjNrALX3LezXlHL9NHCu1fzJxdH1TJvJPwklmmzZs3j1Yp14Rf9HUBOc5br6FS77tFWi3Cb5ME5BjQT+0wIrnTkvO3V5E89NBt3779LJswGvQNoQNUtPvFmclg0ezGjT42U1sCVq06RG4BOVMG+veVHFde25WWPNXBQlG0bdu2M4bDPv5fiR5wS+H4XR4Ob7kxONAkYlHwMImVelEBOVMCOiI5gEYkp/BAI5HcKdSCdztxQ0TDHTtwe3mByM1M0vQU9EFJX1wYCBMbpjajZhzoIyBn7EBHJMdhBccVRPIoqTaVlrzZ8Tiz92pAv6ZIppbiOQb0FFwMGyOh7R6vKSyrv7z45DECHZHcOa5wg9cOw8IbbNGXPGzLumtlQO+O110+KUFADuWvXjFGoDuRnDxpiOQAvTY5LXnfInnoxA3ooZwadjtnu8eMFxiQMyqgI4KXfckR0WtTOS95E8eV2g9O0MGAnoCJAxwiIJnm4IGO8sxV7xytSB5y9jDdHDlyZO4wUyZ7Rw/h3jja4JbM5bRlCzGIZ9DggE4Ss7KWfBIi+bJjyLvbM888Mwf3snBUA/o4QFy1CvRHl1xyidavXz8/D48++ugggY6jStlxZXIi+WqbDLAJRfVlSjGgjxPo/Mhze2PeLGf9GRrQEcmdlhzPy1FqyWOPIO9kuLqGJHk0oMdyOc9+TjwnoGg1j8TcgY5ITnCIc1whaKQ28QvnTGAwIaQOWO2H9NwBhRthqKGpjwzoPW9Ywse7JJ1VocE5At2J5ICbZIgmkgccitWCVqq6GdADmJpxEy4rQpe5wUPy7OcCdBIxIJLjlYZSrXbisSE4rrR1blYzn/meZUD3cSjP7wE4MQQAvI5k2hfQyyI5ACe1Um2agkgewhQ2cd8+0kCEkwE9nFc5tATUJPOITejRJdARyfEldyJ5VGaCITuutHVgVksq4XuWAd3HoTy+L5vImsyobaBTQcQ5rqAlry2Su3cR3keGUPeryWbE9sUhZv/+egVAyRH3b7EPXOj3BzOR7EsL/8+i1+KZi9Vk7dq1cxNZqpj+1EBHJKfQgNOSR4nkaA8BNp+xasnjj8HZPYloQuNeh4hQ+tQsjvyH63RapS3JqW6apYpezEZ3xRVXDKY2W0MWJOvuTGQAHKCnpBRAJwsgjismkqfcmZpjkfjR5ySzOCTJJ94q6VeKQg11Hvl8IRHcJok6RIu0adOmyWWCrcO/cluXlx+At5U9NwXQ/0fS9XUX6URyZ98OMRHUfcaU2i/L2R7CA6J+flbSjUU437LCSieKii3/Oavkcrek/1syOHt7zTVoAYx8HECDDsDraNB9Y672fQqgf6uo4ON9vonkXhY1anDgwAEdPny40RiI9EAU8KM95b8Jh+FDYfCQSuNTKuIQw2wuNWcii+kf06d1oJuWPGZb4vtgZmNT+yJ+zDdu3BjkxNHXHPt6LgDHPNZHiq1WgA64iZhBmWYieffHCnPboUOHgnzeU85urIUWm/AInjgTWZ/JMlsBetm43/a7R5NNGHNfFHMUbFitoGIb6+YwUzqZH3ejUxzAoQsPthxqx7cCdLfRiHEuHtY2vx8OAHje27G1h0S1xczSvW+2pTGOmVNffeAxwEbBllMmolaB7piNTTCXX7a+DkDfz+UAcruz4Wjom4KePeX2BuQ5Heg++ewAnuMPXidAd8x30TZ2MPo8jqeejZMN8evc+HwIjCHEdTHMFZGcD4cXcPNBB5PjYe6Lq+ij6gaZdD3XToHuFofWEZHeFHVdb3f487jxTb+ynF/wxp3jcK7217IXoLPcsqnBDlR/B8CeXI8DfZrI6s30zNa9Ab2ssEPs6dP00ISB1nf8HHAmMs7pUK0KvQPdHRPe+5bluxr/UbIV5soBp0hOFUXW1zqzAbop7Po6Avbc1TgAsHMzkTXZqeyAzmKcogN3QVPYNdle61uXA4jmAHxs5y5LoLvNMYVd3WNq7WM44CIpu4gii5lfij5ZA90t0LkSDlURkmKjbIz0HBiaiawJBwYBdLdAPI+wvw9dMdJkw6xvcw4M1UTWZOWDArpbqPlWN9nyafZdVqpoKtwYJNCdws6lvzWHm6kc1/rr9JUqqj/iMHsMFuhlhR3ifB/B/MPc8unMemwmsiY7N3iglxV2ixUkmzDG+g6TA3VLFQ1zlfVnPRqglxV2eNilTpdbn7XWo0sOxJYq6nKOfT5rdEB3zCR0EJHewin7PF7tP7tpqaL2Z5jHE0YLdFPY5XHA2poFP+AoY/lBN/JzYNRAd8u3lFb+gzCEFq5UkWUrqr9bkwC6Y4ultKp/QHLogXju9s50L3E7MimglxV2Y4pMitv6/Ht1Uaoofy6kmeEkge5YZymt0hyiNkbpqlRRG3PPccxJA50Nwe8ZwKPYMQ+7fo8o/HeJFvudyfiePnmglxV2ltKqnwM+xSCTrjltQF/guKW06uYIcnvzsR/XbvhtQF/CZ8tB394BJL8AylALN26Px4sjG9AreG0prdIdRGzgAJv6bFbAIx1fQ0cyoAdwylJaBTCpoknOpYqarWw4vQ3oNfbKUlqFM2sKedjCudF/SwN6xB6Ywm4506aUhy3i6PTWxYDegPWW0uoF5hFPgA0cfwSjvDhAMc0nnnhC+/fvX5zYI5Jesfg/1yyZ/rckXZfX0rqbzZQVdmMoVdTdSen+SShAd+7cqaeffvqsKrnFbAzodbcFhd2UUlqNpVRR3X0eSvuVlRVt3bpViOwV9E1JP2A3esSuOhsxmuYxkuVhy3tXqXX/1FNPaffu3b6J3ifp7ZK+bUD3sarie4A+ppRWYy1V1GCLs+u6Z88ePfnkkwLsFbRT0i2S/mZZG3tHj9jaIae0sjxsERveQxfEc8R0xPUKOinpU5J+W9JZWrlyPwN65CaW85oNIULOTGSRG91xt5MnT2rbtm3asWOHULxV0MOS3ibpoZApGtBDuFTRJveUVhZF1nCDO+yOqQyTGaazCjoo6fckfUwSN3oQGdCD2ORvlFtKK36ALCe+f99yaAGwEdMPHDjgm86XJL1b0nZfw8XvDeh1OeZp73zA+wrysCiyxBva4nCI5ojoiOqI7BX0eKFNvzd2Ogb0WM55+nWd0spMZC1tZEvDBtrEj0q6VdKHJfHvaDKgR7PO37FthZ2VKvLvQW4tMJNhLsNs5iFub2zi3OaNyYDemIX+AXhfTpl1xUxkfp7n2AKHFxxfPDZx3r95D+d9PBkZ0JOx0j9QU4WdlSry8zjHFjVs4mjS0aijWU9KBvSk7AwbrG5KK+dzb6WKwvibSysUbASfEITisYljC8cmjm28FTKgt8JW/6AuDTJBMwB5kaxUkZ+HObfYt2/f/F3cYxPHmw2vNrzbgm3iMes2oMdwLWGfxZRW/AA4E5mVKkrI6I6GOnbs2NzpJcAmjl86/un4qbdOBvTWWRz2AMC9adMmbdy40cpCh7Esq1ZIYNu3b59/PDbxxyTdLIlIs87IgN4Zq/0Puvbaa+febEbD4sChQ4fmnm1Hj1aauvnyQ4VNvNLHtY3VG9Db4GrkmAb0SMb11O348ePz9/C9e/f6ZvBPkt4l6Tu+hm19b0Bvi7MR4xrQI5jWU5ddu3bNbeInTpyomsGTkt4zS8t2d0/TPP1YA3rfO1B6vgE9o81YMpUjR47MxfTDhw9XTZYsEc4mXhlQ3tWKlwH97yS9qatJ2HNOccCAnu9J4ObGJs5N7rGJP1C4rpK7LRtaBnQMux+Q9H6qEGcz25FPxICe5wZjE8dkxjt5BfGi/j5Jn2nbJh7DpWVAd2PdKOlzkjbHDG596nHAgF6PX223xiaOmH7woNcj9bOFTdybvbHtOS8b3wd0+gHyz0t6XV+TnMpzDeh57DR2cOLEA2zijxauq/fnMfPlswgBOr0R3xHjEedNlG9pVw3oLTG2xrDc3tzi3OYVdKTAwkdnuOjcJl5jOaebhgLddbihuN1fFPMw61PNAQN6fyeE92/ew3kf99CXC8+2rb6GOX1fF+jM/aoC7K/PaSFjmIsBvftdRIOOJh2NuscmDrBxevnH7mfZ/IkxQHdP/a3Cpe+85tOwEeCAAb3bc4AtHDEd23gFYRP/SCGqVzbsdvb1ntYE6DzptcXt/pJ6j7XWq3HAgN7NueDmxquNm9xDKNlI50ThwkFTU6Cz+CsKE9wbBs2JDCZvQG9/E/BLxz/dYxPHTPZeSX/V/oy6eUIKoLuZ/oakP5Rkonzk3hnQIxkX0I3IMsR0Is089OeF44s3UsU3UE7fpwQ663qNpC/MfglfmtMihzIXA3r6ncIm7uLEPa6ruKwipuPCOjpKDXQYtEHSX0q6aXTcanlBBvS0DCbLCyYzj02coJPfn72C/qmkypKlaWfX7WhtAN2t4J2Sbpd0frdLGu7TDOhp9o48bbyHB9jE/75IrUw46aipTaDDuFdL+qKkl42ai4kWZ0BvxkhnE0ej7knn9N3C6YWEEJOgtoEOEy+V9BcW9uo/TwZ0P4+WtcAmvmXLFpFDvYJwV/1jSR9sWuIofqb99OwC6G5lvybpTySt62ep+T/VgF5/j6h6wg1OFRQPfbVQtpGccXLUJdBh7islkdTi2slxOmDBBvQAJpWaUL+Md3FPiSPSKZNWmfTKk6WugQ6jL5b0SUk/P1muL1m4AT3sRNQoceRs4hRKmDT1AXTH8LdKumOW/nb9pHegtHgDevVJQMFGLXFixT028W8UceIP2tk6xYE+gc7zrytE+ZfbhlhQS9UZwCaOZ5unxBGpYChS+PEx28RjsNI30JkzN/qdkt4Ss4Ax9bEb/ezdBNg4vezf75W+KTNMauWnx3QmUq0lB6C7tfxSAXje4SdJBvQXth3RHBEdUd1jE3+8sInfM8lDE7jonIDOlBHh0coj0k+ODOintnxlZWUupgfYxG+TdOvUbOIxwMgN6E6Ux97+qzELGnKfqQMdMxnmMsxmHrq3sIlzmxsFcCBHoLtpY377ROFZF7CU4TeZMtBxeMHxxWMT3168h981/N3udgU5Ax1O4FiDKI+jzehpikCvYRNHk45G3auVG/1BiVhg7kBnSbjMEgX3joj1DarLlICOgo2EjDt37vTZxB8qbOIPD2ozM5vsEIDuWEYtOIJjCJIZJU0F6JjKMJl5bOLc3L8zKyDyZzmWOBraARwS0OEtmWsQ5Ql/HR2NHegkgADgOL946G8L/3TeyY0ScGBoQGfJJLIgN92vJ1h/VkOMFeg1bOLfLrTp92W1MSOYzBCB7thOqipSVpG6ahQ0RqCTjBGbOMkZK4gvPzTzkvzwUEocDe3ADRno8Jp88mSwISnl4GlMQK9hE/9K4dn2ncFvYMYLGDrQYS3ppfGO+s2M+Rw0tbEAncII2MQ9JY7wSX/3zAvy7iDmWKNGHBgD0B0DKCBBLXcKSgyShg50ShshppPWqYLItPqxwiZOBlajDjgwJqDDrhcXeeUpFTU4GirQubmxiXOTe+LEv14o24gXN+qQA2MDuhPlSf5HEchB1XIfItBJqYzJzFPiCJv4+2Y/xGR8Odnh+bZHFRwYI9Dd5lLW+fNFmedBbPiQgI5NHDH94EFyPVTSZwubuDd7o28g+z6eA2MGOlx5UQH2G+JZ1F3PIQAd0dyVOPLEiT9aiOlf646D9qRlHBg70Fk34vsHZvbZ9+cuyucO9ECbODXEeXWipjh51I0y4MAUgO7YzK1OAcjNGfB91SnkCnTev4kTp+Swh74s6V2ztGBUQjHKiANTAjpsB+R/PauYyft7dpQj0IkuQ6PusYlvLWzi/5AdU21Ccw5MDehOlEeMp4JmVrXccwI6NnFKHPG3grCJf7R4NTKbeMY/KlMEutsObO24z6Kwy4JyALqziXOTe+j+Qtn2iK+hfd8/B6YMdLh/VSHK41XXO/UNdN7BeRf32MQxk2ET/0zvDLMJBHNg6kB3jMK5huipXkX5voBOZBlOLwE2ccANyM0mHgyxPBoa0F/YByLgEOWJiOuFugY6dnBnE/e4riKev22mxHygF8bYQxtzwIB+JgsJiCHG/Y2NORsxQJdA5/bGsw0PtwpCwYYPAgo3FG9GA+WAAX31jSN7zR91Lcp3AXTevxHT8VH3EKYywkgxnRkNnAMG9OUbSF468tORp64TahPoiOZElwXYxHF2wekF5xejkXDAgF69kaSpIvPsz3Wx320BnfhwxHSPTRx3VdxWEdUr8z51wQt7RloOGNDD+PnOIrc8iSlbo9RAxyZOphducg8ReIKy7TFfQ/t+mBwwoIfv26sKrTzVY1qhlECnfhk2cU+JI7xi3iuJUFKjEXPAgF5vcyke8WlJb67XLax1CqBjE0dMJ9Ksgkj+QBIIbOJW4ihsewbdyoAet31Uer2jKBcVN8IqvZoAHZs4tcSpKe6xiZPGCTH9wWQTt4Gy54ABPX6Lri9EeWq6J6FYoFP5BJNZgE2cIoUkZjSbeJIdG84gBvRme3WxpE9KosRzY6oLdGqXAXBqmXmIlMrYxEmxbDRBDhjQ02z6WyTdOas0sr7JcKFARzR3ceKedE4URbh5VuCCIglGE+aAAT3d5l9XZLDhbxSFAH1lZWWubKOueAVhE7+tKGxhNvGo3RhXJwN62v3kRudm54avTVVAx0yGTXz3bm/gGAUK3z57naBgoZFxYM4BA3o7B+EXJH1CEu/wwbQM6IE2cUoM3yKJksNGxoEzOGBAb+9AoI0n7BXtfBAtAh3xHDEdcb2CsIl/vChx5NXKBU3EGo2OAwb0drd0XWFvx+7uJQf0Gjbxhwub+EPewa3BpDlgQO9m+/Gkw6MOz7qlBNDRqGMyw3RWQdzc2MS5ya3EUTd7OOinGNC72z585BHl8ZlfldatWydcWD10l6T3SOKd3Mg4EMQBA3oQm5I1Ivrt9lnONaLh6hJadGzi99btaO2NAwb0fs4A8e3EuRPv7iOu+FsLu7iVOPJxy75flQMG9P4OBplryGBDJptldE9xiz/e3zTtyWPggAG9310kvTS56chRVyZ80vFNx0fdyDjQmAMG9MYsTDLATYUoj1be2cS9hceTPNkGmQQHDOj5bDP55Ek3Tby4kXEgKQcM6EnZaYMZB/LkwP8DeB50N0G/2hUAAAAASUVORK5CYII=;strokeColor=#BAC8D3;fontFamily=Helvetica;fontSize=11;fontColor=default;labelBackgroundColor=default;fillColor=#09555B;" parent="Nblcg_Ti2Uuh7_BV9bUz-1" vertex="1">
          <mxGeometry x="-46" width="132" height="85" as="geometry" />
        </mxCell>
        <mxCell id="Xe_iNNLOO6JcA-pmjDCq-11" value="The Internet" style="text;html=1;align=center;verticalAlign=middle;whiteSpace=wrap;rounded=0;fontFamily=Helvetica;fontSize=17;fontColor=#FFFFFF;labelBackgroundColor=none;fontStyle=1" parent="Nblcg_Ti2Uuh7_BV9bUz-1" vertex="1">
          <mxGeometry x="-24" y="30" width="60" height="31" as="geometry" />
        </mxCell>
        <mxCell id="ju_LUg5YQpEhKKQro8lO-8" style="edgeStyle=orthogonalEdgeStyle;shape=connector;curved=0;rounded=1;orthogonalLoop=1;jettySize=auto;html=1;strokeColor=#80FF00;strokeWidth=5;align=center;verticalAlign=middle;fontFamily=Helvetica;fontSize=11;fontColor=default;labelBackgroundColor=default;endArrow=none;endFill=0;fillColor=#60a917;" edge="1" parent="Xe_iNNLOO6JcA-pmjDCq-1" source="Nblcg_Ti2Uuh7_BV9bUz-2">
          <mxGeometry relative="1" as="geometry">
            <mxPoint x="-764" y="209" as="targetPoint" />
          </mxGeometry>
        </mxCell>
        <mxCell id="ju_LUg5YQpEhKKQro8lO-9" style="edgeStyle=orthogonalEdgeStyle;shape=connector;curved=0;rounded=1;orthogonalLoop=1;jettySize=auto;html=1;strokeColor=#80FF00;strokeWidth=5;align=center;verticalAlign=middle;fontFamily=Helvetica;fontSize=11;fontColor=default;labelBackgroundColor=default;endArrow=none;endFill=0;fillColor=#60a917;" edge="1" parent="Xe_iNNLOO6JcA-pmjDCq-1" source="Nblcg_Ti2Uuh7_BV9bUz-2">
          <mxGeometry relative="1" as="geometry">
            <mxPoint x="-445" y="209" as="targetPoint" />
          </mxGeometry>
        </mxCell>
        <mxCell id="Nblcg_Ti2Uuh7_BV9bUz-2" value="Wireguard Tunnel&lt;br&gt;Network 10.69.69.0/24" style="outlineConnect=0;dashed=0;verticalLabelPosition=bottom;verticalAlign=top;align=center;html=1;shape=mxgraph.aws3.vpn_connection;fillColor=#F58536;gradientColor=none;fontColor=#FFFFFF;fontSize=20;fontStyle=1" vertex="1" parent="Xe_iNNLOO6JcA-pmjDCq-1">
          <mxGeometry x="-632" y="184.99" width="58.5" height="48" as="geometry" />
        </mxCell>
        <mxCell id="Nblcg_Ti2Uuh7_BV9bUz-3" style="edgeStyle=orthogonalEdgeStyle;rounded=1;orthogonalLoop=1;jettySize=auto;html=1;strokeColor=#FF0000;strokeWidth=5;align=center;verticalAlign=middle;fontFamily=Helvetica;fontSize=11;fontColor=default;labelBackgroundColor=default;endArrow=none;endFill=0;curved=0;fillColor=#60a917;" edge="1" parent="Xe_iNNLOO6JcA-pmjDCq-1" source="Xe_iNNLOO6JcA-pmjDCq-9">
          <mxGeometry relative="1" as="geometry">
            <mxPoint x="-796" y="204" as="targetPoint" />
          </mxGeometry>
        </mxCell>
        <mxCell id="C-mF1Z7LZHC6h_rY8R3b-1" value="" style="aspect=fixed;perimeter=ellipsePerimeter;html=1;align=center;fontSize=12;verticalAlign=top;shadow=0;dashed=0;image;image=img/lib/cumulus/switch_bare_metal_empty.svg;rounded=0;sketch=0;hachureGap=4;fillColor=#F45B69;strokeColor=#028090;fontColor=#E4FDE1;labelBackgroundColor=#114B5F;connectable=0;" parent="Xe_iNNLOO6JcA-pmjDCq-1" vertex="1">
          <mxGeometry x="-900" y="191" width="144" height="36" as="geometry" />
        </mxCell>
        <mxCell id="C-mF1Z7LZHC6h_rY8R3b-2" value="" style="shape=image;imageAspect=0;aspect=fixed;verticalLabelPosition=bottom;verticalAlign=top;rounded=0;labelBackgroundColor=none;sketch=0;hachureGap=4;fontSize=30;fontColor=#1A1A1A;strokeColor=#028090;fillColor=#F45B69;image=https://upload.wikimedia.org/wikipedia/commons/thumb/b/b9/PfSense_logo.png/1200px-PfSense_logo.png;" parent="Xe_iNNLOO6JcA-pmjDCq-1" vertex="1">
          <mxGeometry x="-893" y="199.06" width="67.55" height="19.87" as="geometry" />
        </mxCell>
        <mxCell id="ju_LUg5YQpEhKKQro8lO-0" value="Site B" style="swimlane;whiteSpace=wrap;html=1;strokeColor=#FFFFFF;fontFamily=Helvetica;fontSize=17;fontColor=#FFFFFF;labelBackgroundColor=none;fillColor=#09555B;align=center;verticalAlign=middle;fontStyle=1;gradientColor=none;" vertex="1" parent="Xe_iNNLOO6JcA-pmjDCq-1">
          <mxGeometry x="-364" y="38" width="253" height="349" as="geometry" />
        </mxCell>
        <mxCell id="ju_LUg5YQpEhKKQro8lO-4" value="192.168.177.10" style="fontColor=#FFFFFF;verticalAlign=top;verticalLabelPosition=bottom;labelPosition=center;align=center;html=1;outlineConnect=0;fillColor=#CCCCCC;strokeColor=#6881B3;gradientColor=none;gradientDirection=north;strokeWidth=2;shape=mxgraph.networks.pc;fontStyle=1;fontSize=19;" vertex="1" parent="ju_LUg5YQpEhKKQro8lO-0">
          <mxGeometry x="73" y="213" width="100" height="70" as="geometry" />
        </mxCell>
        <mxCell id="ju_LUg5YQpEhKKQro8lO-5" value="" style="aspect=fixed;perimeter=ellipsePerimeter;html=1;align=center;fontSize=12;verticalAlign=top;shadow=0;dashed=0;image;image=img/lib/cumulus/switch_bare_metal_empty.svg;rounded=0;sketch=0;hachureGap=4;fillColor=#F45B69;strokeColor=#028090;fontColor=#E4FDE1;labelBackgroundColor=#114B5F;connectable=0;" vertex="1" parent="ju_LUg5YQpEhKKQro8lO-0">
          <mxGeometry x="-84" y="150" width="144" height="36" as="geometry" />
        </mxCell>
        <mxCell id="ju_LUg5YQpEhKKQro8lO-6" value="" style="shape=image;imageAspect=0;aspect=fixed;verticalLabelPosition=bottom;verticalAlign=top;rounded=0;labelBackgroundColor=none;sketch=0;hachureGap=4;fontSize=30;fontColor=#1A1A1A;strokeColor=#028090;fillColor=#F45B69;image=https://upload.wikimedia.org/wikipedia/commons/thumb/b/b9/PfSense_logo.png/1200px-PfSense_logo.png;" vertex="1" parent="ju_LUg5YQpEhKKQro8lO-0">
          <mxGeometry x="-75" y="158.07" width="67.55" height="19.87" as="geometry" />
        </mxCell>
        <mxCell id="ju_LUg5YQpEhKKQro8lO-12" value="&lt;span&gt;&lt;b&gt;&lt;font color=&quot;#80ff00&quot;&gt;WAN&lt;/font&gt;&lt;font color=&quot;#ffffff&quot;&gt; 100.69.69.44&lt;/font&gt;&lt;/b&gt;&lt;/span&gt;" style="text;strokeColor=none;fillColor=none;align=left;verticalAlign=middle;spacingLeft=4;spacingRight=4;overflow=hidden;points=[[0,0.5],[1,0.5]];portConstraint=eastwest;rotatable=0;whiteSpace=wrap;html=1;fontFamily=Helvetica;fontSize=20;fontColor=default;labelBackgroundColor=#09555B;" vertex="1" parent="ju_LUg5YQpEhKKQro8lO-0">
          <mxGeometry x="5.5" y="33" width="245.5" height="30" as="geometry" />
        </mxCell>
        <mxCell id="ju_LUg5YQpEhKKQro8lO-13" value="&lt;span&gt;&lt;b&gt;&lt;font color=&quot;#80ff00&quot;&gt;LAN&lt;/font&gt;&lt;font color=&quot;#ffffff&quot;&gt; 192.168.177.1/24&lt;/font&gt;&lt;/b&gt;&lt;/span&gt;" style="text;strokeColor=none;fillColor=none;align=left;verticalAlign=middle;spacingLeft=4;spacingRight=4;overflow=hidden;points=[[0,0.5],[1,0.5]];portConstraint=eastwest;rotatable=0;whiteSpace=wrap;html=1;fontFamily=Helvetica;fontSize=22;fontColor=default;labelBackgroundColor=#09555B;" vertex="1" parent="ju_LUg5YQpEhKKQro8lO-0">
          <mxGeometry x="5.5" y="73" width="247.5" height="30" as="geometry" />
        </mxCell>
        <mxCell id="ju_LUg5YQpEhKKQro8lO-14" value="&lt;span&gt;&lt;b&gt;&lt;font color=&quot;#80ff00&quot;&gt;tun_wg_0&amp;nbsp;&lt;/font&gt;&lt;font color=&quot;#ffffff&quot;&gt;&amp;nbsp;10.69.69.2/24&lt;/font&gt;&lt;/b&gt;&lt;/span&gt;" style="text;strokeColor=none;fillColor=none;align=left;verticalAlign=middle;spacingLeft=4;spacingRight=4;overflow=hidden;points=[[0,0.5],[1,0.5]];portConstraint=eastwest;rotatable=0;whiteSpace=wrap;html=1;fontFamily=Helvetica;fontSize=20;fontColor=default;labelBackgroundColor=#09555B;" vertex="1" parent="ju_LUg5YQpEhKKQro8lO-0">
          <mxGeometry x="5.5" y="113" width="246.5" height="30" as="geometry" />
        </mxCell>
        <mxCell id="ju_LUg5YQpEhKKQro8lO-18" value="" style="shape=image;verticalLabelPosition=bottom;labelBackgroundColor=default;verticalAlign=top;aspect=fixed;imageAspect=0;image=data:image/png,iVBORw0KGgoAAAANSUhEUgAABZ8AAAEJCAIAAAB0Zs4fAAAAA3NCSVQICAjb4U/gAAAgAElEQVR4XuxdB3gU1dom1NBBARVCrwm9QxAJndACCNeGgoKKBRBR0Xv1qvdeFZAiIAiCFFEsdARCJ/TeSULvobdQQzP/u47/GrO7s3O+OdN2Px4eHzzztfPO7O7MO18J6dGjRwb+wwgwAowAI8AIMAKMACPACDACjAAjwAgwAoyAYxEISU1NdWzwxgZ+9dSpq0kn8V+4ST6ddPXUSfzjapLrf13/+GP9z38nuQ4pf/IVKfrXv8PC3P/GP/IVCcsX5jqat3CRfGFhiiT+kVaG/80IMAKMACPACDACjAAjwAgwAowAI8AIMAKiCDC74UIMVMWxTRsUCuPYpo2ulTSEhSimovKgORSOo0Td+m7ig1kPURhZnhFgBBgBRoARYAQYAUaAEWAEGAFGIGgRCFJ2Y+fM6W4uw0wiQ+g6A9mhpHsUr1PXzYAIWWBhRoARYAQYAUaAEWAEGAFGgBFgBBgBRiAYEAgidgOMxvHNG5GaoZPOcFeUgHpQLhGl3iTt5aKUsWAFlSxKhYv+iwlkB4zgv1U7dubMDv14sgVGgBFgBBgBRoARYAQYAUaAEWAEGIGAQSDA2Q1ZjIb7fINcwF9CMgUqX2Dk+OZN+IcUvoMcScBcu7wRRoARYAQYAUaAEWAEGAFGgBFgBBgBRkBBIDDZDZAau2bPUAgF4860kkyBTApXCYlgc1DEBqYDcepMJFF2hwAa9X6Lq1eMO9dsmRFgBBgBRoARYAQYAUaAEWAEGAFGwM4IBBS7IZ3UcA9A0cJB0JIpQHPsmgUiRm+9jHKRKTFw6YqdP3IcGyPACDACjAAjwAgwAowAI8AIMAKMgHQEAoHdkE5qpEM5ZuBQsAYgONx1JRBQ5zsITAdojlWjvpKVb8I0h/SPChtkBBgBRoARYAQYAUaAEWAEGAFGgBGwLQLOZjdAB8gq7lA/Q0jiQOlH2goUpbRESxMNaCGZotqTXdRdKEflpnLAJhetaIGdZRgBRoARYAQYAUaAEWAEGAFGgBFgBByNgCPZDaOTNXydUU+Owy2pNApFcgdW3ANT3EerdnL15vBl1nMd1laNGi6rXEWxX61Tl0a9+4n2B/GMjVcYAUaAEWAEGAFGgBFgBBgBRoARYAQYAbsh4DB2wypeI+1pE8rF0Hm+5w7oL5fjUFI5hKgWnVtgdUaAEWAEGAFGgBFgBBgBRoARYAQYAUbAaAQcw27YgddIezIUjiNtrYpxp8oIjoM26sW4PbJlRoARYAQYAUaAEWAEGAFGgBFgBBgBRoCMgAPYDbvxGumwNqfiAyCgyYh6K1PRi8BMgkY0NpZnBBgBRoARYAQYAUaAEWAEGAFGgBFgBLQjYGt2Q+4YEe2gECRNYAqMIDiwU5VmIgQcWIURYAQYAUaAEWAEGAFGgBFgBBgBRoARMB8B+7IbKMfYOWu6+Yjo9GhoKgfSN+JGDtMZoVd17sfhFRZeZAQYAUaAEWAEGAFGgBFgBBgBRoARcAQCmT755BO7BYokhXEx0WcTE+wWmJZ4Uq5dL1G3Xr6wolqERWVgOSQkBCktoop+5a8mndo1a8bxzRtL1KkfmiePX3kWYAQYAUaAEWAEGAFGgBFgBBgBRoARYATsg4C9cjcwCXXu+5gSIv/p3RzEkbgRM2io0b5GRDWQ24AjXcBRfd5Gz1GeHWv0eWT7jAAjwAgwAowAI8AIMAKMACPACDACshCwEbthXNmFFrBc00+KhCHnIm/hIuke7I9v3gTCBcwL7PiiFQwtSPGM3+iyHaUZR7Unu3i65hVGgBFgBBgBRoARYAQYAUaAEWAEGAFGwG4I2ILdsDZlQ4iYQKggOPDf5NNJ4EFwOs0ZCut53YBwQS3JsU0bfREuUAFJgf+qCHiaTbsihIy6KT7KCDACjAAjwAgwAowAI8AIMAKMACPACBiHgPXsBp7Sp3R9yrgdqliOGTjU5ukJcXFxq1at6tatW4kSJXxtBAAq2SUQSJdgghqTRr3f0jNsBfxIzKAhYHB8eed1RoARYAQYAUaAEWAEGAFGgBFgBBgBRsByBCxmN8BrWNhlw+aDQiZPnvziiy8ql8jRo0dVCA4tl5Gewh/uxKEFYZZhBBgBRoARYAQYAUaAEWAEGAFGgBGwCoGMVjlGloG11AY2rqSNWB6Gr1Nw/Phx9yE3zeFL2O86kjhAUii1Kn6F0wlgDC1QUhJDRHVZnhFgBBgBRoARYAQYAUaAEWAEGAFGgBEwGgFrcjcsrEbxBag98zgUUgOVKVFRUb4iF1oH8nMHvEPuxGH/Wh4hNFiYEWAEGAFGgBFgBBgBRoARYAQYAUYgMBCwgN2wIbXhPpfgOPAAH9jDUPWUqAAorlIJjE8+74IRYAQYAUaAEWAEGAFGgBFgBBiBQEIg0yeffGLmfjDKdPFnn5rpUcjX1aRTm6Z8FxISUqJuPSFFBwlja9ggud0JFM/tSyhRp35onjwO2jWHyggwAowAI8AIMAKMACPACDACjAAjEMAImJq7AWpj56zpjkBTmTbiiFBpQY6IakCuT4FH9O/o9sMvgZ3kQgOWtRgBRoARYAQYAUaAEWAEGAFGgBFgBMxHwLyuomhL6RRqA6cBfTQDu4mmzlG4YEa4z6j5H1f2yAgwAowAI8AIMAKMACPACDACjAAj4BUBk9gN284l8QqKsqgntUHFrE0OFa9TV2ckwGdE48jA5oB0QsTqjAAjwAgwAowAI8AIMAKMACPACDAC5iCQ2QQ3TqQ2AIvruV0vA2AgujppBdpoWM/9gODgQSqesPAKI8AIMAKMACPACDACjAAjwAgwAoyAmQgYzm44lNrAOTi+eaPO8g2DTuTOmdMx98Q+qSVz3++PndoTK4NOAZtlBBgBRoARYAQYAUaAEWAEGAFGgBGwFQLGVqY4l9rAScL8FFudKncwGFuLdp6yki+k7BEEBzgXKabYCCPACDACjAAjwAgwAowAI8AIMAKMACMgioCBM1McTW0oOH588IQooNbKe5arIMUDi8hDMaGla9+V63mKirUXAHtnBBgBRoARYAQYAUaAEWAEGAFGIDgRMKoyBcNfj23a4HRMwQs463HdM1rXSt0Mu2bPMOFcoAcHExwm4MwuGAFGgBFgBBgBRoARYAQYAUaAEWAE0iFgSGUKukKYkClgwrm0T28LPZvF6TCNaeIpKnrOFOsyAowAI8AIMAKMACPACDACjAAjwAjQEJBfmYIHadSk0KKxj1a1Tl2K16kXAJ0yzT8daAjS7YdfPLNI7HNyORJGgBFgBBgBRoARYAQYAUaAEWAEGIEAQ0Ayu4FSDry9dy5GaNhZtWNnW5Eanq00VOBNxylYdTqY4FA5R3yIEWAEGAFGgBFgBBgBRoARYAQYAUZAOgIy+27gWdq5WRtI1qjaqTPYDekQ+zUI3JTen5BMPp109dRJjGtRFv3qphPALhr17qdwHOZnbbiDwXbQ6aNR77dE42d5RoARYAQYAUYgqBBITjp18eiRCwcP3Lpy+f6dO3/+vXv3j3+k3L97JyRDSNacOV1/c+TMljOX8u9sf/wv/p3joYeKVKkWVIjxZhkBRoARYAQYAV8IyMzdcOiQFDAaeA63itcwItUFe6GRI76uEtp6VJ+3meCgQcdajAAjwAgwAgGJAH6dzybsPX/wwMXDhy4eOXTh8KH7KSn6d/pwyVKPlK/wSIWIRyMqFipbnotD9UPKFhgBRoARYASciIA0dgOtK+NGDnMcBDEDh1pYh4LJMoHRftXXeUcDDktoI1/x8DojwAgwAowAI2AyAmcT4k9s23Ji6+YT27ZeP3fWBO/ZcuUqVL5C4YqVi9asXTaqSdYcOUxwyi4YAUaAEWAEGAHLEZDDblhYBEFGEL0hYgYNsfbZ+9OyxcjxO0XRnjNid0z/OfnMGVEMw6pVL/NElKiWg+RvXry4ZdpUoYALlCpVqW2MkIrjhONGDheNOX/RYlU7PimqxfKMACMQMAhcPnY0PnbB8c0bT+7YfvfmDWv3Vbpho3KNm1aMbpuzQAFrI2HvjAAjwAgwAoyAoQhI6LvhxHYbIDWQVmAoslqMg2EJjKGzKpud+35/JMjYLUv28vFja8eNUQnb66FHwysGNruxd+G8VaPEnuSz580XEd02Y6ZMXhELgMUDK5eLYoJdR/V9OwD2zltgBBgBUQTOxO9NXBKbuDgWhSeiusbJH16zCn9j//txkcpVyzdrUaFZi4Jlyxnnji0zAowAI8AIMAJWIZBRv2M8vuo3YqYFm1Ab2HIwtKVAXg86jJp5frX4Cm/ZWotYOpmzifFo/0ZQdIpKQuxC0VBvJ189tnG9qJaD5BMXCWOC3UWQLjAHwcKhMgKMgBuB1NTUk9u2LvnivyOiIr/t0HrNmFG2ojb+OlOpqUm7d64YNnhM62bjYqJRGHv/7l0+j4wAI8AIMAKMQCAhoJfdQLsNPL46CxFwCq6mm6esf0xFyw+kbzgLPUK0aMhiB7TTRl64cpW8RYoQ9pJAetYlODJf5caFC6gMJ/hNWLSAoOUIld8fPEhYHCsaKtr78XtRUdBYnhFwIgIP7t/f/utPX7eImvh0pw0Tx2PemVN2gVYg6Pw1/PE6IDuunz/nlLA5TkaAEWAEGAFGQB0BXX038MhqxMgP9YjlHgW54C6ayFckLF+Yi2vIW7gIFtMekus0rbWdM6eDIQr4+hSAiVIgW9Wn4D0bbkZFz2xY9Ro9fp0jquUI+S0/TFn46UeEUFGc8s6mHQFZnHJk3Zqp3Z8TxaTha282efs9US2WZwQYAQchcC8lZdvPP2747ttrZ4VbONltmyGZMoU3b1m320vFatWxW2wcDyPACDACjAAjIISArr4bjqtJ8YQGtII6s4AyFvyt2rGzQU/mSN9IPp3kxHEznmCqrABk1KfYqhInolVrArtxaucO5DjkKlhQZbMOPYQGeLTIUZyCznkl6zegqdtZi5aqE9GqjZ03xbExAoyAHgRSrl/fMnXyxikTb12+pMeOfXRTkaS2aCH+YqBs3Re6V27fMXO2bPYJjyNhBBgBRoARYAS0I0CvTEHSgeNqUrTj4pbEHkE9IEVlStenDNovnvmj+gR+D0K71aeEVa+Z+5FHhS+J1FR0jBPWsr0CbtPBUJDDRAs9sq6dFfctXSQaHvK/Ho2oKKrF8owAI+AIBJCvMbJxgxXDvwwYaiMt7Of2Jcz753tD6tdYP36sI04HB8kIMAKMACPACKRDgMhuoCYlABI3hK4GZeotOA4jWkiA4HAVbgR6Dw6D0BM6j2mFw1tGE3QTF1PaTBIcmalCS1JwR7h3/jz01TMzYBN8ndi6+eYl4XezyAkyITZ2wQgwAiYjgGEo6Bg6/6MPkK1msmuT3d25fn3p4M/HRDdFC1KTXbM7RoARYAQYAUZAJwJEdsOGUzB0AqFR/Y/eHGEahYXElEkugU1wKPUpQrAYKhxBYjeObd50+2qg3d3q7AyK2/0TWzYZerLMN05jfGiUmfm7Y4+MACOgEYHbV6/89uGAbzu2AcGhUSUAxC4cOjihc8z8j95PuXYtALbDW2AEGAFGgBEIEgQo7AaSFwK+T4Tn6VfYh5hBQz0PyVoBb9I3bl1gV6nYqj6lWO266IgpevpQorx/+RJRLTvLg6wBZaMzQhoXoNOpoerxC38TtY+GLGHVaohqsTwjwAjYEwGkpKEUZVSzRtt/+SlDwKWn+cfctf1po5o32j1nln9hlmAEGAFGgBFgBGyAAIXdCLaaFIXXQOUI/mHCKQv4KhX7JP6EhIRERFMaQAbYkzy2A8pG57WN7I9AKk5BSjbax4piUjG6ragKyzMCjIA9EUBnDVRTBkMpijr+wGH2u29NfKrjpSOH1SX5KCPACDACjAAjYDkCwuxGkDQTVU6MybyG+2pQ/JpDpph/CdoqfYPGbmBQKMYBmg+dQR4TYufrtwwu4OS2rfrt2MRC4iJKn9Rwbrphk/PHYTAC+hA4uX3bN21b6Om1rM+/7bQVQDiJw3YnhgNiBBgBRoAR+DsCwuxG8CRuxAwcalq+hudliSoVeEeVSkB24rDPVQQKiVCc8uDevf3LAqQ4BWUpRzdt8LwCCSs6m3cQPBqnsnfhPFHjuJCK1aojqsXyjAAjYCsEkIO25puvJz3bmZC9ZauNSA8GP3xI4oj9z79/f3BfunE2yAgwAowAI8AISEEgs5CVVaO+EpJ3rjAeelFAkXw6Kd0Wrp46qaxcTTqFf6CKxNAMC9gvXqfu3AHvoB+nc8H0jBwDaJAEVO3JLp6HTF7JmClTheYtd8z4RdQvJqdUatteVMuG8hh6qr8sRdkXGlW0+vATG+5RNKRz+xKTk9J/9v0aqdi6LWqd/IqxACPACNgWAbC9M/q+fmT9WttGaHlgm6dOPr1n9zPjvsvx0MOWB8MBMAKMACPACDAC6RAI0V4qj2aiIxpHMoLpEEB6RdWOnQ0apKL4UubvghEIJPCRk+IagmvMABohoA6tWvljz25CKhDOHBo6YOuezNmyiSraTf6Hl54/vGaVrKh6TJ8TAG0140YOXzVquCgmL0z5qWRkA1EtlmcEGAGbIHD5+LGp3Z5VXl1YG1K23LmzhGbPmiMH/psle/ZMWbPeS7mdkpx8G3+vXrE2NsV77kKPPD32u8KVq9ghGI6BEWAEGAFGgBFwIyCQu2GfZpC2On/oIgHeAWUsxj2oK1UqSJxBvkPAJHFgI8CtWpj16RtlGjXOmjPX3Zs3hK6r+ykph9euLt+0uZCW3YRxuyyR2sDu0KA0ANgNJOaInqnQvHmZ2hAFjeUZAfsggL4S017uZvL001wFCxWpUjVfWNH8RYvhv66R80WLZsuZSx2WOzdv4Ks75VryrctXzibGJ+3ZhWSKKyeOq2vJPXr9/Lnxndpiily1Ttb/iMvdGltjBBgBRoARcDQCWnM3OHFD/TSbk4kAOiCQqlTMAU39xClHUUtMaJZWteOTHQYLv+HXEo9pMjtnTZ87oL9Ed3mLFHkrztlJRpePHcUERFFMqnd+qv0XX4pqsTwjwAjYAYH4Bb/NeOsNcyLJlitXycjHS9VvUKJeZMEyZWU5vXPjBiY9gebA36Mb1ppG09R94cVWH30qaxdshxFgBBgBRoAR0ImA1twNTtxQBxqZCCjbQQaHob0klFkqaMkZGFUq9knfiGjVhsBu7F++VP2qsP/RhNgFcoNEuwrcWzs6XTlhMWVaSgRPS5F7JbE1RsAsBNaOG7N8yECjvYH5rdS6fYUWLQ3KbgNpUgqkSeTjykaQWrhvySJ8m2Geq6Fb2/T9pOQzp58aM95QL2ycEWAEGAFGgBHQiICm3A1O3NCIJsRMaMMBLwFTpaLwNdrhNUgSreAH1qiIYhNR+10n/VD68SdEtWwij/TmQTUry2op6t5UZM9ezQf80yZ7JITxbYfWZ+L3Cimisum9LbsyZckipMXCjAAjYC0Cvz94MO+Dd3bNnmlcGMjOCG/ZOqJV9CMVIozz4ssyGqud2r4tcUls4uJYQ/uJVGzT7slho0IyCo/h8xU5rzMCjAAjwAgwAjQENP0UceKGdnDRhgO5FeCDtKsQJDFLJWbQkAAYFoskFKOx0gIvnktpHTTwckyLfXvK7F+6RDq1gZ0SmlbYB5/kpFOi1AaCr9C8BVMb9jmJHAkjoBGB6b17GUdtlG7Y6MWfZr4eu7zxW/0toTYAAqY4Fa1Zq8UHH/WNW//s+MnFa9fViIyoGEp7fvvwfVEtlmcEGAFGgBFgBKQjoIndwBO7dMcBbBBP7KhSQQdQQ/eoZD0EAMEBMshQoDQaj2jZWqNkWrH4hfO1Tx0i2DdUBQNcjbB/5eQJAkFgRCQEm7SylPDmrQi+WIURYAQsRGDeP9/bt3SxEQEgoe/lWfO7TpxarFZtI+zTbJaNatJ92nSMtcIQdNAeNCMqWjum/xz7n3+rCPAhRoARYAQYAUbABAT8sxsogjAhjsBzgYd2QGdoYgJmqfSNW+f0juU2Sd8o27gp4fX77eSrJ7dtceLVi7IUFGYbFHlC7HyDLBttlpB4gtnAuHiMDoztMwKMgEQEMPIZT+MSDSqmMIHLxWtM+sG2vYfQ9QM9Mt5ctKLak//ImFlr5zWNQG2eOnnl8CEahVmMEWAEGAFGgBEwAgH/7IbROQhG7MomNs2pUsFINjT7cHQShx1Kn7KEhpZr3Ixw5aCemaBlucqB5UvRbcSgMOJlNys1KM50Zm+cP4+pkKK+yjdpRuDFRL2wPCPACMhCYPsv0+JGSh53lbdwkeenTHtuwhTb8hpp0Xu4VOmYgUP6rlyHniCyUFXsrB4zct34b+TaZGuMACPACDACjIB2BPywG0g9wGAL7eZYMh0CSEyY0vUpQzM44BFtODCrxbkEB2ggoyHScmWGt6TUF+xdME+LcbvJGEpAXDlx/Ny+BLtt2W886L3nV8ZTILxFtOcirzACjIA9EcCsq/n/ltn2GK00MRX1jcUr3fNK7Llxz6jyPPrYP74e22XU2JwPP+x5lLyybPAX4I/I6qzICDACjAAjwAjoQcAPu4HsTT3WWRcIKMNijU6BcXqfUTvMuC3XtDnhJfyNCxcwA9VZl/q9lJRDq1YaGnNC7EJD7RthnNB0AxcMLhsjgmGbjAAjIB2BpN070Uk09fffZVnO8dDD3ab+3OqjT5H9J8umyXYwzfqNRSsrt+sg0e9vH31wfMsmiQbZFCPACDACjAAjoBEBtYmwQT4IVulnkS+sKKBE0mlaQJNPJ+F/lQdy7ektJgyLRUhzB7zjxHQbm4yGnfZy94NxKzR+eNxij/d6o2n/AaJaFsrvnT93Zr/ehgbwUImSvZeuMtSFXOO3r179sl510SEy5Zu1ePqbCXIjYWuMACNgBAJgor9p0/zWlcuyjBevU6/zV6NzFSwoy6C1dkB5z3m//82LF6WEAVheW7A0R/6HpFhjI4wAI8AIMAKMgEYE1HpK2aEbgsZtSBEDnYGbFbTqRIkH/uvXJtIlFBmF4Di+eZPSINMXuYD6CwjEDByqxbhf714FwBFgUqwTCQ4FOuOQ8QqX52JEdBsCu4HWG85iN0xIrLh87Oj5A/sLlSvvCbI9V/YtXSRKbWAjtFE79kSAo2IEAhgBDLea3qeXNGojJKRhrzcav/UOylICBjS0RH19wdIfe3aTko0ILmnmW2+iF0nA4MMbYQQYAUaAEXAEAmq5GyOiGvh6UHfE3rQECSKjRN16VTt1Bi+gRV6LDB7UlWkpXtGDRxAQEt15hoQqGFcATmuYgtwWN2HkuSlzVjBJZFDNyoSn3NcXLitYtpw5Qer0grKUQTUqGtdS1B1eo979ovr00xmtaeq4pxet1gnJlGnAtj3ZcuYyLUh2xAgwAjQE1nzz9Yphg2m66bSy583XeeQYx3XZ0Lj3+3fuzHjrjf3LlmiUVxeL/ujTOi+8qC7DRxkBRoARYAQYAYkI+HztoL3gQmI0ZppCpka3H37BRFXMHJHLNShFFrAM+56WQTqgz6ihc3bRYRR/zQRTii87tN7Ak2rJepGE7dAaUhIc6Vc5sGKZCdQG4nTQXFjafNzSDRoytaH/gmQLjIDRCKDdRtyIYVK85Hms8CtzFgYqtQGIMmfLhpGx9V96WQpcSwb+D0l8UkyxEUaAEWAEGAFGQAsCPtmNQC1LcaVODBz68cET0kkNT7gVmgMcB5iUdANNXMNiB/Q3blAIkiCQCuEZkp1XlOIUyyOsGN2GEEPi4kUELUtUCKRD9nz5CaFeOHTw4pHDBEXzVTAfl5Cwg2585ofKHhkBRkAIAXCX0/u89vuD+0JaXoULlin78ox5lldQeo1N4mJISEiLDz5q/fF/9dsEkw7wkQ+i3xRbYAQYAUaAEWAEtCDgk93A47cWfWfJgNdASoXJeQ1/9MIY6slx7Jw13dBhsSA4HDcj1g6cWnjL1hlCQkQv7LOJ8clJp0S1zJdHWcoB8bapYHyK165LiJbApBC86FdJWCQ84QVlKRWaU0YI64+WLTACjIB2BOa893ZykqsRuM4/j0ZUfOmX2bkKFdJpxynqtbt2e27CFKRy6Az44uFDiz/7VKcRVmcEGAFGgBFgBDQi4J3dsEONgMYNaBRDIgPyNUzmNdLGhrc94DjSddxQqlSMy+AApeIsgsPoublarpbs+fKVqFNPi2Q6mfjYBQQtk1UOrVpxPyVF1Gl4q9a0PAVHYALGh9BKtkSdurhURJFkeUaAETATgX1LFuGvfo9Fa9Z68aeZoXny6DflIAvoM/rMuIlgcnXGvPWnHwjfsTqdsjojwAgwAoxAcCLgnd3YNWtGwMCB1Im+K9db3q5SwVOpVXGNTSniGjSLPyA4RjSONIjgAKViIaFDuISAhkFQCAWDySlC8oqwI1pvEJIUQvPmRZE5CA4CJuf377t8/BhB0UwVMD6ERiQRrSgXiZn7Yl+MACOw+PP/6AehSJVqz0+eljVHDv2mHGehVIOGUkpULh094ri9c8CMACPACDACTkTAO7uBogknbsYzZqRsuPIXNIx39dQ1bgWMQ7qGo8YRHI6rT7FFcUqLaEJxyqkd2zEDz7jLRr9lPMPvE++EX6FpC7jOXeiRsOo1CDHEL5xP0DJThcD44PLgshQzzxH7YgQICKwePfKq7oLBvEWKPDthcpbQUEIAgaFS65mueuaeAMCXZ/5W78WegYEG74IRYAQYAUbA5ghk9owvMMpSTBi86gmd9hUQLiA4MDkFtRjK6FYQHMgxMYKIAZnioC4quPwsT7TJVbBg0Ro1T27bqv2EKpJI36j93AuiWqbJH1y5nFCW4s5kqRjdFgyOaLSJixc2fO1NUS0z5Q+sXCHqrljNWrhIPLUwchKDJz3X1VeyZM/xz9371GU0Hr1+/lxQvSMNyZgRY2uy5c4dmjuPbQuFTm7fdnjtao1nkMV8IVCheYtHwyv6Ouq5fv3c2TVjhT+M6ewgc+2FydNy5H/I035QrWCwK75YDjG/NOUAACAASURBVK9ZJbprtFSP/vg/WXPkFFX0Ko8WHjcuCr9CyPtY4fzFins1GHiLtBt4z+l+9kQGP6/qiZYFSpWu1La9PYNXj+rE1i1SOh+re7HPUTT0wa82fruz5cpt27S4vfPn2bY1fqYsWcC5Zw4NzRKaXflH1uzZcxYomC+saDBz8e4r3Au7cXzzJvt8AGiRKAUgNF0ztfAYX7xO3bkD3jGU4IAXN4di5u5ovpTJKUawPELxRLRsHXjsRsLiWCEQIJw1Z66yUU0ULdAchDTvM/F7r5w8kb9oMVHX5sgfWLn87s0bor5otUuiXgjy+5ctWfDxvwiKgaECnigUd0u5c+fIn79gmXJFq9csVqu25Q82J7dvXTVqeGAgbOEu8KMgxG4sGfgZgcxNt8Fnx016qERJC3dtH9f/+HrshM4xFw4e0BgSPoYdBg2r0LylRnktYkjG2fPbHC2SaWUw3RYjYES1nCiPHlLoVU+IHG3pCFomq+ydPxfvD/w6xU01Uk39itlNYNor3e9cv263qEyLB4P5lN/uXAULFatRC32O7MC44ZLbv3ypaSDIcoT+UJhcDlY3z6OPPVS8xGMRlQpXqZotVy5Z9h1hxwu74aD3/F4hRjWK5S//vQbmdVEhYlzDU5JOQsCgDA4AMvf9/l4DsOEiCI5qYV2sDSy8ZTThSf7o+nUpycl43Wdt8L6849HX1yFf6+UaN3UfwhclviJP797lS9jXeuKihZEv9/J11Np1xEYIIJynpRBQM17l3u1b+IsEFrjCq7BtP/+If+R46OESdesVq1kbfx+rVNn4KNiD9QiAm8aNqc442v73C9xk6zQSMOrIv+j63ffjOrS5dfmS302VjGzQ6csRwTNfxi8gLKAfgbiRmjhiUGBtPv1Mvzu2YCYCt69ewd8/PMYfWrVScY0c6rDqNTGwD7/dts3NNBMljb5Srl3DX7S9SyuPV4yFK1fBLRDaSNmBOdK4F7JY+r4bdujpSN4MFNGw00HUhrJTpUrF3WfUiDGxKE5x0PCU45s36rkGpOjmLVwET/IEU4lLJfTnJ/j1qwJq4+6tm37F0gmA5Um7gpQWUQuQj4+1aeuN3x88IOSz4LcBvLhXHFJ//93rummLlgdg2k61O8LDWELsgkX/++Tbjm2G1Ku+bPAXSCbSrs6SdkEgNVVjJKmpqfP++a5GYV9iyFmr+fRzvo4G5zq+9zoOHqa+dySct/rwkxem/GQEtYEzq+7d69Hg+VYk7/T+3bteobPPImYdaCy63PbLtGtnTtsncq2RkK5trcadKYeizg3ffftzrx6D61Sd2v05tEgzuXiH9oVjT7Bx24MueLj/wTPmwOoR03v3wmfq1pXL9oxWf1Tp2Q079HQk7wqdLJw1IsS907QEh0FjYvH2kgysyYo2aWpLe5JPFK/+MAfehEWUgbVlnohKGx6tIuP0nt32pE2PbVxPKUtRGR8TEmLO2fTpxfIAfEZmiwM3L11aN/6bkU0en/zcP3bNnmmLmDgIjQhovraRkKWzWDr3I492GjpSY1xBJYYZsSrFJo9UiHh1bmzdbi/ZCxPNV469whaPJoS608xZs4p7M1UjTnNxX+qDBxqzPEzdgF9n1HPn13AgCKSmHlm3Bg/kQ+rVXDroc34/ofOc3rlxA1TRnAFvf1mnGuoN144bc/vqVZ027aaent2gdSSyw67STSGxQ0hCMRhNcFTt1FkoHmuF7fAwXKlNOwII+Aq+I97HgeBISOWPaSnC1YMVWrRK1+0JuW24fxVyrQjTuBWCIyEVyrSUDBkqtm7r04vlr18sD8AnNPY6gASxOe/1G1yryuLPPr105LC9guNovCKg+dpeN2GsVwNaF0NCOn81GqXLWuWDTA4dRtHKLv2mQ0Iie7768uz5BUqXSX/I8v/XfOVYHqnOAMivmm2eu7Fj+s9XT7lqtzX+2Tl7hvMegIPmKtV4Er2KoXpl/YSxeD+BBATUHqq3mPVqgRfTIZC0a8fyIQOHNqiFO6KzifEBg8/f2A08UjqU3UBBSgDUEaUjOOTm0QAfBxWn2OE6zFskjPAkj29bjCax2xcERjYQkhTCW7Ty3EhEq7/VqngKeF2h8QheTclaxI0gChZEreGSwIUhqsXy9kTgdvLVjZO/+7pl49j/fvzg/n17BslRCSFwasc2Qm+gtC4a9noDzWiFnAaVMOpTGvf9WxsvpLp0//HX5gP+lSmzl1ZuQQUOb1Y6AiggjRv1lZBZpG+s/GqokAoLOwsBPCPM7Nf76+aNzu1LcFbk9oz2wd27yGYd1z4aqRy7584KANrob+yG3Mdp004hRo45tCDFEyIQHO69oL0rRsZ6ypBXHISSHVpvAGfak7wNi1MIqRMYN1W+WQvPi61SG8q4NdDDNy4IT/Lz9C5x5cTWzXi4FTUYoVKWImqL5W2DwObvJ43v2PbKieO2iYgDISKwYdIEouYfaugw36jP23osBINuvRd7PlyytLLT8BbRbyxagc5/wbBx3qP5CCBxg9BHAy/2dZanmb9T9iiKwNWkU+M7tcMrClFFlveFAO7VZ7/zFrJjds78ldzHx5dxM9fTV6aY6VuKL6QkxAwKKI4WXVEx9kUBBwSHxBoNDMqSgrkJRvCdZYIXvy4qtqYUpxyIW2Er4hOvPhIXC/c6LRn5eLacXiZIYT5iwTJl/ULnKaB/hIGnTT0rtGkpamUpeqJhXasRwCugb9q2QNstqwNh/3QErp87q5NcbvnPf3MCgt8TkDFTppiBQzBisOOQr/4xelywzRr0iw8LyEIAt1K0MY54MFs5/EtZYbAd2yKAKwTlpT+82BXzCm0bpOMCu3b2zNz33xnbruXBuBWOC14J+G/sBu1LxMKdo9QC7TYsDMAg1yA4jBih4qDiHWSdSaR1yKfp4ZKlCE/y91NS3BOtyK4lKqIVCKEsRSVJIaJVG0J4CYsps1cJjjSqEKal4GLAJaFiPySjxXyx5QGogGP/Q/du357R93XCKGj7by0QItTQdQ+JG3peN5WKfLxck2aBgJXxe8CwxrdWbawS08l4V395oHXNDJ5vRfJObdtVdPuvP5GzPlEPe25fopnXpy5fGr7fdNkPaGUUX49p01x69iXtCydgkD5/YP+0l7ujBTsmAzhuU3/di9vhYVIUvphBQ0RVnCLv3hpGqEisGOLWG6IXQDhpBqqtnuQJr6NDMmWq0KylL6zSjYn1JZZuHcO9yLcpGl1oF0vavROvebXLK5LIwVZX0fNkpW5Z41HLA9AYp53FNk6a4MiW+3bGVEps/rruIUltxwwdbztCQlp99KmUSIPEiPmNV2ldM4PnW5G8U3t2FcVr+dWjR+j5NK1wUPqGv+83PTgEgy7u6CZ3fer6+XMSN0v7wpEYgB1MoVHA+CfbLfrvx/fv3LFDPBpj+IvdsEMfR41BK2Io33BQMoLQ1iCMrbnrU3bOnC6Le3LQXFhRxAySp7Xe2Ld0CW61DQpJyCzCIHT0RBF19nz5fDl6pEJ43sJFfB31uZ6aGh/7m8+j5h5IXBRLcBgR3ZqgxSqOQ2DVqOGbpkx0XNhBHjCS1PQkJ9d6+jlCpl6QY87bZwSMQ2DLj9/rfCNyYMUy7jpp3Amym2X0Z8EsFcxVsVtgjo8nNXXT95NQunt+/z6n7OUvdiP5dJJTgkacyEFA+YaDAiaEWrVjZyXVAukbjuOeCPtNp2KTxqJ/zMgQfpJHJcjR9Wv1g6DfAsKglKW09JOkULldDCG2hFi7FKfsXThPNH5cBoQZOqJeWN4mCCz63yc7Z023STAchhYE4hfQydOMmTJH9eVmolpgZhlGwAwE8KJ49eiR+j0tHfyFfiNswSkIXDp6ZMrzz9y5ecMpATsozsvHjn7bsc36CeMckdLi1NyNAK5JcV/raeenyHrUL16nnlM+SzZpLAq4aFNCEpdQsgOknx1C4kaGkBC/9Ti01hsntm3R+SpGCj54mZOcJEzmVmpNGRYjJWA2YgkC8z5494D9pjtbAoX9nWKgL6GTjntfFdu0y/lwAftvkyNkBIIEgc1TJ0t5CX94zSoUogYJaLxNIIAbvB9fet5ZZRROOXEoFls66LOfX30JTcpsHrMj2Q1UbQRwTUraK8bdXhRvEaUUp4AxsfkV6Q7PJo1FEQ/tSR55CpYTnH9MSxEmWYpWr5GrYEH16+SxSpVpxSl2IH0SSGUp4a385LOoI8ZHHYcAitjRZFRuHa/jQHBKwIdXxxGS1Ny7a/ByL6fslONkBAIegbu3bq0dN0bWNpcO/EyWKbbjCATQ5W3lVwE1TNNWsOOtz3ddOhBa15m5iz/ZDSlPzqbFHTPQvKsWyKDtBf7iYVv5azJW7k4ZUopTHNRVFJcTSnJMu6hUHBWuXIVQnHI7+eqJrZtVzJpwCNcMwhB15DdxQzEYEU2anBK7QDQe6fKJ4tNbQPcUqVJNeiRs0OYI4AXF8qGDbB4khwcE9uooSylWqw56CTGMjAAjYBMENn8/SUrihrKd41s2Hd2wziZb4zDMQWDj5AnJSafM8RWEXs7tTxzXofWZvXtsu/fMSmQSp3IYvVU8nxudgAAuA11IXL08fTxdK5kjSmKF0cGglkQp/0ZxSrUnuxgNr63su4ikuraICOkbG777VjSUfUsWoT2nqJZE+QQSlaAyCzZtbBAjYALC5dblSzkeeljiNoVMoXTwwqGDQioQrtRWU58R8kA+0Xh8yVsegK/AnLu+a9aMet16PBpR0blbCJDIVScm7l+2hLzNyB6vkHVZ0UwEaAMag+dbkbxTW02ERdOEdeO/kXtdrfxqSMn6DeTalGxN9ftNsq8gMPf7/ftLBn3WZaSuC4n2hRME6Lq2ePPixUnPdn5y2KjyzVrYcMt/shs2jMxXSIY2EwWjAaLHb5aEIoD/gmoB4+Bq/2lYxYe7Bsc+fSh8nRrp6/YhdGhP8qgDb/mvj6XDot1g4pJF2oUVSVeiirZ5KGHVauR5rDCaVIu6SFyyuObTz4pqyZKnNCLRXp1k+Q0KKYACpcu0+dSZubupqXdu3Ei5fv3Ojet3rl+/fPzY2cSEs4nxsq4Wxc6izz7t/uOvcm36tYYWtq0+tPLbw2+EJgsUKFXGl8d9SxffvXXT11H19fzFitvz5kw97CA9Svp+QyepIIErMB7GNk2emHLtmtxThlIFNOAo3bCRXLOWW2vx/ocoE7Y8DEIA6IuBn2z8cOPn+9bly/jVPr1nNyHXWMU1Xu+d2rEtrHpNFRk/h0hfHY1694vq08+PZRmHcft98/JlgHbz4oVbV67g781LF/HfGxfO4YKX4cGPDSS3/vxaz3+MHhfewnaF23+yG36f5/1s0azDCptghDcgMHfAO76SNXx5hHzcyGH4i2IZ0BBGcBywiV0H59gUX7Cbv44n+dyFHhGtwMdXDxK3rPrtUbIkRLES+pIKb9GKMDgzIXa+lewGpSylUNEa2n4gLR9ZTwogW85cAdbJKGnXDnRX2TVnBl4viH4EPOVBsyI1wORn4NA8eQLspHgCK2vl0Oo4sqmqHZ8k67Ki2QiQvt8y0LTM3psEf5a3+tK/Bzzrbpg0Xr8dTwuoMQw8duOR8IhA+pnAPTPKiHbM/PXoejmVRAv/8+9XZuuohqZ9ddC0PC9Zfyt4v4i/vqRw34KngKMbN8iaSuHL0a9vvPrMt5PKNW7qS8CS9T/7bjiF3TCoNGPVqK8wJFmU2kh7wua+3x9/jW7JYbR9Sy5BFae2SlcJ9zck1etGEhbp+GL1alHzIrEsRaSbhsYalnQhH1m/VmJJrWY8XIL4BBEKBUHiaPRi+c0lLYDUDKkaN+gUsSJVqzcf8M93Nmx/dvzkxypW0h/2hkkT9BthCwYhcHIH/T1VeHOtn26Dgmez2hEgfr+Z9bChfSNGSTp/pxsnjk9JTjYCnzPxe/XUrxkREttMhwCe1Su37/jClJ/6rd7Y4JXX9OOD+z09WQyO/sJBWwNkkSDt9OODJ7r98EujN98yrlL+p1dexI29/vMl0YKL3XDKMzNSGKSXpWDv4DWQfKEfUzBEIxpHGsETuVNC9PAv+jdovgUjwCTvgsZu7Jk/l+xRjyK+lPfOnydqoWDZcg8VL6Fdq2jN2tnz5tMu75YklMwQvHiqEPqJwojAqbf85tLyADxBt3SlbFSTHjPm1X/pZZ3Z6XihZBUlZyl+DnCODOcLBw/QAkUVXqHyFWi6rOUYBILmW5H2MIbzeP/uXTucTSRurBdvcKY98mVffqFd2GzJoLlKtQALmqPZux/0mD5HJTdBix3I7FsqXKCt0bJPMfudSiT4RPV9u/u06QO2x+MfyAz1GTz1AAgO3CZRteXr/cFu+OidKd+bPovS6z5AbSDhQu4jNLgSNO/Qt1HW/gsB+1Bv+HYg9MJMTkoi33nruQ5O4GFMfFpKRMvWQk5R5VupbXshFUWY1vyC4CidCmEebfZ8+QW6kZGqNPXv6y8LlgcgczNybGXKnLnFBx89N35y5tBQusXU1H06+lbS/bKmPwRObt+K2b3+pLwfr9i6rfcDvBpICATNtyK574ZNuoquH//Nvdu3jLv0Lh45TMtpNS6kvywHzVWqHUyUhL+2YGmZRo21q3hKWnC3aeNTGZo7N5I43lq9ERxHtty5PeEir+A1w489uqH3GdmCXEUXu3F8s43oFpXtya0uM4LaUII3oURFBSX1Q05hstR3YdXR8BYtCa4TxBs9ELykU6F9oYe3FE7SFshrSBMictjQF13/NoUs3Lhw4eSO7UIqEK7QXOSkW87ZWx6AKL5myeMOqevEqZmzZSM7xAgksi4rGofAKfEPtTuYCs1EPt3G7YEtG4pA0HwrOjp3A8lxGydPNPRCgHGkb5DJUGNjC5qrVAhGPI0//c2EUpGPC2mlFb566uT5/fvI6hRF259KtFoDx/H22i1N+w/Ikf8hyh696YCaRAYHWo16O2j22p99N8x2S/IntyxFetZG2j2hRMWIpAP9/I5TmCw3mLaiYzAXlnDlJi42+6EItziEfh95ixTBmAbRDaK0j1CckvrgQeKihaK+dMq7ylLEf3VovUV0hsrqRiCAolP0vsqUJQvN+OG1q++lpNB0Wcs4BMhNN0B1hVWvYVxgbJkRYAS0I7B2nLGJG0okV06e2DNvjvaoWNJyBPCTjR9uPT0jEs0vTrEcNQ0BZM2R4/Feb7y5JE5ndkxaV0iPmv3OWxqcGy7iYjfklmYYFDKabki0jOIRo3cN9kRiwEFrygiSiAxmiXqRWXPmElU/ty8hOemUqJYe+ZPbtiJPQdRCpdaUGpOMmTLR0jdo2SWim0orjwG9ouo43aUaNBTVYnnbIoBXQA1f700L78G9ewfjVtB0Wcs4BI5v2UwzXrRmrZCMTnrBQ9smazEC9kcAiRubp04yJ0402vv9wQNzfLEXKQiAiX5qzHhyJQVGhksJIyCNZM+X77kJU9DlJCRTJikbRAH4xsnfSTGlx4hjftolTktRalL0oKZFF+yJlAYciFYhYqTwO0ZzOlqQca4MnuRpb/LjF843c9cYuUpwF96KOLCaxm4cWbfGzOKU21evEjoeVWjeAiedACar2BaB+i+9Qsg2UrbDxSl2O62Y0n2XWuNWtJq2Mc922zPHwwgEHAKrx4xC3b4520L6xq5Z3B3PHLClecFDeIOevWjmzibE2+pFKW0XhmphQs2L02bkKlhQipelAz+7dOSwFFNkI47J3Shepy55k+kUd82eIcuUuh0MmuVPlDpEfo8aPajZbwDpBGjshskjQuLF2Q18qRWpUk0UDUUe2Q2ElBa8Cd+3xDxCHXQyymFENyjaZlXUPsubjwCyMWs89QzN7+m9e2iKrGUQAldOnCBb5rIUMnSsyAhIRACpplunTZVo0K+puFFf4Q7ErxgL2AqBOi+8SM4vOJPAv91+TmbRGjVfm78ExeZ+5DQc/v3B/TlWly84JndDSuYCTgroBinzXzWcX9cwGv1MituClOwVzt3QcuJUZDBgMlsu4eKUUzu34x2jilmJh+CLUJZSsXU7cgyulJaWlLwP2nxWWpyE1MSsOXKWb9ZCyJ3lie60AEIyhAht0+nCFaOJkzJuXbns9L0HWPzoGEfeUdHqnLtBBs8aRdpMENq3ojU71OeVvFNrZ6asHfs1LXHj4ZKl84VRitavnTm9Y/rP+sCWrW3jQRuyt0q0h3vvkvUiacq3Ll8hKAbbFw7mQnb/8Vc0HCVglU4F3b63/fyjfjtkCxkdkVwAakPWOFj9dIMQ1vrZBHd5i/7sFUec63TwXjW3Y4WWk1u+aXMtYulkTMtppw08o+WkuPcY3kpslKyiuH/50ru3bhLAFFVBCQyhY0K5Jk1FHbG8IxB4rFJl9NAlhIricIIWqxiHwJWTx2nGC5QqHZo3L02XtRgBRkAWAjfOn9/0PbHjRuO+bzfuS+xwt+rrr2Rtge2YhgD5TvXmpYumBel0RxgW+8KUn0Lz5NG5kSUDPyO8atXp1K2e0VYzKWTtSsWOfrpBxbjnIbjTwylAVzlB4Hf0D0wJtnPteTqkrIS3pDzJE1pa0qLd85twP3C0IShaszbNnaJV+vEnCMUp0N2/bIkevxp1aV7CWwgnpFg+ao4WQGqGVI1IBowYuebIwl/rgAFf4kYunyCyG4XKlZcYBpsyBwHaxFPat6I5O5LrhbzT+3fvyo1EuzUyywCCsmKbdpXbd8hftJh2d25JfJPboffhX5GLD3Qj7NrpKi52g5TkcvPyJcLeg/YLp2RkA7QazZQ1KwE0twpaYsX+5yM9FvToOqMypURdCYVACkwmsxtwqidbxK0rJXXFceNg9VzZxumiOCVzaKiofbS0RGNLUS1R+aRdOwhPXxHRbWgJeO7wMLKrfJNmotFC3pzJKYni01Kwo7KNOXeDcEqdofJoREVaoLdIN0k0X6zlFwE0CPQr41UgXxjlicirKV5kBBgBGgKoENn260803abvvA9FFOM07vcOzcLq0SNpFTE0d6ylH4Hs+fLnKkDpfMk/3KLgh1Wv+eSwkaJa6eRxh39y+zadRmjqDqlMIVXWeSJiPrWBGPQ4dbcI0Z+4oTMSTzDNWdGT+WJQhLQnebS03Gf8zG0aWUBO9kuLMG3kCgpG7qWkGHSmFLOwTyhLAbWRRZzDMnQjbFwiAtnERzsr3mmvgCRGzqbSIkDuKpq/KKVcn8FnBBgBiQis+noEods3AnikQkSF5i2VSCq1aY88DkJUqDTcNGUiQZFVLEQgW67cBO/8w00ADYnqjd8iUodud6tHjyC41q+SMfl0kn4rTrFgyaMy2SlGrijAoiylUW+9XV4Qhh6exSmn2Jw4acUpJkxOIYyeRUVJCWqjprRol3miMSGlBX3LaWUj2k/0wZXLCd3RaX1StUfFktYiQOgNrAR86zI3FrX21P3lHen0Ny6cp0VDa0ZI88VajAAj4ImAq7XnzF8917WsNHvXlbih/HGlb1CfwdaM/frurVtaPLKMTRDIlisnIZJbl/iHmwBbhife6FO5XQeK5v/rHFoddyZ+rx4LNF1nVKbQ9uapZQmVQ+524U7ckDIthRyGJ4y8Uq5JM2RwiOJwZN0atLcU1dIuf3rPbsIVHt6yFYaeaPfiSxKZDuVIpRy0fBNfYXiuJyxe6LmovoKTW47UO1bdLB+1DwIP7t+nBZOa+jtNkbWkI3Dz4gWyzfySEkLJAbAiIxDkCKz8aigtcQPT68s8EZUWPVTX0tI37ly/vmHit0F+Ipy1fWIvDP7hpp7mmMHDdI6JJffWoYbs0kNlCn2gmh7HQrp5C1P623u6sGqzhPQNuYkbgIKbbnheD+QVPMmj+4aoOjIIDqxYJqqlXZ44LYXUJNVrVLROjQdXGVic4soNWb7Ua7Qqi6UaNCRXLqiY5UP2QYDcQR0teO2ziyCPRM9L1/zFSwQ5erx9RsBCBNAxZ9ecmbQAmr//L09FpQ2H57rflQ0Tx6dcv+5XjAVsgsDNS5T+oPzDTT59mTJnfmbcxAKly5At4Cb8wsEDZHWaImamnKJpspZ2BETzJsCGyE3cQKhug9rDZkkVBMJbCg/UgLXExYtUbOo8tHfBPFELqCUp3bCRqJYveeQ7EFJa7qMvxsrlvmzqXD+8ZhXsixqR0ohE1CnLm4kA7Q4JEfJNkpmnSd3XPWpKOeqSpCSsqYfHRxkBRsAXAnEjhtImvGCaQ/HadT3Nog0HmnF4rvtdQfrG+glj/YqxgE0QoFUjZs/HryXoJxC/mF1GjKHrp6ZunPIdXZ2kmZmkxUpiCKBxhpDCX6NSZHTcgGtC8ohQwEEoXL5pC8KuD61eiSaXRrSrPJsQTyhLqdCsBYGP8LVxJaVl39LFvgR8rScsWoDMUl9H9awTpqXAXYVmf7YrE3ZNmlUm7EVFwfIAVGKz0yF67kb+/HbaR1DHcvc2sWA+aw5K5bYNsT6xdcuR9WttGJhKSFF9+qkcNeRQ0HwrkmefZdY3+lH0rF06emT33NmiWop807ff86XYtP97017u7uuoyvrGSRPqde+RI/9DKjKGHwqaq1QPkndu3PidVFWKYSt6/IrpBuKpLFS+QqW27ffOF36HqkCH1PJ2/xskBqM+aWY39OGnTVtonit6f7rzLLr98Is2D36k9Eyl9WM6WA+Dy0Rxiugwjnu3bx9eHVehRSvpsMXHzifYpLVHVXGElBYCu7F/xTKUkEjkWZQIf3/wIEF8FmypyMdD8+ZV2aPaIctH1lsegBo6NjqWtGsnLRrO3aDhZoQWuTIlS44cRsRjvs0TWzevGjXcfL96PDZ4uVeW7Nn1WBDWDZpvRVpLAuCJBr1mEhwrRwwVPol/KOCmq0jV6r50XUerVEvaLfzdjhuzdd9+03yAl4IXX77krwfNVaoHOsLJVdyZ+sMdoKeyaf8B8bELaL1yUq5dS1wSG96CkvNOu2CcMRGW8FKaBocRWkKJG0iymNL1KSWMCueJcQAAIABJREFUqD5vC9EiKsE7tyxFtKhHBQTph2j1C/iES48EBvfMmyNqFmwCoXuIupfypGQQg4pTjm5Yd1e8jWt4q9bqe+SjTkcgJTn52OaNlF2EhITmyUNRZB0DECBXpmTNHiDshgGgsklGwFgELh45HL/gN5oPZGeoKzbuRxxguXnq5BsX6F2K1aPio7IQoHWXg3euTNF/CjBorNYzXcl2ds+ZRdYlKDpjZoqsbqA6+74S8BVVmft+f0WlRN36+qfAKqa4LEX0LGiUx2NwiPi0kX3LliKnQKMLjWLn9iUQGEBQG9JrZNCMEy05NYadVgyUMEFLXSVRfFpKhpCQitFt1c3yUacj4OpQQ3q7UqhsOafvPZDiv3vrJm07WXKYmztAi5K1GIFARGDFsC9p20Kqqd/OGqUffwLpGwT79+/cWTv2a4Iiq5iGAFKTyOwG/3ZLOU2N+/bPQn03cGDlcrxYkhKGFiPOYDe07ESLjKxUCC2+3DLa57liTgrKUqAIakNWTQqscVmK0PnSLown+ZL1IrXLK5LIJsBoWFEtdfmEWOGhpzBIa4yqHgmO0lJa9i1bjOIUv8a1C/zxQygMS/FadZjj1w6yEyUxC3b9hHG0yGnMHc0Xa/lFgPtu+IWIBRgBWyGAxA3KW4cMGUIyZmzy9rta9tLs3fe1iHnKbP3pB07f8ITFPis7Z/xyO/kqIR68hiwhfq9OcBTwKrg9juz5Km2baJiydyExaYvgETNTHDARVtZgF7AGQnUiBEA9VYrX8dLe2VNs58zpSv0IIpRIbaQdv+LplFd0IhDRitILc99SyZNTaE03UEWic/te1WktOVGcgvkmXg3SFk9u20L4IaRRM+4IcQdGi1aWFi2AkAwhsgKwv53148diGCEtzjLyBgzRAmCttAjcuy08DklRD5zKFCe2r9MRM61rJu1b0YmfNfJOTWu6sXzIQBqwldvFFChVWosunmNxq69FMp0M3q9Y2cVGx+eCsFnHqeC1/5JBn9HCLlq9ZlZSryX+wvEEPLLnK+T+u8aNR/SM0+J7cc+AvK4oGQ1eD4kulqhbT1RFjzyoCi3fs8jacNekxAwaosdjOl1O3JAIpqcp18Ow+G8ScgrI3b88Yzh/YD86kHuuq6+UadQYuSfqMrSjaMlJe8UdL5XWpWUwRugrS6GNuKPh7FWLFkBqhlSv1gJvETMmyPeveP9TnHTTHHgw2mRHmTIT26Lfv3vHJlvQGwapwEqvU536OmKm/W7SvhV17tISdfJO0VXUhIBRQktoOo7A8N0b1ffPqm0tcTZ77wMtYp4y23796dqZ057rZqzo+FyYEZ6lPlDN/WvvV8l1DaUaPE4Ln79wPHHDxLGqHZ/0XNeycnzLJi1iUmScwW5gq7KaR5jcekNLWcrcAf3TZm1oYUO0n3vn9hPVvkcLJZGm5XX0unpIyCk4Ie9DTnuMDzdgbot718SUlmVLJRanEPJZwqrVyFWwoPq546POReDSkcM/9uxGvsaK1axt2htO54JsZuTk0RsYy21mnOyLEWAEgMDyoYNpOFR/8h/5ixbTrovWG7RXLJgHsfIr4jwX7eGxpCgCcwe8fXTDelEtt3ypSEozOLK7gFckjyPAQN8LBw+Yg49z2A1JFTSgG8wsTqnasbP6iQS1sXPWdMggqr5x6+RSG0gJUffOR/UjQKtlSFwirTiF8BiPXRs6mYmGicSOJBgbRiigpYWd9hIiJwbrvw4VC7QAgqEy5drZM993e5YwQ8d9aqp18vNlLusksh2NCOAlkkbJdGKog6Mp2k5LPHPQ+i3oiJkTxdVPH+37HzZN4G1P79l9MG6Fevy+jjZ6s6+vQ77Wm77tZ7qKL0XckF8+dtTXUQPXdXwuDIzKBqZXDP9y99zZ5EAeLlmqaI2aNHX+wvGKW8n6Dci9RU9s2+rVpvRF57Abp07J2ryWfAopvtRHuirDXxVqA6QGqA0pTtMa4cQN6ZB6GnTlKYj/LMmqwrhw6ODFw4c8o1JfQWGqob0zYZzG09HyUDw3S+gnCiP62Q1yYrDnFmgrtAACuzIFyaWbv580ulVTEBw0VKGVu9AjVTp0IquzohEIZM6WjWaW3I6U5s5ALSdms+uImRPF1a8l2vc/bJpQmbJiGDFxo87z3fM8Vlh9455HC1epSn7DHDdyuKdBw1d0fC4Mj80iB+iQNemZzmvGjNLjP7LHK2R1/sLxBR25B9mJbZt92ZS7TixblRuEFmvHN2+UxUpg0ipGzCq0ghbXNBnkYqiMdEUP0bTDXyW2EXVHy4kbtBMnqoVahqLVa5zcvk1IEZkFeJVRuHIVIS1PYVr7cf2P8Z6RpFuJiG5DaJeDySkxGSTkhRJgeaxipbxFwvzuS12A/OpM3az2o7QAAjh3A0PIcG90aud27Rh6laz/0ssZM5n6c3k2MX7yc//wGoxtF1t+8NFjlSqbFh65MoVzN0w7R14cib8McBvhV6le8EyzRPv+hwGjczdO7dh2eO1q9eB9HW34Wm9fh9TXMWOFli2y57c5DV/vXbBMWXX7ko/q+FxIjsQG5tD9BCNs1nyjd0Yv7s9rPPUseUP8heMLurKNmyQuifV1VGVd9FlJxZT6ocx4CHfE2BSQEY1695M10hWmjm3aaOjGfTUHRcoGeA33g1+1Tl1iBkl4nEt3mgNmVIqZZUTqHxWVo0jfIHxi8QSun92gJSmEN2+lsh0ph+Bi4ScfippKuXbt0Oq4Mk9EiSqmlT+3L5EwFIPWK0RPnKxrHAJJu3YkLIrdPXfWjQvn9XvJljt3zWee029HyMKd69fB6QupWC58+5p50+yxWTK7wX03LL9UOICgQmDFV8Rm+ZE9e5GbYT0aXrFC85a0PqZxI4Z2GTU2qM6RHTYLUuPY5o143Du6Xk4ye/0XX7bDvgIvhrJPNKZt6sqJ43dv3aKNsBHyaOrLKKHIPIXBCFQL6+K5TlgBS4J0iSldnzKI4EBNitfMfHeXDcQMASR3eBUj7CidCo9K0Y+hdgvhLaMXf/4f7fKKZMKihU3fIQ5mVyzga+Lc/kRRv0Vr1spVqJColqg8XBSrVRsjKkQVExfH6mQ3YEHUKeRxEglagaFy58Z1QqKNLfaemppy/TpaVd25fg3/vXT86Nn4eMKHQn0vSI0mt3hQt8xH9SBAHux6/dxZPX5ZlxFgBLQjgHc/tIdVfOs2eKWXdkeekrgVp7EbuD3Da5JHKoR72rTVyrnEhIyZMtkqJI3BIIEOP9l//Hxfv3X58pmEvWcT4m9duaxRXYuY67XEs121SLKMKAK4w0e+85n4vaKKkEfxRKFy5QmKQipOYjckFqcAI+MIDoW2SHcaUCeStgsGvnNV6laETqGncMAkbnhuzZ4reQsXQRYGKk2Ewrt8/BiGuer5kO/5ba6QR0XYhMSNPx21bE1jN9r853M9P9gJixaIwlKwbDm0nhLV8pQnlz17mqKt0AK4eOQwqF6ax4DXypQlS71uLwX8Np24QXLfDWz2xvnzJpC8hqPqxFp9HTFzGbz6FUX7/odN9N0wrjhl8Wefqoft62i97j1y5H/I11Et66AnUIcLqkKLcDoZNLN8ZtxEgiJRhfS5WDLwf0R3QaBW65mu2XLm0rNR/sJRQa9soyZ2Zjcc01UUECNbSdZcWOWEgeBAL0/UhqicP9FDoDbSNtFw9dcY0P/TssXc1IargejK9cZRGwg4kB5UZNUiiZ5HUfnwlq1FVSBPaA+R1gvtN9uEphtKkJXatCdggnG5xzbSR39dOnoEnVZF/UaQTp+oF5Z3IgJIsMrx0MNOjDzgY875cAHyHq+eltannBwDKzICAY8AsjYwwoywTbx4r9/zVYJiOpXG/d6lGTmwYtm5fQk0XdayHIG8RYo88UYfy8MI4AAejYig7e7KqRM0RSGtjE55elR2ZUQhCdpexAwcKqW/Q1pqA7zGiKgGaLHhbl8KGgXEB/4aijmSRIxASeiqCkLhym0pT/KJi+lzYZNPJxF+eqX0ztR4flEui7HzGoXTihGSL9zqtKkrpjE+BDRYxUIESj/+BPqJWhgAu1ZBIGeBAplDQ1UEVA4lJyWpHOVDjAAjIAWB5UMH0ew06NkrNHdumm5arQKlSldqG0Ozs3TQ5zRF1rIWgYyZMz8zdiLXkxp6FshvF+SmKfjao5NyN7CHXbNm+NqJnnVMY0ESh2uAa5GiZDugNqp27IxMDZAaSNYAr+FmGcBrIF8DNIpBXTbcMaN4PsCmwObTPcaCfEKFFDFu45HywiWaaBCQnER8hbhn3hyhCBVhWo4JwZGiQmMN0Cr19wcPaE4JbZzB8RcqX4HmjrUCGIHcjzzaecSYAN5gAGwtf9FitF1w7gYNN9ZiBLQjgB7htMSN7Pny1+3eQ7sjdUkMT6FNk8GcF1r86vHwUaMRaPXhJ/bvmWI0CEbb18FunDQ6NtjHzBS9QxBNiNLtQu7klHSRo1oEf5FzQUt/ALOQrjOfwnfIGmTrF2fwYYFUk6LsN18YnW/yi5hcAcxAJbQzjF84P/JlSt+shMWUUlIa3UAGCpgsHSz89gPFKSe2bCpRL1LUL6giQh1g5XYdRB35kqfdQvmyRli3PABCzLZVeXrM+NA8eWwbHgcGBMBuXDh4gABFYORugJktXqceYfv6VS4fO3r9/DmKHR2TL3lAozrg5O9/g5purKSOSmn42psSpyrgW6JKTMdds2eqo+f16NKBn3WfNt3rIcmLOj4XkiNxuDncdtZ+7gUpm+AvHBUYyezGzcuXVMzKOuSkrqLKnjENxNCmFSAj8Bc8xfHNm8B0EKo8kKmBGw5QG4ZWoHheAcgW8VzkFdMQAHFA+C1PXLKIwG6g5/CZvXtEtyard6Z2vyCnaH2V0VKEwG4QG5HIa7pB60GlHU+/kpYH4DdCpwi0+9/AwlWqOiXaoI2TTH+fJ3EidsMZzKxEclZodws//WjLD1OEVP4UJnVPVHRp3280LcrWLNfRga302A/GrRBtta7EgJpWWU+n7k016t2Pxm4c37IJrUNKRjaQjg8bNAIB9OmPGUgcP+wZD+2rg6bl6d3mK+R3P/du3zZha5nJNwcmBOfVBSovUABiNHEAbgJ/QaMgIQIEB5gO8B3Kv71G5eIyioSB1DAtUyNdGMg3cepMR6+A/v8ixpGoHrfRwQKly2DuBrpaCsV0auf2GxcuiE50j4+dL+RFEQ5vYcHQUzgl5FPsnT8v+uP/ihLnhHwWvPx8rFJlApjeVSy/ubQ8AO+4OGo1JKT954Ord+YhMg44a/mpyX1IOMeACfK7bgdAwyG6EQiab0XyY5URM1OWDx1MuwafeL2PnnFIXp0ifQNf6Ttm/OL1qPoiWof0jJynLiPhaNBcpRKw8mEC93IvTPnJ+nYbQXMqUb1LGK9+73aKjxMoczmjg54e3ftG+oZMDFRtgUZRaA6QF555HEjTQEdS9NRAr1C01bCK2kCOSYC123CfE6NpLNWTL3ywYnRbYZ0MGRLEqQpq70wL2I2KrSmYKMUpQmCCJDq1c4eQCoR5WoooYoEtj8fdLiPGMLXhlLNM7rtxPyXl/IF9Ttkmx8kIOAuBfUsXE7qeY495Hitc46lnjdhsVJ9+IZkyESyDCUUeCkGRVcxEIKxaje4/TicnFJgZasD4yvkwZZzcvRQzcjcc1lVUuSbwJG9Oz1XFHdIi0CXUPfoEi0qX0I8PnlAYDWufwJGyEcA1KXr6vJr/DRIRTZoLu0RscgqmpRASPpGk8EgF4gAnPUg+VKIkcgUJFkTLTFyTVsQpc5PbrBJwYBXTEECj9adGf4uqXdM8siOdCOhJPj21kzKoUmfArM4IBAMCy4cMpG0THESmLFlouupaLt6ky9PqMr6OkvNQfBnkdbkIoHTohak/S+zVIje8QLVGa72BVwsmAOKwibBuRMx5nlemurrTIpSRrgqpYS2j4cYB1EbgdRJNe93bBGeNH0XQB4R3iTiJt65c1ugCYqKP/YrlSm0oM2u1R6UiSWtlmrg4VsWm5yF0MPFcVF/JXeiRojVqqssIHbU80d3yAITgspUwZos+N2FK+WYtbBUVB6OOgJ7G+Kf37FI3zkcNQUBH90TRWkUl/uD5ViTvVG5XUdyiXDxymHDxPFS8hKF5c43e7EuICirIQ9m/bAlNV6uWjs+FVhcBKodfbRSkZKFOB1dBhb9wVMDBoRz5H1IX8Hr0nknsho4ZqF7jNmcRD4SgHozzpbAG7qmuCq9hwkhXoR0FPrXhwIuT9uIXaZzaTz3GrGgXdkuGt2hF0JKiQsuPQEP+E1u3aAzg9tWrhL4z4S0ll+qgkl9jwAaJWR6AQfsy2ixIrtcXLC3VoKHRjti+dASQkEyzeXLHNpoia+lCQDzDzu2O1lcieL4VyTtF3w1d5zSNMmJYOfxLmrWovm/TFDVqoU1Anee7axROJ7bsyy9oilq1dHwutLoIOLmsOXNh+CsyLg3aGX/hqAN7/84ddQGvR2mckVdTKotOzd3AllxzW0+dUtkb+dDcAf2REKE8LKHphtJTA/8gGzRCMeCpDSNAM8EmrY+D9rwDdJdI2iXcXQJdS4tUrW7C9r26QGUK6lO8HlJfdBWbaPuTuCSWVJYimd3QFixL2QiB7Hnztfts0Eu/zM5frLiNwuJQNCMQVp3Iblw4dPDG+fOa/bAgI8AI+EcgfuFvtMSNAqVKm5Bh2vC13rSWpdhU/ILf/O+fJcxCACkbby5ZWbfbS+SUJbMiDVg/tA4aWXJkNwERV98NZ7U2cIOCHp/S24uCMhgR1UBpsQFYwGvgr914DSAQJNRGibr1TPgMyHWBKZKiA1AQwNH1a+/cvKElkr3z52oRSydDa3dKcORLpSKplwHuk3wZTLcuWsYCdTzWYsiRRvssFpAIVG7fsfeyVTX+8UxA7i5INlW0Ri3iTlNT9y03ONucGBmrMQKORACJGyuGERM3mvR/z4THVNye1Xr2eRq4GJ5Czo6heWQtrwigprjrxKlPfzMB//AqwIvmIHDv1i2Co6zZcxC0RFX+YDfCwkTVbCKPjhjI4JAVDEwhZUMZjOLqGxq3zoa8BjYbJNTGH1dmUVkn10w7ldrGiLp7cO/egeVLtWgRZ8G2orQ71RKPRpmIVpROjX+MQdnu1wWIocPr1vgVSycQ3iranAQ50cBY3mgEkM5a+7kXXo9d3mnoiOz58hvtju0bikBRau4Goton3qzH0L2wcUbA0QjsmTfnyskThC2gZ5lpE+ufeJ2YvoGtYYOE3bGKLASQg9xh0LA+K9eVbthIlk22Q0aAlrthzsjezNgVZp2S92a5IgiO4nXq6qch3KUo2JE98zUUqEHBBOrwV89ryYnjirELFKdsnDTBczvqK4mLF+FNsrqM62l/h/+n/XRGkKRQrFYddctGH300oiLOJqa9iDrC7Fu/dfX7ly5JffBA1DKNcBH1wvK2QgD30LWe7VolppP9m6sjsaj7j7/aCj17BoNaekxDuHbmNCG8IxvW3blxI1uuXARdVmEEGIG0CPz+4AH57rRp//dMAxOMdt0XXlo3/huCR2ywUruYjKTJsgR3rKIgkCV79srtOtTu+sKj4RUZE/sgcPPyJUIwJlamOPMNuRtTV8KFjgYc0E3bZaPvyvX6uRLC+daigjjT/ng4tKRIy04VGYdmFYXVqEkoTjm4eqXfTsLaKzXSgow5tXZIUqjYup32U++W1DIgJmHxQlHLeHtfsn4DUS2WdyICKOeu8dQzHQYP77tyXa/fFtV6pqv9qQ0n4mxhzOTJR2BFD6zQlDRn4e7YNSPgCAR2z5lJS9woUqVa2agmZu6xwSu9spDS47HBnTOZdDbjXIF0RoJGk37vguV/b+setMdiasMM3DX7+P3B/eTTlJcK5lSmuHI3HPqGPO0pwGM/Ei4ID8OgNkY0jlRMoRoFU1E0n1lTBREnBri4G51W7di52pNd8L+7Zs1QuoSYGo1ZzmxLM6kDACoBeQGbp05WF0t3FCOgD6+Oq6A62UTLo76n04jotp6L5q+g9cb6CWNF/SLd4/TuXehm4kvx7q1bhFFtES2jjXj9YkLZsC8clHVaAOB6HqtYSd2yJUcvHzuK0Tk010hZav/5YGRAZM+Xj2aBtZyCQLEatcgN//YtW+I3ac4pODgjTh2TL2k0Pe1b0Rlg/j1K8k6lTIQl14k3e/d9k9FG+kb9F3uuHjOS4Hf16JGGtGoifS4eKR8emjcvYReGqjy4d5eQZewOqebTz9Z65nkk/BoapBbj/IWjgtK1M2cJvfxhMGeBgipmZR36ozLFsX033CigWQaB4EhLbcQMHAq+QBascu2krUZJGyce/pXn/4AkOBydmYJRo6LsBq6ZhMWxKuwGylJObNM6IdV9BeLB1SYkkdJvFbsQ/XTExy5QYTcOrVopahDy0mfBKjFY3nKMFkCB0qXtWQRxNiH+205tCWVHOB23k69izCFTG4RPh+NUyjwRRY55//KlmCfN1wkZQGFFHZMveUCjOtq073/YxFelToJj28/TriZRhhgWr123RL0/XzGq707u0fo9X90wacK928JtEfHGZcsPU2p37SY3HtqDYot/flQq8nHJkcgwN7X7c0fEu6Epnk9s29r6k89kRKHXBn/hqCCoNKlUEfB1yBzOwdVVFA8/jn6SVBBUCA7tJSppqQ3kfdiT2lAaiCrVKEgt+fjgCc84kW+CQ74uI+euO3Fgihtt1xvjvMJvjHGfjcpVX6fMNR5V/L4wvGUrI5IUfAWpvk6b96Zej0MoS8kcGsotqdTPlE2O4u1Ng56vkoNZ+OlHKdevk9VZ0SkIYOA03mHSon1w9+6WH6fQdFmLEWAEgADaotPyIKDb/P1/WYJhaO7cDV4m/rhgs/fv3LEkbKc47TBoKLl55IWDBzZOHO+UnQZtnDQ2E3DlN6UbhovdCJg/2gmOdNSGTV5upz0RrlKUAf2VhiAID/yLStVMQBIcDh2YopxEV3FKtPCYkrs3b6iw3cSylJbCYRj3hUBr5IlXJWfi93qNCjdVoIS8HlJZrNCsZaYsWVQE+JB9EIjq2x/PrrR4bl+9snTg/2i6rOUsBCq2ptffbf5hCkqInbVfjpYRsA8C23/9idbWt0yjxmi6YdVG6vd4NVvu3ATvSEHdOm0qQTF4VNDsucUHH5L3u3LksGtnz5DVWdEEBM7tS6R5Mefh7k92w9HvydPiC4IDfTR2zpyuDjp6WCgCKPSwG7Wh8BquXcxy7QIRapnhEngEB0bhqJ9Emx8NJ9EKiYtjve4LudPHt2zyekhl0W5JCrR+q9igK2/F259Dq+PQr8TbEbW1iFbRaof5mJ0QAA/VaQh97Dduu7UMFbbTjjkWCgJ62I2bFy/umTeX4pV1GIGgR8CVuDF6BA2GZu8MoClK0UJ76QY9e9FMrR4zitM31KGr+fRzKDtSl/F1FPd18z5419dRXrcDAoRKeSXs/EWLmRD/n+wGEulNcGaaC5AX6FXhq0rFPSElqs/bnoUepgXp6Qh1KMjXcPMavkpRPBWVFRAcAVBh5N6d3VgnX7D7WsdIDvS88HXU1zrYDa+Vfq7qDPGylPJNm9sqSQEpLTTSx9eQ+UTxaSlgfMo0MrU9u69zzesaEcCI+1rPPq9R2FNszntvo6rcc51XAgkBJPjo6ahPmOEdSOjxXhgBMgJbf5pKaKcFd+gyhhHdZL9SFOt274EOowRTSAzcOPk7gmJQqWBUGfkW9PDa1XvnM+ls0+sF1N6ZvXtowWGCO01RSMvVVRR/zGnyIRSZTmH0qgBZgMSHdFsD66FMHgF30Kj3Wzq9yFJHssmu2TOUwGATD/aIjfB43zdu3YioBuReL7K2o99OANA06HaBwRyiDV/RCvHElk2ebKOv5AV1qCNI+SPqNnUejWjVGh25RI2gOOXcvgTPOyFCWUq5qCZZQkNFA9AqT2p7rtW4FjnLA9ASpLhM8wH/PLBiGS1V9dLRI2vHjo7q00/cLWs4CQGkb5xNjKdFDEV8mYAOpqmzlq0RCNBvRU/MaSMeYIfcUhQPOWu++dozEi0rWbKFxo0crkXSUJn8RYuCqiC4WD9+bJ3nu0ubLx6IVymevzDSdengzwnwQmXR/z7Buyh0SKGpW6YViKcyHZindmyj9TAuVL6COa0A/2Q3CA/Sll03mh2DLEAeBBI0MD9V4ThAIigdOrFflTYWmj1IEERIrjSTpJNuW1rqUFQcQx3JKU4nOGyVU6OCtvqhiOg2ouwGDGJySjp2A2UpRzduUPfleRSUednGTT3XrV1R+q2CxBENIyF2YTp2A9R+yrVronYMmpbyZxji+TWi8fuRtzwAP/ERD6M/WczAIWjDTtNfM2ZU5XYxD5csRVNnLUcgULl9h+VDB5FDXTros7JRTcy58SIHyYoUBAL0W9ETCq+Jn55inivkmSlbfvwehV2eBrWs7PltjhYx28rgNmbDd+Ma9ZbEmwfoVVrvpZf3zJ+L8WeE83jz0qUlX/wXk90JulaqBOipTAvpgZXLaQgXrV6Tpiiq9VdX0QB4W+5186Az8LQPBgH/VdptYKegALwKm7aoNNf4tGwxhORmIpRSFJ1ME3icwKAGTDsXxjkq1aAhoTglIXZ+upBo01Jwp25gkgIVNVq/VXjbi9qcv/8hlKWA8SnfrCU1dtazEgF8miq370iLAD0jUZ9C02UtpyCQt3ARPb+eyPHhToFOOdccpx0Q0JO4YYf49cewbvw4HsulDiP44k5DRmTM9OerdHVhz6M7pv/MnbM8YbF2BSzq7rmzaDEUq1mbpiiq9Re7ETCNRT0hAH2gFKooh2IGDfGUMW0FyRrgWdzNNRS/4DX6rlwvK50EVS3IWDFtR0Y4sk/RkJ7duZ6lmzQTtYAS1qTdO9NqJcR676mpbjm8hU17Z9Jab1w+dvT8gf3uLePrFdkc6gh4Hi39+BM2ZHw84+QVrwhEf/QJrUYoJb/pAAAgAElEQVQa1nCHtP2XaV7N8mLAIBCpY34wQIgbMezOjRsBgwZvhBEwFIFNUybSajoMjcpM4/du31o//hszPTrRV8Gy5Rq8+ho5cu6cRYbOIMWT27YgrYZmvGgN03M3PEv9aaHbXAuP/Xpe7+jZHXgNNMVAsoa7vwasuXkNua1PwA44NxnHuZF7Xh4oTvFc9Luyb8kit0xKcvKR9Wv9qngKlG/ewnPRDiugGELz5iVEknYm7omtmwnlLRHR9LGRWgIOyWjxjG1aACEZQrTsznIZUBttPqFPeEX1763LxJ9ky/fOAWhBAAlrBcuU1SLpVQZfKatHj/R6iBfTIfD7/XtETHQUpdP6SgRPU+EH1PbJhL4bd2/dXDtuNPEaCCA19Ba9deWyhA3p+FxI8G6wCXTfIFeGKp2zDA7Qu3naFw7tNsx7BLZc3Tt/Hi2unAUK5C9WnKYrqpWmMiUsTFTZnvLgC9BMNN1fJVQ8NluSFOCahPIHr5G2HQZ4FiVfQy6v4T4pzq1PcW7knp8I3G1jSIfnuvoKyhTdAgniY0GgW+aJqGziE1vUo5J4tAKpPCRta9W0TIfGwEIyZarQwtiyFFqbJY3xaxGjBZCaIVWLcTvIVGzTDiUqtEjQpWXhpx/RdFnLKQjU7/GKnlAxPOXcvkQ9FoJB98Khg7tmzyTuVEdROq2vRMq1ZGKoTlMjMP7KFgkE0KbJEwl9r5yGqP94792+vXbcGP9yfiV0fC782raDQMcvh2egMjjonAWOw/xd0L5waLdh5u+O5hG0JvnLv1gNk8pSsLW/SqGQ0YCHf4d2owSjgdwT1xa8cTSoBFHOosk1KcjR2DVrRrq+kggSXU5NeIBXeByliyrtImYt/QigOKVc46aipSXJSUnn9+9Db2EEQHiMh5axvTN144LJKTtn/ipq5sLBA6hPwehHFywe3Un8WitVv4GdGR+/8bOAgkCHQUO/btEYP7EEQOIXzq/e5WlkDxF0WcURCFSJ6bR8yEBy3ixatMzo+/qr8xZlzpbNEfs1P0g8zv3cqwd6LpjvmuYxeB7CTdvp3Vu31k0YSzsdgaeFMXCRPV7NVbBg4G1N4o4w2b1O126bp04m2FQ6Z/WY7uw2tISN21Blyw/f0+6+sJcyjaJM29Hf8qid2HoDORofHzyBjhXgC7xSG6AYlEoQ0Aqm1aQozTXAqqSjNpS8EhOoDeUCcmh9iiX5NcZ95GhjWTE5BSHduXmDUpYSEmLbphsKzrR+q9Ddu8CVEZe0awe6k4ieMlq/D1EvLG80ArkfebTFBx+Svcz74N17KSlkdVa0OQIglOt266EnyItHDpNHGOrx6xTdhZ98ePn4MadEizhNe+a3HBPTslQwK+TO9euW79cmAbi6q44ljsW1yRbMCaPpOwPw803zhc5Z237mzlk08KRpPbh3b/2EcTRzGTNnrtS2PU2XoPU3dsNBrTfAUyi8hl+mYO6AdxRcIE8ASFQFw1k8m2u4jYDsQD9RZYYLxqaIGifIO44pCKSmG8r5oo1lVVpvJC6OTX3wQPS8l6xXP3u+fKJaZsrjCaQCqS1IwiIX6ZO4+K++JNrDRsKIdmGapOX1lrQAnNJ3w31Saj79HPnX6trZMyuHf0k7v6zlCARqP/dCluzZ9YS6+ftJR9at0WMhUHXRKp8w5vxvaFCz02GEVgafcl14cLhDTx+ZxxHqu4EpIeu/G+9QiAwKG98YN86f12Vcx+dCl18TlTHZHamXZIfLvvyc8FqL7A6KtC8c2m2YnjhN090wcTy5ywzq9HEBmBZqutyN+qY51uMI81zx1y+vARfgGpRaGzS58JrZoSeMtLpID0FzDUx4RSWI3+oeCENMoTmQ5WEozeFKaSlSVNY2TbCj5bSaEIZEF1lz5KjQXLjdw7n9iclJp5BIT4ikQvNWBC2TVWgpLef2JaA4Ze9C4Z5GJepFmsD4WF5vSQvAQX033Fdph0HDwJHRLtqNUyaeid9L02Ut+yMQmicPEsV1xjn73X7o6KzTSICpI2Vj/kcf6N2Ujv4CmbJmJXg3LaOBEJtcldumXLHrJ4y9e5NHC6U/dXGjhqVfEvp/HZ8LIT/WCiNvt2rHJ2kxgLxb9L+Pabo0Le67kRY38HerR4+gIQmtSm3MS9yAu7+xG3j+t/mTMFI20IlTY4EJWAN31wm0uiCfEnVFeEEuhmcRirqWctTFibzf36VrJMfhLL6geJ26WqBzlgwta2DbL9MOrVpJ2CmNOCA40qNSumEjGo+7csQw9CURdU07BaJe0LhUVEWuPC2AkBCLR70QQMCvVZO33yMoQgX5UL/9i6hL88haJiPweK838jxWWI/TGxfOT+9Dn2Kox7U9dZF+/8vrL6Pphs7w9KTV4FUBwTs5o4Hgy1qVlOsUPi6rSAPy21evop+otdu0p3fUTeh6VRkEuRvKiWv1r08wO4N2EvHC79DqOJouQYuWhUG7DSOEZ7LK4i/+S/7+z5I9R/lmpo5xTH9Ta+cnYSVlQ3sKxq7ZM5Rzb1zihmsYSuPItBNeCVcbcj3AcaSbFEuw40sFzI7NSSt35IhTI3Xla7P2XC/XpDkhsDXfUCo5MU06V6FCBHcmq6BpX9nGTQhO96YZKKNdPdycfBbLX7/QAqBpaUffGMnInq8+VqkyzTZyNzAdg6bLWvZHAF8vrf71b51xoufR7Hf66jQSMOpotnr+wH6d22nwsi7CKEsopeDIQQ1QdcJLyzbKkl1grJsrcYPU0Vnn1hyhvurrrxwRp7VBhubN2/rf/yXH8NuH75vXOYt2a0TTIiNiiuLxLZto995KdFU7dMoiPj5Sz87Ssxv2fHMulLLhhgMJEX/CakDihpKyobcANc2pA0Wi9OPQczq96oIPckq/WDuTa16x1biYLVculJxpFNYpZvN+oml3Z1qOiWmMD60wROcZT6tOC8CJlSnKrjsOHp4x01+Tv4SQXD5sMHpwCKmwsIMQQBfh4rX1ZgLunjs7buRwB+3aiFCRnj2zX+/9y5fqNJ6/WPHG/f7sg0YzRRivrjhCSSPNo7O00BCXELB2zuj21SsbJ39HcBEkKnileuXkCeJmA/GR2BcUEdFtMEzQ11H19WtnTq8YNlhdRtZRrkxRkESrndnvvEVGFSkwDV55naxOU0zPboBHsNt7foSErA3tKRsKEK5aj6ST+De2I6rrF0owEfpTNrx6QSmNq1eI7IajVTsZVZjjdRfkRXuSa+TtpFU0bUSrOSUYUjBBv1Xy3apQADwtRQguBwkXLFuuwavEt8H3U1IwP8VBm+VQRRFo85/P9ScJrxo1fM9vQT2JcOHH/9Lz1u7PsxYS0nn41+ReOYoRoSyDtFfL8c2bRC8eJ8rTtqm93mfN2NHBkwhDuADwdmHFMG5ZrQm59p9/mS13bk2iHkKbvp/EnbM8UDFqARTP9DdfTT4tXA/uDgiPP9Ifw/3uNj27AQVbvedXqA2/2/AUcJelSE8HUJIsPD3KWgHBgSoVuQSHDUkrT7gCtSxF2ak5lRGPVayUt0iYJ7b2XEGiWtknGpsQW8XoNiZ4cbmwvHTW8gBMAvovN036vVugVGma28NrV8cv+I2my1r2R6BgmbJ1nntBf5yz3u5Da4Gk37XlFtBGbutPP+gPo/5LLxeuUlWnnZwPE8v1j2/drNO1/dUvHDp4O/kqIU6NTRBuXry44btvCfaDSgU84IWDByhbDrLfblx1Ld4nTnZH56y57+vKAqOcIO06gXUq474aiiJN7bv3lGzY603PRaNXvLAb9nnPX61TF2RtECAANaD0wsADs9yRqEZTG8pmFS9yCQ7pLA/hvKir2D9C9fjVj6LUsFTk4+oy+o86qCxF2Wx4q2j9u1a3gNYMOvsLqtv/21HLk0stD0AALGmiHQYPI/NKCz75EFmX0kJhQzZDoEn/AfnCJEwN++nVHvuXLbHZ5gwPB7zGyq/oExzd8aEmpWn/AfrDzU89lUc3rNfv3eYWjm/eSIswf9FiWhTXjKU0AtNiOcBkiB+Z4PvtrvGPZ8jFg6g1w3RSm145AXQqwdatHjNSD84lIxs8GlFRjwWarpeKZeU9v9+xpjR/2rVAbcRQByO7g5f7wKz02tC+BT2S2ALSTyRSM+gt6p4goycw43SNm2tjXMxClsNbtdbJgPp1h2pGvzK2EijXpBlylR/cu2dcVBGtHIaJcVAEquUiVavX6dpt89TJhA2iknzpwP+1+2wQQZdV7I8Asu6fGv3t+E7tfn9wX0+0UP/ljVc6fjm8cvuOeuw4SBf3tQs+/peEgGXUpChhaHwO94wZH/NLRw4/TE3y8jRowxW0/aNFlb9ocb+KNy5c2Dptql8xTwFMRntr1frs+fJ7HrL5CpqYjG5JyS1NXBKLZ+9HKkTYfIN2CK/D4OGjo5ugSpQQzIrhX1Zs3TbPo48RdFlFCwIHVi6fpaPdhstFSEizd3QPEdcSq4eMl9wNyMglBTyc+l8Aw0KmNmCdVnzoNywUjPiVkSig9OCQZdDm436NaI8iCzpZdiJaGpungB4ED5csJStac+xky5mrzBNRhvoysxEJbX6YxO3TAgjJECIxBktMNXv3A3KGzvZffzqxdYslYbNTExDAi6Mm/SU0WEFR/az+fWkkmgnblOsC70XRSTSDjJeQ9V/sqb8mRdkd+TMO9YAvTiHf9z5UvITfiwfvb2kvIep2e9GJ1AYAQcEjHp79IuNVYMXwIV7X1RYDq5xBbadpjrkmu/cjfjmDE8H8FI2OaGIhpJNCuw2jRWic1rGN63965UUUAelxUevp5wpXrqLHAlnXO7thbXNHPOjSClLcKLiTFCTmPqDZp87Jr4SThI1IrE+xVUeVdGhYTqgRzo6oSo6HHian4Wnx5biyFGVThoZdqHwFLbduWuDVIkMbWaLFskYZWgDOnZnihiVL9uwxX9Dbuc3757s63+1rPEEsZgkCkT17yfrujf3Pv9eMGWXJLsxxig8CSJwlX9BHNqaNM2+RIk3efk9i5A+VKEmztnPmrzRFR2ghLfT6+XO0UP3W+2BKxfZfphGMI3EjUt8MYIJTiSpRffvTnlQPrFiWtHunWCQymEQxj/aQrtvtJXLlAtohGdo5K2hnpqwdN2Zq9646L5DQPHmavmMs/aQSoXd2w9omlDGDxFnPNFt00wESh7/AplVlHe72qCpnUeOh4nXqaZQ0X0wiD2V+8No9GppHEN6ylfZI7CNZoWUr/XMNfG3H6HwZX3553XwESjVoWLXjkzS/l44eWT06kB9ZabAEjBZewXUeMQbNj6TsCBnR6DN699YtKdZsZQQVHJOf7bJn3mw5UYWEPDl0VOZs2eRY+8PKI+XDadZObt92dP06mq79tVYSkgX+2BUmaiPrU32D5MSNei/2DKXOxVAPyZyjSN+o1KY9zRcPT9GIW8ZMmToNGUGe7M6dszTirFEsJTn5hxe7Lh8yUP/7HnSNBcGh0a90Me/sBtxY9S49qs/b4Fb07NOIphsSKQbRrUlM3zB/JI/GzeKka5R0ulhENDHR0e/G8Yrs0XALOvf4DcyvAIpTjOu3yk03/OIfSAKtPvoPOQsaL+TBcQQSGryXtAjkKlgQ99CyMMGM2HEx0RcPH5Jl0A52zh/YP7Z9NFgAWcE0e/f9ojVrybKm2Cleuw7Z4MoRut6ckf0arQjW5tTO7TQvYdWrq9NPrsSN6ZTu/kjcqN/jFVpU9tFq3O8dWvrGkXVrhNM37LNtcyMBv9bwNeJYDVfnrEH/MzfegPWGr5HR0U0xS07/DlGQUr3L0/rtkC34ZDfwLl1i7oPG+KSMOHEXH+YtXESjX3UxCxM3lMBkcSvWpuSogBzw/UTde8cddlj1GipQkA9VjG5H1rVc0aCUFnQh8ftWyvK9cwASEcB7wjaffkYziDcVc94LFpqVBpHTtcpGNWnUu5+sXVw+dnRch9Y7ZlAe/GTFIMsOKtrWffvN+E5t8Sgry2bNp59tYEBVQrGatckRutI3NgRg+gaSiciYlKjj521i3MjhtNr7yJ6vODpxQ4EUjWyrdiCmBC4dSPwxIp9N5yo+8WYfctHZ9l9+IrN7zkVMbuSowVk7dvSkpzvfuHBev2Uwm52/Gq3fjh4LPtkNGDW/TYPOmpR0QMhKVZBFLpDPk8T0DXIMxikGQz/RtOhFtGxtBJgRxo9WNSJsxSZabxhRnGIQaWIcDmxZPwLoA1eucVOaHdwh0crLae5Yy3wEovr0q9yugyy/aGs374N3f3jpeYmkgKzYtNs5v3/ftx3aLPvyi/t37mjXUpcEkdTm08/VZWhHUaKvnmugbnblV4GWvgG+Rs+jXfG6agXLV06e2Dl7hjqkXo9my507ABI3lK01fqs/7f4EU2yMHpPnFXwnLqIypdOQr8iT3fFmQn8lhRNxkxIzqlG+f+GZ5UMHycKw84jRmAIuJTayETV2Q+JbDi3xIbNAZ02K4sXd+1OKNdg0v5moJ1yyYjCfsfLcS7oVq2qg/AZmkIARj9xICcFQTIMCNsFs9nz5StSpK91RuDFEkvQ42aBcBNp//iXurWk2lwz6DJmuNF3WcgQCMYOHyU2gO7xm1dctG68b/42sW0PTYMQUjBXDBo+LaX02MV6i08cqVuoyaiwtn99vGDBLpi9hHOkbq0YN9+vFKQLXzp7Rk3GGqnj1dmzAipa40aBnL7y/dQqM6nFiUk+NLk+py/g6umLoYF+HeD0dAriJrfvCizRYUFUa2M2eabD41QIvjwbSXzWOxIQUv8IaBSJ7vgp2W6OwcWJq7AZyH6p16mKc73SWYwYO1e8LVSRKV1FZZTWwJotZ0LO745s36lF366r/kklxIWRESi2SkEfLhfMWCXusUmW5YRjXzkNunCrWpDfIQCMS3GSreORDgYpAzgIF0M6Ktrs716+jSxlNl7UcgUCmzJmfGz+FnAXtdY/3bt9eNviLMdHNJTat8OpI4iJe+I9p3WzNN1/LJWXwxdt10g9ZQkMlhprOVOX2HfUYR6nF+gnj9Fiwie6NCxcmPf0kCA5yPBVbt8PHwZc6Ejd2z6X0lwW5XLf7S77MOnH9idf7ZMqShRA5Wm8cjPu/9s4DXIvi+v+CWMACBAVEFAtIUdGowYIKVkQiTVSMIvaKgmLEBHtMIkGQEjtGjQ3EhhpUjIAFBOy9YgG7IgiC2OL/c9n89j+Z3Xd2dra8+7733Oc+94HZc86c+e7s7syZU6Y7MNZOFkpsNNq4pdvYyQsumbPsoWNjO+nUE8Z03Y3i3yx77BnNlC2336GMdVJU3UzWDei269vPPJK0rtakhGjpMqdfvHsytVqnDBs6tmvni9tsOnav3bysomk5Kfg5StMaqZucJR9/5MZYcK7a5rjh3Y7Ud/JVUBmk3X4HODslhk7yrTNL4BranTQWCoEdDj3cuQIoFeZSyapVKEBEGRUBiqcMuPG2Bo1/lS4si96f/4/D+tx+wtFJIgXSVSlU2ievvDzx5ONuOLQPqUNCCZwb11p33aNuviN1YDV92uy1z5rrrOusJIyPjvhzpRs4akwbhx+ccGVozihB1Q+3EuO7n3Ra1ThueNMM940d+x/hNuUeE/cNa+CwivYe6ehaJZmzbGD+6YcfyBV1zW+73XzkYW8++ojbA16qo3WaNOl/zQSK4JQiyLO9pNXWU8LLQ5nDDt++ICjmjG8++XjJRws/mDsnB8X8HKV53pVgX5jZ8CJxMwCp0pJLCOrm3FILHTc8rLbu3oN6S864aYwNftWkaC45DkMjuKbVTp2IU3XgDWXJIgIotKP/aaxTJ5omU4qyK5Dp6OII7zVi1FXd93FLJfDA8GGnPTIj0/PnOEMR2vQR4FN4+LU3sMNPXTRHtfzyTt79pFNb79k1dflJBL7172mzJlyz8Llnkwgx8B5+3Y2/arWZgSCVS7gbbNPjoOfvvCOJNAwcP363Iuf46yQKq7xUt5l8+slff/hBEoGNWm5iqGjz5bvvvPrgFAf52LZ2Ofo4B8aCs+xxyunzbrnJQcnP33z9zWkPt9v/gAhe+XavAohjie0PPvTFu++MgCvsMmblFyZPLG+pjhq9incrcf//8Jl5/F34wnN4GoaBl7St5szgptvWabJBUkEp8UdYN+gFu8OUc4em1F24GHa55hwZWDS4K7HMGby4wzuL2VqEsBRPZUw5hbJNxAQyhLx2Om4ABOl2mrXrwDcvBJT4Te0jv5rxZZaFA3tEWtaN9ZtvVJZEJHXK/VVzU6DOauU2ymQw4ch1v/dZ5xBT6iAbAzrZB53DWxx6FJb8EWj56x2PmHDzpNNOdDOBmRWuWU3Om9Nk8y079urdsVfftBYk5k4NV9mpPnHV+C/fedtAk+QSZ/WHXXWds8NU3K47DTg6oXWDHglRYW257zl/JBVxXAXKRb/s889I/vfSvXcnV2DXY443CHHOTtL5xFOSpH01qFTeSxzA7HrsCbjxO6gxY9zoaOuGg9wqZen2xwveeXz68q++chjftMsubbvv/mm5jzkuqMq9DgQ3TBgLnnuGb9CCZ59Ja11tuB1k8MFrj32NgSbnS9HWDbaghH5k6iVRatPOh4d6JcWxL+R8b7LoLq10JMl1q7WOGx50lDhJy7pRHieF5DMgIKF9t+4P/enCQLNLA6Jc2ISnuhBgMUqYCZHPDsN6+obrOvbsQ4EGB95UWFYuXSrfPgOS1Hter2kzA4HNpdZd9mJNdtvxR33/7bc29HFpiFWZMWYUvxySb9e7H157HHDFFZKEHmeN1x/+19szHmM6JZFj5sV/cMBNtzZvn9/D0qxd+3b7dcOz2qxY5FUiO+4afCqmTBxtODGOpC8jwVfvzX/yqnFuiTCCaq+7YdNOpTM4UkbntakPBrkiW5gJGJ4iySqUgEnyzO23UCkprv41eP7rga17HBSXsXbSs1Wmsvudp53kMHxedA//6aK+o8c58KbFwn45h283OaFXfL1oxZLF3y1e8t03S1YsXsxfcqJ7/0gxlUYkLOTZ4TNatDx30dYNBpa1+4bquMGceOkeLBpJo04attg48pbYEHg5Sm0os6ap0ST9shJZa11Sfq113PAQIfUGS96S6Fhf4DOwRec9rMkLTbhes+bUMvjoheeTa1k1Fp/kUNRyCT3/OvLqHvu5gXD/8HNOvPdfbrzJubB+EhmbXE61SuhxyV92OvzI5KPD7nDsxHv+OfDw5YsWJZdWSgLBIPw+eP65xKrwxt5it87ZHXNR3g9zBkYN0sdk4ZaijRFXxKNuvj1/55Qug4Ykt254YyEZ4ZRzz37kL5e06bpP+24HtN6j6xr165e6lTm3427zxrSH35r+6Ccvv5Ri113POMsgDa8Ww1XDpT1OGVSVjhvekLHd7DLw2KeuvcqAQKlLM8eNFutGKXCC7e33787vG9MeCl6KbHnlgfs69u5bxqhAXKtS8a6KHGkRCMi1NODGW1MvlZB8aFbWjazdN7brU5O71MsPmqmTiANeRdPHYQgqSyk3mYRi47LXcscN4Npgy9Y4LXOyFxc6jR4fvIQSCsXeoduBya0bLEE23alTocYlypQLgaZbte16xplui/VPX31lzo0TdjH6b5drXNJvigg0bdvu+Lvux5aUMEejjUrvPjGTXyjxnd58t85tuuzdrF27xpu0Yo1owx6kwQOZDfAX77795TvvfFnz9+0cRuGrgXMTpo36jRoHFcu6ha75/OGcklZHnPq+cv+9/CKwxgLVefctdtujLAeSaPL+nFnvPj7zvVlPZnE3Ofzbsf/vSuFGeWC3XSWxG6kYHEspVoT2zieeOu+Wm39YsTyuMrjesOPdrs/BcRlrLT3uGzwFbk5nD5x37qBpMyVzVtaTB9P2766/aYMttsy6Iwf5VtYN5GbqvrFqVbHQQfscWNiHF1a3HIafURe13HHDQ5VY3yeuHJsQ4dTLryTUJyF7h+49CJtMKuSAAxNKcGcve7ylmwJuXO4w5cpJ4kC8rEmS59Dr9CtGEuWUlieggwLCkg8CuB4cN3nKLcccgQ95Pj2uWPw1zur8et3hhUemGOqF83fdDTZc51dN2CsSxsI/6jduXHf1eiRcoEzGsi8+//bLL/hd9Y8vv3p//jcff5yPwsFeOB09ZPw1azZoELyUTwvx+ez/s0iSh1h+V1vtr/XWXrvhRhtzLNSwRYtGLVqu17x5w+Yt1mvWjHdCcv+OpZ9+svTzz5Z+xu+n337xxeKFH/Jv/mbqRsSt6fmXvxlukJstGIHk3axixw3/Od31uBPdkpLgviHWDcPE0y5R2f2A4RfdN8zkZFRKGk/WzLGj9xv2x1IEtu1VvTSyBaEEHdb5Q8dfy5erxPUyN9taNzJ13xDzgc0sKIjbhY2qZhpx3PDwIXoioXWDRG5b7bWPGe3KusqSscW2HSlYmETtcoal/PJLEs1T4HVTwI0rBXVzEtF7xOjrD3aJeWbj9OD5fzjihn/mpKh0Uz4EsCYcO+me+//w+9cfKkM4EkeUn772Kr/lAyBez9v3PYSyRPF40qbGEtTtjxcS75O24P8vjyQLuFiW8rKs37DRmuusU/PbgL8Nav7Wb8A/1qjfYK111v1x5UrKsnDO/8OK7/gHLxPSu3y//NualuXLszDK2OBANiJDNCsOa27uMCTBqeKMGyqwVISZc+P1Dpl6KPX4/KTbdzispNeMze2rVTTb9e330pS73589y2HUsydcs23PXkmTAVX70sgBWI+Fh737BZc4s+fAaGvdQJWBt04qspOFBhZJ71OBD5tCQYwvqSQELUIakV4jLk/l1lS6EPKiNdx44yQnb2322rvSQQjqT7BlEusGy80y1sdNt3h4EJzIFjcFflmt3EaZyIElI2jRcbudBx479+Z/OIghjkASwjngVoks7EgPGXf1vH/eiAcZOdsqcQj56Lz7yaftM3RYPn2ZeyHCgjCK+U8+bibL6GpNGr9vlmQkPAuxROrtc7bJGI9lPYMAACAASURBVIS3mlu/e5x6uhtjxXFxWL3b8Se55U17/Mpx2/U9ZPU11ggZtWykQ0BZreefR17ZfW+HTK4Iw1R9wr3/cqt74unyi9yUwE1hjY1du+0+junMAvKyaqhrL5h9vgQU2MOVOmV1+G6QQdZc/Td13IoscJsDeyZRjywVSdiLybttz95JFCMSu+7qqyeRILxViQBr+kYbt3Qb2kOXXrhy2TI3XuGqOASoJUEaDglHCr1xuItTRrcgpg1Pw35jriSJVai20qgigHsF9y58a72KjvJSXlKYuLitv1GLHQ49PC5X5dLvcswJ1Ilw0J+Iiecm3ubAWGtZ2Pg4v21whXM70qi1aEcOHKPGoGkzim/aYCAxrBtQk30jFQ+CSASTE+ADllwIEgqyFU8L9vL6oTAKPIBSuS/VIaT9Ae6FS1mjtKmusBTvnrKpaNa2vfP9LWdYirPSwpg9AiQY6z3SsRDA8q++enRE0nQw2Q9RekgNATJWnvzgNOrFpiaxKgRt27PPoEdmFg0WztIH3joxeXngqrhFJQdB5ldWX5ghSlKsttr0UaZ8HAbGPU89w2A0MTBW6CVyzexx8iA35Z+8enwOlYzcdCsmF36XG2/3azfdHhs1gqQ2brzCpSJAEqi+o8b2v+YG0vZXBDLxrBsMqVLcN9JKNN2qUyGqsKbluFHeyJRKmTy5Pbobd9yeYG+37lhiVmtGaGejz5rrrGuIKHbDWbiqBoFWv9l5+4MPdRvO85Pu+OjFFGoVu/UuXPkjsPZ669U4KZx9bh3xBVttNc9lg9VtMXPIYdoYeMvEYuqW/9QN9kgC1IG33NFk8y2Cl/wWHDfem/2UgaDUJSwmvz6k1tWuZsvtViqIZMDP3CaJnErNppB2Qkv6Xj6GzMoh16KaCGkhPiWKSq5HILDFbrsPengG1u0IuiJdjm3dqBT3jQ/mPp0KzvhupOU3kUQfr2huEgkeb1rpSBw0AUkmjwNjdbNs08MxOKUqw1K8e+1cCAZ/uVp1glTdj0YWo+s2/EL2aW6S7zvnrP/8/JMbr3BVKAK7n3TqSfdN3WSHHStU/1TU7tiriC4b2tCabLElVW/MvgmpoFFxQqg9fMztdzVr18Gs+aOX/dlMUOpq19OH1MJoUKrD7OmaauTJq/8u7hulplNo+68223zPQWeEXopsnP/UE2VJFB2pWEUQ4DVDVvUBN9/uvHAq1zBjWzdQFPe2Imz4IyFLy09hs513iewrUwLQrgKvh16XlTm/eqb3yFm4206e48S2++3v3GnBGTds3YaPmYOSHbq5R/o4dCcsFYcAB/I9/+KYNm/R++89edX4ihuyKJwQAdI/Hzvp3j4jx1Tc8i7hwGH3XDb6XF5Qlw1tgBtsseXJ9z9Uy01RGiZ8TE+8718bbbOteTK8//SsD5+Za6YJvYo5iTSZoZeqvnGn3w1w8739bsniOTdOqHp80h3gHqcM2rDNVm4yp15yPoWK3HhrLZdn1zj+rilU/q5EEFysG5WSXjStHBMUJSrvrU3RtJGWS0tcQLqecVZawTVxuy44/SY77uSwaN6y8x6k9y/40JKo5+DSQjW+dvsfkKTT5Lx16rq8UZP360twU6DOanVS1KHgoiii3N41He/McVcsem9+wQco6mWBQMfefU9/9AmKQWYhvJgyd+x/RAGzbJixIlgAU9QOh9WiDJcGQLbcfc/j77bKjztjrOPh095n/r4WOm54mNe4b5w22IC/4dLsCddSG/h/COrUoq+wAZlSl4hM6e16RErmrGl/dcmclaTeSqmBFL99uz4HHzvxnsq1a3gIO67FCTEoSLpNw0RJz3ejzMEpaYWlgFVZrBsSk2KYpVxycN9oX+5tvHlEya92iJ9vtXWXrsn7TSjBrSBrwk5VdjcFqr4irIZwj4sudct4j5z7hg1N8X6JqApCYK111yWy6dSHHiOBSwWpHVfVemuvvfNRxwyd9exv//TXCs1kcdClI46+fXLjTVvFHXvV0HNkgrfRkTfeitE/clC47i987tlIsiABCBO1FGyvPS1UinELhqKQ8Jx/XP8/QEnx0ah5Q2X3XY89IYoq/DqlahwyZ9WqirDk5dn/D+cPe+7V3n+7gmPXcBwrp9XRusEACTQoeHzKS/feldaNKGPCiJrEHy0dCxlqw0/L3BMLVamTEglX7HiKOnWcD58jlSkIAUHCcSsyVnEikoLclKpRg6X/AcMvdBsOK6Tn77zDjVe4qgABXP3ZOR/1zzsq1F/XcAvIytz5xFPOfPzpA86/eN2mTQ2Uxb+EBeq0h6dTS5KEmsXXNkUNiVrtNOBo/IzwNrIUO+OKyy0pNbKuZ5zp5i3o1l0BucjzRb0YN8VmXX+tFBqPC91eZ/7eubK7ZM4KRbtuvXpbH/hbvmiDps3EeFShFu3g0NytG8WPT8FPIa39PLEh25cptjDFdBUpmnuCM6lUS68Rjh/OUgKrr73VzrvWb9jIflybddqlfqMY9PaSC0W5zW9j5FtlkbHVPvsVSn9RpsgIUDzF+QR+2mWXEjhd5NGJblkjsPmuncm1NuiRGSwMqiCTMR8gdqpnPjl339//oVIK/kXeYu7L7iefNuTxp7sOPsstP0JkF4UiwHUfl3LmZPcLLsHPyFK3d2ZOp1qKJbFKhuPGtgf1dmCsMhbqxbi5b/z43YpZ111VZWhkPZwkld3JnPXUNVdmrWGlyCeJCT56VHg959mX+429ii9apWhuqae7dYMO8Gggn4JlT2UhSyv1xqrBnpm/r0q66SryD0tB/+JHMJVlZqqdEtrXofuB9mp0OCAGsb3YolHGCtgpSH3csh9kuSlQq/Ju+POc8pZu57rfL1s29eILiva8iD75I0Cdjl4jRg2Z+fSux51ov5/MX09Dj+s0abLfsOFDnpjDCoecuwbKCr1ExZAug4YMnf0czzsl2Ct0FJFqY649/d9P4FL+q1abRRKrBM4ZN/Y56xy3z00s9YpPTNqRvYec7abnnJtuWLH46//ySt4NOxA5lnBOrDNjzKjFCxfY9VNDVU15N9Zu2JBEPFQBO/TKa8+e8/ypU/+Njx51Bqs1hZ9LAWF1ZmDgePHuySkaEeynnQ3lh/PmprW79nxVZo4bbdNvKjQYU1KMiMGNJWfrhqTbsJ8GRJo8N/F2S/qy58601DMhWYttO67ffKOln31qI6cgYSllj9J0U6C25d3wZhQHbjiuP3zpRTYTTKN59cEp2/ftt+UeXRx4haXKECCIY/9zz+P39Yenvjnt4VceuK/4AyT7JrmN2u3bDbtw8bVNRcNte/bh98t332HJ+uI9k1d8vSgVseUVstXe+7bbr1v7/Q5g6+KgyVuPPfrpq684MBKftXWPgxwYq5KFygNPXDXu6w8/iDu6n1auxJuAZAdxGWs5/X7Dznt7+mPffvmFAw7Epxxzh23WArcFlYNW6bJwbMPief2NNmrYvAVb16Zt27XYetuGG6eT4iBdVbOTVieVmze2a+diGjjYYFO/NkX4Hh8/Jh8DB6aNwTNnpag5po2bjzwsRYFmUanrb+6uCq5SjsFmFA0aNep01DE2lFVAw1bhszffsBnILsccX4SDx1V19ebZKKzS4EFNtbO4XKH0n7zy8tszHgu9ZGhcv3lzsqMZCKr40qzrrv5x5UqHAdbYu+3CFRc+/xx5+xy6EBYDAtS+wQBqICjXpR+/+45N42sPPfju4zN++v77cqkR2u96zZpv3b0H9nHnsKxQsZXYSEQGt+n9ObO//uD9ytIfbxQm/1b77Nt6j65u3mf+eF998P6vnIpAcQgslXfVabPg2XnvzXZZsRNqQbIbRD117VUOrwtikRpvsmllTeBUtF3w7DPvzX7KTdQOh/Zn82/D6/yA2AhPSMO6kclDEug11lr1l9/69Rs0brx+8xa1IXQ9Er10rBv4BbBzLqaBY/CM2Wll5fTQzMfAgVEmLa+TPNX2+vIyiaYLe+RUFgJBQBAQBAQBQaA4CHw4bw6r8AXPPcPfH1YsL5diJMOnzFb7/btTdKBcOhS2X3LofDBvzgdz53z84gtuGSjyGVrLX+9AIts2XfYuplEvHxCkF0FAEBAEbBBIx7pBT/ns+W2GpNGQ+iHF+A5PeNaDTd20gflp7F67OaDnxpK6/m5qCJcgIAgIAoKAIFAEBD597dWFzz+LpYOAWTefastRcILXrF37DVtv1XSrts3atuMftSGnpiU4kWS4chC98tmbr3/x1puLPvjgm08+Wrl0aSRX6gTUdWrWtn3TNjU3cdVvu4RuGqlrKAIFAUFAECgsAqlZNxhh1nt+ZxBTd9/wBptFwhG8Higykq7XRs63RkwbzhNVGAUBQUAQEASqHoHli776av67BAXw90v+Mf/dbz752GHUBCnghIw3MiuHGosGm+E2bcVr0gFJAwuRa4sXfMgN4nfZ558v/3oR7h7fLf1mxdeL+ceKJYvJnmBgD15aa731alzK16rxJOcfazZYZ90NmzbeZBO85amDzi+xBmLLCOImLYKAICAIWCKQpnWDLotp4KCoKiVdLRGxJyOTxZRhZ6cYj5N6lhB/LLklRskIavubIpSCgCAgCAgCgkBlIUC2DowdFFD4+YcfCL9f9bvyp//7N3UZsGKsvX7DBo0akz+SAq78t0KrtFTWfbHU9vvl32LjqLlrK1f+yI1bufLnH3+st9ZamDD464XH8w8MGZYChUwQEAQEAUHAGYGUrRvoUUADR3ZWA2+8yZ04MnLZ8KZFbmEpYtpwfg6FURAQBAQBQUAQEAQEAUFAEBAEBAFBIAkCq1900UVJ+IO8m+28CyWCcy4+GlRDbVny8UeNNm7ZvMPWZjK3q4y3efsOdVars3LpspXLXOIzMQr0/tuoRi03cVMgkuuRP1/82RuvR5IlJBDTRkIAhV0QEAQEAUFAEBAEBAFBQBAQBAQBQcAZgfR9NzxViubBkU8VD0Zt78dBNcFWnXbJImRGnQ35OG6IacP5CRRGQUAQEAQEAUFAEBAEBAFBQBAQBASB5AhkZd1AsynDhr54z+TkKqYlIc8dOK4r5EX3HFiwL3hDwMuDf+Cj0arTzqnnDS2FEpV6s/ajyRPYUsOUdkFAEBAEBAFBQBAQBAQBQUAQEAQEgdqMQIbWDWAtlAdHPu4bhZpMOeAvpo1C3XFRRhAQBAQBQUAQEAQEAUFAEBAEBIHaiUD6eTdUHL0cHDgvuCWkSPeWoEP9hg09B4p0JRdTGrBPOvX4THWj+Gu7/bpl2oUIFwQEAUFAEBAEBAFBQBAQBAQBQUAQEAQiEagbSZGQoMvpQ/jFbyKhnFTYZ44b7ceJpCKwyEJeuveu7NTzHGFyi6/JbiAiWRAQBAQBQUAQEAQEAUFAEBAEBAFBoAoQyDYyxQeI1A9Thp295OOFZYeslsSnADgZNzJCu5ZgmBF6IlYQEAQEAUFAEBAEBAFBQBAQBAQBQSB1BDL33fA05pCfKIYieHBgYcnUqSH1O+QgEP8UbEkOjDYs3MrBM2c1atnShlhoBAFBQBAQBAQBQUAQEAQEAUFAEBAEBIEcEMjJusFI2A+zK+56xlk5jMrcBfEpWZcRMSuQ9dUp5w7NyE2G24eVKmv9Rb4gIAgIAoKAICAICAKCgCAgCAgCgoAgEAuBnCJTVJ0KEqUyeMbsqnRAyKgELH43vUZcLok2Yj1dQiwICAKCgCAgCAgCgoAgIAgIAoKAIJAPAvn5bvjjKUiUClaA6sswSgnYLNxSvGgUMW3k80xKL4KAICAICAKCgCAgCAgCgoAgIAgIAnERKIPvhq8iW/EX756cUQyFDRBVlh0zo0yihKKIXcNmOgmNICAICAKCgCAgCAgCgoAgIAgIAoJAuRBY/aKLLipX35vtvEvz9h2++fjjJR9/VBYdVi5b+vmbr2/Wade111+/LAqk2GkWpo1VXjZ3Nu+wdYp6iihBQBAQBAQBQUAQEAQEAUFAEBAEBAFBIHUEyum74Q8GDw78OMrlxMEevtdloyo6B0fqpg3JspH6kyYCBQFBQBAQBAQBQUAQEAQEAUFAEBAEskOgENYNhkcKjMfHX/HiPZOzG6pBckWHqGAYogqMYXRxL23f95BeI0bF5RJ6QUAQEAQEAUFAEBAEBAFBQBAQBAQBQaBcCBTFuuGNv4zlVCrUwJFuhRTcWLqcPkSybJTraZR+BQFBQBAQBAQBQUAQEAQEAUFAEBAE3BAolnXDG0MZbRyEqGx/8CFuUObPlaJpQ+wa+d++aupx2bJlnyo/K1asaNy4caNGjZo0abL55ptvtdVW1TRYGYuKwPLly+fNm7do0aLFixcvWbLkhx9+4L57d799+/bcfYFLEKh0BL744gteb5999tknn3zC33r16jHD+dlggw06duzIPyp9gJr+77///htvvMET7T3Ua6+99iabbLLpppu2bNmSf1TZYGU4goAgIAgIAlWGQBGtGx7E5bJxdD3jrO369Ct4Gg7ASav4q9g18n+ku3fv/t1336Xb74MPPrjuuusaZJ500klvvfUWBP369Rs0aJCBMtalSZMmjR49mv2tgQvFfvOb3+y8886/+93vtt12WwMll959993jjz/eTON89bbbbtt4442d2fNknD59+iWXXOL12KpVq5tvvjmV3k888cS3337bE3XWWWf17NnTTez8+fPvvvvuRx55BD0NEjBsMdu7devGXwOZ+ZLl81K3bl0MK79a9dO6devdd9+9Q4cOZsmGq127djVcdbtkBnyfffb5+eef3STDxai33HJLpjezZa+99gIKS1Fff/113759IeYhHTlypCWXSvbUU0+dd955fsvFF1/cpUsXBzlFY/n888+vvPLKa6655ssvvzTottlmm/3617/m9h1xxBH2sPsCs5hpvOF5zxt0Dr00Y8aMf636efPNN0MJaMTSwew68MADeXVg7yhFVqr93nvvHTt2rH81yVRZsGDBUUcd5Ys67LDDTjnllFL9eu3XXXfd7bffbqYxXF1zzTUx7mCx5e922223/fbbG4i1SzwgPCb29DaUKDBmzBgbSgca7aHu1KnT3/72Nwc5PgtnHn369Pn+++/9lgkTJvCi1mRiPezfv3+SjuDF4MhrkPnJX95FWCFtBHofGu7vjTfeaEOv0WATPOaYY/xGPrUseBzkWLL8+c9/fvTRRy2JY5Hx6bz00ktVlm+++aZXr15+C5Dy5MaSqRKzwGOZ57VsuOGGkydHZCT4+OOPebVCv8cee/zpT39y6Pfhhx++7LLLfMZRo0btuOOOZjmekrzPWXo1bNjQTBy8ygpfXfPwtuTrHyRTW/7+97/fddddZpq4V5s3bz5x4sRSXFdffTULeP/qtdde27Zt21LEFdder7Aas+sePHNW/glHyWGB7aDIeUanDBuaSoISsWuUa/I/8cQTfOnT7f2nn34yCHzyySdZ2HkEzz///JFHHumwClflr1y5kncxSys+PIZ+vUvffvst62Z++MDstttup556qvetCmXEDeTxxx8PvZS8MXWjUnKVSknguFjFYeuttz7nnHNKEVu28zG7/vrrfWK3ReQdd9yBEO6mTadYUvhhP9OiRYtjjz2WFQPLTRtGlcb5eWHDf+ihh1544YV842N1yvTOYhKyATOoYbYTGRiDlxg4prHTTjsteCnYwn7DGyx/11prLW1dG6QPtrD5V+Ey2wKC7AVsYdKyjL711lttdPtg1Q/7dmwKRx99NO837EQ2jB5NFjNN3YpEasKr5h//+AdbTUyWkcQ8Gg+t+jn99NPxW/nrX/+KpSOSyyfge6GOl67teTVKvMZUUZHbFdjfe++9FNE+6KCD2Ca1adPGZgivvPJKil17Pf7yyy82XbvRsMVlVn/44YceO8oPHDiQz5CbNLjYO02bNs1nR37QtMHV1N+966+//vnnn3/22WdHau59aBgpOvCZi6TXCFjnqLf4gAMOiCshFj3eVanPKE+B4OLwxx9/VPvCJzeWqhrxM8888/LLL3uNLAwiRbFa9nrn73rrreewEMJkpuqPQT+yU19JjBR8mrHqRrKoBBxUqD3aWA3eeeed1G+o2QDNC1/tcenSpbHGWHDiugXXjzgRbBwDb52UZzIIrBtj99oNwwq5TguFT41iXTsnN20AJpDmjGqhkKxtygwfPtwfMuaDESNGJEEAJ22M6L///e9tTBtaR7Nnz8a2stFGG3EomkSH2sY7bNiwl156Kcmo2bCx70oiAQ8djqk5j7I0bah94dLPthl2h82zs84sYjh45yzuj3/8I0tPZzkVx8jA2WmDdtw5w3ngVVddVXHjTVfhBx54YIcddrA0bWhd33TTTZxy490wa9asdLXKSBpGjWbNmv3hD3+wMW1oOrBF6dGjB5YU3CgyUq/IYpkn+KapXktF1tZBN9950OPV/htLIOcK2qojibRYXbNnY62Cu82cOXMsGTnuPuOMMyyJhSxPBFgIub2ZnZV8+umn3c6BnHsUxlQQKLp1wxukvxunnAfpP1MZeaSQKecOJbFFQWwc2FlQht+EdXMBcPCM2WLXiLz71UTw2GOP4buhjoiz9CTnq/vtt9+zzz4bhIgIFA6yOJPZZZdd2FJiZQ/SeC2Y0tl9seCIdEosJaEWtnPyz5mS88AN/jI2MjmkJbbIP8oLsmCxwlsb3xxu/TrrrBMk8Fo4RoMmz+0QoKE8sQOhk7aUnlXQzs3q3bs31sxYY8Hj484774zFUk3EWCXwIsYvIDgonKjxVsArm7/mI8eZM2fyGtx///05/Q7KKUgLWXIOPvjgE044oZQ++PMTSMh4cUXZYostOAMPpbz//vsBZO7cuaFXq74RgyAmraocJoE/qmcKr4XXXnvNbaS4+xHn5fNyOoIF0E2UG9dHH31E/B15ZCzZx48fr8YyWHIJWQ4IDBgwYOrUqTl05HcxZcoUw3syT02kL3sEihuZEhwDNg7PgwOLw0v33oUjQ5Am3RZMCdg4yh7BkbzmK0MgmUgFJUxN9z4WWRoWARuX2sghkOiuFA37Se0SByl/+ctfrrjiilIshnaOqrQlToMGDfjesCkK5tRgMYHnGxG8eDK//vrrmlgWHMGAGoIICCUwKOBdYqdKfLhPxs6/Xbt2kVx47EfSFJaAtCnnnnuuW6D1BRdckGRvT1BJMBSZ+87yd8899+SgO+h4ifmMGCg6JWwVl0sVVQ5D2C/hxUOeiLhoY0MhnjmUCz9tL+8j3XkpZlQyAn3pFMeEyOD8oHCiuNm/Bdvjtpi3xKo0dpKYY2LJJ58r7jmkd1W52F1z7+LaEHma2MnnvP2INdjsiPEs04RzPk/SImAMOmzjHI43O65MvN+Cbr0vvvhikMWsOQHesbI5lJJG+s9Sl7x2AunJ9xF07cGiMWTIEOyPmDJ5wDUhX331FY/zDTfcwMDVS0gj7Qgv5MrKt8IjVspkUwo93BX9lAE+DT5xu+66a/AdWEoI7Z07dzZ8sg2M6iWsyZaUzmQsHtTkJjhcqIH69mI1S4G94waORTZfdk0T4gLwRcLJVG3nv4wFjxtLtXFoYjVCrJklfc5kGGtCQ3s0NYgg9j8KfMhsfFIcAM957LiMsYrgFC23fvFxYzK4Zf1wU5J9gTmVno1YHh8bsuqkYUVYoT/vz5k9c9wVY7rsdlHrTXL4vemIQ1+4687FCxfmBhd93XfOWQmHhgSAyk1n6cgGAfVkm1eYDYszDcvuUm8uggXiiiUAUluvs2NkwWcjh68RObfU8EWWwjaMoTSkkFDHRdB7KFnlNpaK+8UTJ+6gsCOEzgEwtBEVGrGMmzFbGht2aJiEQcsXp8EYI2wkODwvbMPYg9FFcOCsziM71fKzkBU1kiU5gaoqmx83gUQLo602atINGKRpewCPl3UVxikDl3qJp0/tEWOKJWPRyIIJ2IhpslSSbT93TcWBGWjDq7IkeSXa9OXR8BrHtST4aJD3DocOGzk4p2yzzTaahPr165NYwczOkXhaU0WzsAwdOtTcNVdxa1d755MUyRIkwIxFfk3NMxGbaZBSbdEyoWD3N9MX56pW8oyzjbi6aTcds5pBArk51XtEsg8DsfkSyXFxXtNmKacspbhCXQ6xhpSi19pJraL2hcOgJWOmZKrRjeMEt740V198vtzkeFyqVY402JGitNMRD2QsNYZbqcnUzmbIxhrZaajpkNORSEaPQHOZxD4eyTh48GB1/rzwwguRLAkJeGeqPbJ4SCiwUOyVEZmivZ68/3ouFV5WDgqdZB2xUlPDZVWsCp4UWefjwDmFjmpyf9wTkUw4FBkaiUAh/OTCdxb0GjEqz5QlpfSRdhUBXgG5AWKICnbIgMCGh+WvrzyhJeRisDyRxtBO7rqFCxdyCupJSDH1Rp6Q5nbvQjvCTcbevRYJ+NgniUnBJ/Pyyy9XNWGx++qrr5LZy/7Yk/xqhOiThlCVw5bbUjGHm0vaM6YZx3ek/dNgxDEhbvECBwVC710OjTvttBP54TUDB6sWQ9ehoyNNCUKCx9ShckIlhFIWvFFL7Ipdj7gDS505FmZe4crhGfLIvuG/6Cwl5EaGyUZ7BPDAYqvAw2JZHQArDHs59m+qztgESeIb6+2UZOZovA6iHFgYL3YN8jho1Q3Mjxhcbn3lNiUMHWm+nw7FMrSMG/bPVELc2NhjeNW2qYb6bqH3iCmNFcyAj38plN2GMVMaVau0NEwoJ65Kod3xniFEmvWkA3qhAjU5oTR4acV1hPTEhkqz6dFhdM4sNko6C8+fsYKtGz5Ympkj0808sSoUVcHukIWZA6MG9VDIG4oZxSHuhoF7aTXEqJH/gxSrxzp16sSidyamTOxzzz3ns7PgVh3VsEMb0iiEdqod83qFJEMpSzXi+cyRJisMcn8kScCuyc8N0lLjyq0djxvOAey7wxNVOw2z5+WMVzNJEIRCsInbjRs3bpxmKMEPxcbPOcnN5TiaR0CrCBi3UF8SBezRTpGS3FlVmQAAIABJREFU7asqTX0JBHspNTrO6zBwqNHyQV6vpZSEUvSFbdcGe/jhh8dVlYQCGPLwBi9sclbU06LbsMsQP9i+ffu4gyVQDr8w/8QbPz7M35yp2stJMnM0XgdRDiz+0EiqwvfU/29k3F+SvuzxzIKSWC11bpB9IxhkauiXvM6EoPoERDAR92Sg1y4lx42oTFWm4WUY2hc2O+IgbIYcym4/0owoVa3S0jChnLgqleoOr2EeQ5sCKA6TqlSnWLtYt8S9WaWkqXJsaOL2G4u+7ArE0jaSuBqsG/4gPTOH57PAXxw6aMnIpwPrg2/mwCTBf/l18OnAouEZNS5usylGDZw14uYNxaJB/VovVyieGo2iAm4j54QQZI1AbiZS7dSFXBuEkqqjsw9/9bi015/z25B1sE38p/2NyA1Se5Wyo+T0wDJtOJ4X+Ms4a8K6UD0bIdDjkUceMSSLjewIT0iOPVUygvwj014mvLlYZLTQCQYVy28ooQKRsKROoMVjs+c0dGEYHf41nI8FM0po0gwSDP0W8JI2kLp1HRdIJCFKJZtSFhBpttHf/va3xNQ4d0S+CXyFiEnh0cZmTUbhWKKSzByN10GUA4s6Oq0WLJ7khrEn7MsgOYdLSdw3tFQFcV0/kuOGO5sKkcG6Uaov3AT23Xdf1UYTinkp9lDi3BpVrdLSMKGcuCoZuiP4CNsTxzCx8DQI9OUYaAh3CmYsMitgkGbTo1l4WldtlEyrrxzklMxEmEPfmXaBXcMzdtALdocP5831rA9xbQeRSnpOFn4Iiec54vuPNGyxsWdu8Awf33zyMQKXfFTjTPXB3Dluyqwy2bRs1WmXmn+ILSPyDtVWgnvuuYe0dv7o8T3m2IQf8nuR78BrZ+vL+Zu2SjMARl4l9Sq+IW6pSQ1dyKVQBDiNx9vFL+WAhyTO4UQGhRJ7jdxlEp2oBBiztIMsM7sW1kHwquYEYWAvdYmQddJwENviK4lDR9wlbynhpdrJMsBY1ChTHEnYgpair/R27TjLPoaIgRNBxtLNzzxCAAIbYAIuKh0TG/219xtGsVRyfNp0nQ8N9U3UupjEoSSxfno683Cx8avohM1u4JPcR2WMm0HWrdOycOHEhJHCT3SC+wbfERsPPkql4Gzo68zyQ8tNk8NwtNtkGXtFWhk8ufx8E3itojwhKrVwnudwj2J1wRRS623zQsOfgrVoLCGxiPku8HRjSfG4CNvE6E+VqLjG3FidCnFCBKrWuqHiolk6MDRgZcjU2OEQV2K4kb45Axqpe2IASi6pCGiVR/wYadYl7I19SjaWlo4ANdNv++05uvcP2wnLZy+EGcUy9YbcIGcEMGRg3Tj++OM9CdwCHIbxJzcIxLShxsAT7RzL+fzuu+9WhbPAxUBm6M7+EtlMceD36cmfmrV1g74IUbnuuuv8WiqUF2GxUvzk8PaoqpTaxOjQoYO9HFxdOKrlQMxnoZ40aeS0+WAvsIIomeFMEl9hz7Uth8mZG0RaIBgDpDhO8t5r4ZaPHY7qEoX3SnVvdVg2qIFalsVTtBQbcX1Fk89MJPz73/9W5QSz4Yb2wpLmn//8Jy8EbrRHwCeje/fuFEgK1hIKlSCNGSGAORXPX/Jn+fKp1kRpm+wKMxN8R75k/NSIhfE6xeyFOw/WrqZNm2Y0TBGbEAFHx8uEvZaRHUsBBoIupw8hdIWMpKSo4B9qGEtGkSyWQ6Z3Ik28YJMaDWfM9jQk5AS1xbRhCaOQsYr1j8dB48ADD/SDXcnu3qpVKx+i2267zSam1KPnLa8VSMOATdZrsqBztkMmanLp+z8kWsOzncoacjtSQeC4444jPacviuN0/CBKSSbsH49x/yoh4louhlKMfjsHdCpNqTqskXKCBKxO1HM/MqJr2eaDLKm0qEY9BGKVS0Vs0YSw5NLK3MSybjAcXhdatAJYxcr2UjRMLPXBiKOV0GM/Rkv//v1JH6C+3Hj6SGDhL3Yt5ZedTCuHWdhql2UHyqwAnk3k7lELScQyHJuFF/Mqj4D60rbJvoGvn5rYixQJsTJupIIDh/xaoZxg9a5SHVEwmNBO9SqxV/369StFL+25IYCzBrmN1O74YGk3Ol1lOF7CwKEmFWJxy5SODNtMVw2RZo9ArfDdMMPhx5Jg8vAp8e/wwkY8Rw/aPXcMLbOGfWiJbzQhloS4EgQ2arkJcSur/kFLjYe5hJmY71RVXuUwGdOA5dAo6EVKThtiLQBBO0LhbNb3AkAaxFoGeEMXLPch1tKLclZs9iPYaKONMHLj+kEdgbRcAAxKVusl3MjJA+/7zvA5J+9jsHQZk0qr9YUNKy4majAC985+ltp0xMGLOkVZg9ovOm3kh9JolUQMyfM1dux0sYaP1UnNOBiqTOqNmBEJ+cEPi4MsVTimzIMOOihud2SaJLJJXS/i1MB5puYRFldswempV01CFm0D88UXX2AsNqS/pXouHhC84phgGAG18JZYQyaWMNZMo+5VaG3X0E7JfKnmuOnZs2eskKVQmbWtkZcG0T2YuhYtWqSOPW4aKaK96tWzXX5j1CaAtOxQ8+yzq/TViFw2JMy4kWS8vAxJEcXLUDPnsUcN1og1dLT33nuz2lFfCLxj8Zq0d3c1CJdLSRAgsJRVqLqy5bPLu/fMM89MItbAyyEB31bVQkcIJ5WececxcDlfYonOl8WSHY/L0aNHWxLXEjLb12stgcMfZo3FwUtpsfN/21TbRygamuFDTBWhKEmjhgB+j2a7gEpvWWyPTy9elD4j32YtehwvAL4KfikNfM5ZVVtGmBN/iMLI5OjS/m7yHeKHjwEmdsIBSC1Z2HKJ9oPKn5IdFJHMHKP5XXOE+Nprr2ma4EK8cuVKv5FTDi3NZKTmWqG1nXf+v/dgJKcdgSbwgw8+sONLRIVhSOW3P3jnubN/SOnCIYu7NjDMPc4pezVRGLbsF0kqL0V/gYgEJX7jRRddxAxM0Ysn0e3Mhhn3Dc6ctYQ15q54h/PD65QCIuwAkTB8+HAOfs1coVfZlcWaaVpOgVCZfqNWOwlHazN91V9Ny5UAO9HAgQNjwaUmDohk3GyzzSJpciA45JBDCOvwfUJZNuBzV8oqzYdenW8Y/ghidVCS8BB+HBhDWQheiJsVm8cZR0jV7483KnZeg+NkaNfSmDoC2HYxwasHfsSfchJjWWneQR/emdjL1NMCHPpYDNufDtp3akh/GxSy+uqrBxtreUuti0zJ7n57BhH/b3YdiWRBwIwAmxCVIDTYVQsm15Kim+WThRQ7BSn3CEM1U4ZeJd8B5hWilNXYmVBKaQwigNcDq0y/nagi7bCCnZWavZ9caA7pM7WNEMFHQU2StGgC87FuoLCaFTUyB36SARaEl3V5kjR+pHrRqqISn1KtET3+LSNeA38Nsi9bhuhr95pdHydpcasO5zBhtKcMQ1UOnVZ9F9T/Sp6ZtVJQ0ly3DClpNHdRbU1SlvFiocAXw6FrgnnPO+88lXHkyJFyVO6AZOosEyZMwLaoisWzBred1DvyBeJ1hflblc8LnxmSXY8i2Q0BsW644SZcgkBBEeB0Yv78+b5yAwYMCA0Jpn2rrbbyycg4TQaNWEPCw3Pq1KkcWmK3ptAsvhh8ZthK4b/Huhkfb7M0ltr4VOMsbSaTq0EErr32WtX7fcyYMdOnT/fIOBKk7q/Pgue5W6otv6qOJ0oNNw3q49CipSFU8+o7SLNnUQ/utDHaC6kISnysSKeXfNV1++23kx9eHTKHmbH8CyoCLk1JIk2IyuFomtcUJp7BgwdzHsj5M9UlcYNq0qRJ5KDIlctWyi89E0mfA4H2lNmMIgetKroLtlLEqtQeJDmmVp012NeFHlHgPUo2Jf/Ocgri5riR1tzgO4irRawq4FrXRNlo3qbEfvJuTEtDkeOMADGDmhNW3759CSZ1FhjJiPnbT9LvEROqFnqIGClKCLJDQCJTssNWJAsC4QioPuexPL1tIrq14xTDO5cPtpp3GvcN0iaFa1y6lTyj7Hb4CZKwsifxEifkOALgrzF58mRteY0bNgYRHA20TH5BUZEtabnxR3ZUBAJsDXhjqlUtyJLAKhPvRFbbqoZUJ2mpFI22R0m7I7Ec4G0g0gSatwf2akd2rea4tS/0QL4bDVhzR3HjgMzS4l7FtYrweJwszAWDfbEavEG08dIiGYRqiOSxJS2Ln/AlyBJX58LSk7WkVEoFrGMLFiwgbyJ/MfdoEf6MiHjsk08+WcvPah4p3cXK9Bmr6I9WHkVNimnWKrurSWZO5LzNTm0k9+nTh3cC+yjLXjRtsZ1FHgD4ki2DRi01SUjGioKx+0Jwygi65asWdii1BBwJFYjFTlAPRkb0sVljqPcoODP55pJsRc0zisWTL5efzinIEkvVjIjNg3LrNOFI46pk7o7niHQYHJX5IborVqwgVQ3ZtdUDPHWkZoEepZmGPDisZsePH++Lxa2JxfwJJ5wQCqlZWmiPfMFtFvwe7xZbbBHab6xGGyVjCSwvsVg3you/9F4bEfjll1/8YRPAmaLTJpn/VPdj3o+GkF22QCw7/LMXKp5Q+lEt1Znw3lAkjyzrfqJ1XAzYEWHzVmt5kIyDM5DkObpUSBOqXRHsVLUg6RRumZ625EfgvzgmqHeffFeae7w9SlqJXy0NR3KI2BCqQsyRL/ZqRyqmZsSwr+WGdSPFhzRSSQiIiVBXTgYWwo7UmkdspzFpGeiDlzR4g2hjwSSXHudj/nksieJZ07N89KpgBlmCvVRfC0tPfrz0sbzE8GIjZoeMQkS1+IMlZQDPoJbO1gAFr+vsZpr2UBchMivJzImctwacvUskJFLrgJSixyFODUygICivL7NBNihK05bdEd5VQbLit+CziVmT0FRP1WD2jYkTJ77xxhv+QPhU7bjjjs7joiwFnqEO7NjybG6uKlm9R6Ezk6ER6Ul6HZ8L8xZGTO8lEMrioHm6LJGDcugu4UjjqhTZHY8Sy1f8g/x1BR96Zg7+yKFWrUiBYBJJQ0YqDMRMCR9AMlIx60LT1kZKC/bIpzxns6aNkg6zpVwsYt0oF/LSryCQPgLayrhLly4kPTJ0w8pD9SylaCgGDgN9wktUS+GHzE9XXHGFL4rlEZkyMYUkFF7b2In7xU7kb1GAUUWABBO+7cMBGc3cMGfOHAchBhZtmmn7LgNjkktaGJS9dSNJp268DRs2tKydQQywmqKVQCQ22Kmc5GjTieUjHX3++edeO/9goc/yUfMIcBtvFXCRuhUXqr322gs/fDXRLzkI7a0bmeKgPWVPPfVUpt0VXzjpUWxSq/IkEuTlf0k5GeZUAGN98QeYkYYsM1T3DdxFVfcNzV3U4D1qox4GRMs3oY20hDS4CRCNy5zxzTdMBp53g5tAwh6F3RIB/Cb4QnFr/AMMvOp4G3Nr+JhaColLRvgh7jz06zPyXHCGl+IZYVyVhN5HQPJuyGQQBKoEAcJKtUKtHBvyfjf8aHm/We86BKfEhY9tuXfk6zFS3aPqw/jjQmRDj6eGweeFRHdqBk0bgSoN55Nq0YclS5ZQBzGuEAO9pnk+qwEcEFSV2NsYNKyUSxwbqmlleZrUYs8pjoKgCZZxag1RIs5IyYHPQoq9VLooooHI5KqOItMUd7Hg0qoU86q3LxsUqyN74iSnhUl47TX0KHmdqvZ3UrFkGtgfV72c6TmdVk+VPfcNTwfiT1XHDcInkzhu5Dwum+7YKj/22GNqvCfbaey82tLLRlTl0iR89BKyl8KNOBRCVFi6+ARMRWxPav24UrzO7fjr+RGanhDSjpKwyVmgMKaFgFg30kJS5AgCtghk8XLnDU59LFsNStPhvlH6YmpXtCxQyX2ks4A0tdFmJgjfHPIdBsVTz1ItWuYTxEJJK6uW8AhOVZJMBOq2ig2h2boRS+0gGn4LcVvqVS3XuoExLQUMXSS5RHkCNQANT+lYqWS10RkGS0JBzciFgzow/vjjj0n0rzJeimioI1IDVco7Uvy3tTmvFbZIoh77Cgf2JKYxwqPUHg3ztpRi9iyY47XPK2W/SokNbbfvK5S9aI1aei//v/ZpvyxHlCdual+GfnETwJdH9QhgAYOdl8LhloPKk8xyULFUSvLY0pH65Bpw9lWyofGICU7RnFjx3SAE++eff1YHaCPQhgaZuOxh7SJ21ZfP6Pbdd1+t6pyNNBuaWLcpLnHZFYirsJlerBtmfOSqIJA+AnXrpv/ckbQ5lRoQFNmmfkr6Y/5fiZqPdPKklVlAmjUIqcinbiVZJFVRm266KUeLocJjoaTl7GBipFL4cNmyZWTUU9XTctEHNY+ldpDda8FNSTWisdPDp6kUsdaeigKWfTmQcaqs3RqCv+xzRmqjMw8WgxpJRlUlMaZoN9RhCNXEwu3Qgp6Kc66rpSwlRYtaPdr5LmAT58QSeyhPt1kIOVxUApzCzPSGq9pmkm2GgTj0knmqayw8U6rzC8ezmudjaBd+Y6y+zKKKcBUzmer75rlv3HfffWpMFomfkvvH5Ymb2pe537Zt2+L6pLoJMPCBAwcW4dZoOtgPyqB8io8tvahPrs1ja74XmtrkEyXbkdpIvmctr62NQBsarxdS8ODVqL7zsWhrx0s20mxoDPco+aWyK5B8CKqE9HdZ6eon0gSB6kMgdRMp1UnULOV8itiExPpRQR4+fLgBc+IMDVctL2mhKHEztAV7SR3SYBfFbCESWIvywDNCrXuqqh0LJU6oWNCr7PiJYONIiMMhhxzi525AFOEzQ4YMMcuMpXaoKGJStB14qUIYoezJFQgVm2Ijlho1IIXlYySqfu/a6CIHi186NYlV5dVctikOqiyikh/AUh9K89fgUSrLWIKdEhZOUVu1nefR3hAWFEgLLxyvPiIFMjt27GgO2dDC5dS6oaHCDY3grF4NTR9oYOdS5FTX2KmaobZQJUE7oTV0F7cvg6iCXNLcNEjGoaX9Ap/kquaJm9pXZL+YurRiMcV8DcYaVKn7hcVWjcx69913S1FGtmPqVX03bB7byHuhdTpgwADN8kgODpXGRqANjS8T3y4MHOq6K+seI3F2IIg1ZAf5ObOIdSNnwKU7QWC11AsvkXFDXaGeffbZpECL9cPJm39jXn755WCNN/8qmagJZbRf1QXvN9+2efPmqe2WpSuDovyW1CE19FW0SyyzqObraUUKBkMOtrgosVpVFx/4o5IfUT2diwtFv379tDQEI0aMiKwdEFdtTSvOFelXbSRqmpoF9sonVMC+oySUo0aNUnfRbDXV4kQGydrobAZLcnhtb2OQX0GXXnzxReoEJwzxw5lFHXLRktfysVDVmz9/Pk71zjZr7BqqPwgbPPMJtmbdwMPfeXqoyfwQYrNN0vqymeoqC5WM1A18rBw3cftyhiU3RtYMqmsGCQj8QirogOOGmrnJWas8cVP7sumXhZDmJuA8zOwY4w6qlCZq9mhMwGYjZikhtDs8tjb3QuuR1NoG+76NQBsatVMMu4bcZDbSbGgMwCa/VHYFkg9BlSDWjXTxFGmCQN4IsOckPMHvFfux4bVeSjnNc++CCy4IpcQB/vnnn2fXRFEGEjF88803oWSGRlyXDzvsMJUATxObxPUGmSleYolGGTne8qz4U4n0SVE3gyjuBamtcJdVXXgM9JaXmEvq1IKLXRBLfGrcWErwyTjt4dBYi4mlJTIsJW5HKj3HRMjHtEFme7WdnX/11egh36fmUkFJOW3gScDUeHlFUHA6LYFsuUkdgpcyNythUHcSlTyPHmyFXoI6B1FUF9JengUpmOKPBWMotV3UobEpZWket1oWrwKcwLU8TSQjmDJligE33h7qVV4Lt9xyi4G+1CXqH2lJgtXKQaW4krfjj9ChQwdfzvTp0930T65JESQY8rZofhxF0DYLHXATGDlyZBaSiyZTSyfk7JijrSiyW/tRmE/LHZY1pBwsGc4Fs+5d5GsIiHVDpoQgUNkIjB8/Xj15I5og8jA8OGBSoKtlusk1TSFDjYxdh1p5ns+bl6aONOlBgaEtrAXJJ6odKZ9++unZlewKVaNUI6v8gw8++PXXX4eAQ0W16F0pluK0c78IUSFQJV2VOJjloF6TSQu1hLmbNn2R7YJYJ87xtKgWis7eeeedNhLi0vA4EGo7aNAgbHAUTNXYaTEnMY3bXXHoifVVTYc4x5YyU6aiM7l++vbtm1wUCSm5WWi7fPly7F8nnHBCcpkOEniP+Tt8IiY4mmaK4genFRIuJRnlWU+zWNeyCJ1zzjmlWMrVPm7cOC0hwieffEKtbsxVNj7nBEJiH8ScGiwHw+JeSwOkjRGDqTZnTjnllNmzZ8eCAn8T9WsFL090cgdASx20VwrxesnzRll2XTQyzFvaptfTkFusFlUpmtrp6sMrQgvhTFd+QaRph1LYFh0y0Pfv318tqcPQNLHpDpYVEVM0XZlmaSwgSWZkppGr+SBQL59upBdBQBDIAgFcIdSjA8wEDo4bnmKc/5MVzFeSfZFm+eZ8NZj/n20kP3BhtmBlzw8eBNoBHVsFwmRYUr/66qsaCK1bt850AxYLczRU6TmGJYJGK6MYS2CexLicZNQdHgHff/890fWqfBY3/LRr146MD+xz6B0PfJzDmYELFixgnrBZxc0HAEOdz6HEgV8tDGyp/FtvvVUq9IaoUTJ6aGG9mlh8lLTEijb9MopSndqwqzTURySEJC6XPT1zmHR3fvII+jr88MOzK8qIMYJdcdxjf204Y8aMUVsmTpx4+eWXY1mwH3UqlMEXEXt+AOSHcBXv5UZOfl5ZFMf1e8Q7hlitO+64A4emoNcJdj3tZWhWldCYtGYaBW4wfId2x0OKfziJmbQXMkWF+GE/QJUBIgsYtc9OkSMqX/J8YQPCtBEcKZR0R7GA0B7VRsw9uMj5LViFOnfujI8VOx885szss2bNIqlt8AmKFWhm7iLyKl8EdrPUNfcoedb4b9wIBWxn9eqls/wmC7hNasbIcbkRsGwgQEPjrSWOG/6omZB88gwF2t2wLRQXCXpY2vH99bUiKg37JgtOjjrMqdMIZMaEzSOjRTTj+aLW1s1ivNhbWaI4x9E4qITLJG6/ySM3SaSV1nM9YcIEPluRY8G6XSplWySvR5D18sZSjf+SsSKUH0FAEMgTATUBNa+DJF1rywg2b0mkaekJeCdq0mix3HVAxppVqwSuvZv4IrKad1NYM5Cz5HWTo3JRtV7TEM/b5GLdJLBfUpVhvG5yVC6t2kUsmbEKBJg/QuyHsYDYD0dL2G4WXupq8+bNsbNYdsrpdCk5CduZY6V0UCXz7JQii2zXXOXxmjGzaBU9TjvtNDO9dpXwNOIaVOXZAMeSoJbT8+SwT4glIRVitu64kFjeX+x6TGPqExnoWfTbKGaQkORS5BSiXon2wnfuDjsIJg+bwXo0agZcrVN2OxiStJTYjEW1KGksGGIsu9ZSC1Mt0pJRI8OkpdZgRp/IdwtKOsNrZsS84jaKtLg09w2Or5NI1jbApHFJIi0Wr/qhIaAsFi/EmpsAm/+4ErKgxyThzx/etEm6MHhr8gbgKxDMZN++fftSG+bGjRtjPrbRR8s9zFNsw+XTkJOOSEP1IcK2GylBXbs64KZ5vGI4iOwRLzDzk+58lcJYob0PHTrUWWYoo2F5E6pApo0SmRJ6j6RREMgQAR7pVKSzPFVPsTiRS/h+1GwlQfPzcccdh+sy3iLqsV7oWDjr45xNTTOmkXFuj3OE2fwRKjm0MRVItTq1dMTXN7S7Cm1MghJpuvhG2pwAmMHBAEfFnFhu5EnURhnmKushjqmD1iuzqhV69cgjjyT1r688d80cGa7BGxdt8n1wgmfYfEbCGDy+K8tzh/MR3ge83/BciNSZgh1PPPEERrpSlDgjcFxZ6moR2vleYIfScrU4KIYRB+8VXITsefFzKeXMTyAbRgdeEeoPnxKtBoHfF3FMqsuhvQ5Qxp3qvnCy9mj1U4455hizSdS5r8gRZSc5smuPQMvC65yRIbS7PEen9uXQL24C2XnJhYJj05hwUGoXOEFgFwiNI8axi2z02mPLf4lDCa0SjXUYfwrLYlIO90JVm0zG+DOqWYdtBNrQGPDnvaoaNG2k2dAYejRcyk6yodOyXxLrRtlvgSggCDgigP+2+uUg/rOUmdyyA+IL1EXqwoULtQT7yCGzAx1hvOBbji+xWvLdshfIcE4mvUXyrbJ9jzaUQdsQB/42jLWEhlBqTlHw+NDOLS2Hj2nsvffeO++88yzpE5JxNEQeCrRlv0QmM7PrbMK+isaOj5V6DknMRZIiR5Gj4zFh1auVw4jk8gl4n2jElqte+y7sKTmmmzRpEq8+DMduGe9w6CBYQNv92iuQMyVnjNiSePU5pOwBHxyFMOI4vCeBl+1Njx49nMeLsZJZRyiNs4QkjHvvvTcvNF8CEybdXX0S3XLmxZbqPyk4bhASlbMCBemOVy52Xs1NoCC6paUGoWesATjzd3hdeDpgyx47dixWj6DLXlpKBuVgfOddgSE+eCm7FqyuOJ1lJ18kmxFIJ/DP3IdcFQQEARUBgrF/+OEHryXoL2CPFfs3dUUV3Jzbi/IpOYdRP89rrLFGqBC+baxj+OHq1KlTCbzneC0y/B7jC4tpChOYPbpDe9QaKbehjh0HSBsuMw0HLzgY437pVx7RXO7N7OleJVxfHSDjTS4flJLLJKyUHxzRiXMhUah528yCj1QFu+++O56ZzltW9XkxgFC3bl2OlfDU4AfPILW0gYEr9BLTO6O9ColOQ3ukEVep//znP97VhA8IrjFkbFXrLhMvXSrLCU+lOli3RDPkkuR8zKuXERd5chCQv4PUPH6eiDI+dx7+LMFxLuCHXSs7FrzMyHyp5cML3kfUJgqdY/zgJUNLRjPNfgrxYJL6hKcMSwF3gcGGptXwh8BWlpAWPFyCTjeGYQYv8U7DDEQRWf6SahpHPwyRQTK1hYBHbKxEDWAWMTw81cYHAAAE10lEQVRKpYSwN1N3ZbE8yIIyOV1QEVh99dWDNH4LxwapVEgNdlGE8k9///vfvXKYyatUkKpcfSLyzE6qfmjcjl6wofMa9PLO8tUL3qz8W8ja7me9jXS5tVGP0rDMfL5W2AuwbPJi9BKxG3j5xHByhusHfl4OsICqOiUcJKAbRjfe5F5KexvDCtmO/ap5zriBD69WXCds1m/kr2FJb4DR+VKppRd2ybRSe3i6ObyTnQcVyVindrqsROIiBIKAIOCAwNy5c0mvRSj+0qVL+Us2Sk8IS23Wdhkt7xz0NLCwafey+vOlwfM83be/od8KvUTUN7EPOKbyD0KlMNuxPAU6/rJ5qLXneBV6N8uoNgd6XkZkrKtq7royqqR1zSRnB85f7+WG39zPP/8MDSZg7BpswxLulosz0ldeeQWzDk+091CvueaamBXYyWOLN5dESTgErCqE/JAIxusahNkX8TLhhwU63uzyNk6IsLALAlkgwBubxRLVyrwnl1ei99hiCsFOlOQMLwttRWZtQECsG7XhLssYBQFBwBYBjheoBgI1WUgyOla1VUXoBIFagwDbZq8cKTEdJK2oNeOWgQoCgoAgIAgIAoJAmgiIdSNNNEWWICAIVDQCuEl7Dvz85QAzlWodFQ2IKC8I5IAAQW2UIKEjoh5wdc6hR+lCEBAEBAFBQBAQBKoSAckqWpW3VQYlCAgCLgice+65sJHBgUQAYtpwQVB4BIH4CHil6XjibrvttvjcwiEICAKCgCAgCAgCgsB/ERDrhkwFQUAQEARqECCfKOUS+AcBKRWRIkRumyBQBQiQhI/yGQyECk2lUp9WwTBlCIKAICAICAKCgCCQAwISmZIDyNKFICAIVAACpDOk2hm1ADwbRwVoLCoKAhWOwMqVK0kYST7aM888c/To0RU+GlFfEBAEBAFBQBAQBMqMwOpkziuzCtK9ICAICAIFQIDk3uyyJk+eTGRKAdQRFQSB6kegXr16TZs2pcLONddcU/2jlREKAoKAICAICAKCQMYIiO9GxgCLeEFAEBAEBAFBQBAQBAQBQUAQEAQEAUFAEMgYATmizBhgES8ICAKCgCAgCAgCgoAgIAgIAoKAICAICAIZIyDWjYwBFvGCgCAgCAgCgoAgIAgIAoKAICAICAKCgCCQMQJi3cgYYBEvCAgCgoAgIAgIAoKAICAICAKCgCAgCAgCGSMg1o2MARbxgoAgIAgIAoKAICAICAKCgCAgCAgCgoAgkDECYt3IGGARLwgIAoKAICAICAKCgCAgCAgCgoAgIAgIAhkjINaNjAEW8YKAICAICAKCgCAgCAgCgoAgIAgIAoKAIJAxAmLdyBhgES8ICAKCgCAgCAgCgoAgIAgIAoKAICAICAIZIyDWjYwBFvGCgCAgCAgCgoAgIAgIAoKAICAICAKCgCCQMQJi3cgYYBEvCAgCgoAgIAgIAoKAICAICAKCgCAgCAgCGSMg1o2MARbxgoAgIAgIAoKAICAICAKCgCAgCAgCgoAgkDECYt3IGGARLwgIAoKAICAICAKCgCAgCAgCgoAgIAgIAhkjINaNjAEW8YKAICAICAKCgCAgCAgCgoAgIAgIAoKAIJAxAmLdyBhgES8ICAKCgCAgCAgCgoAgIAgIAoKAICAICAIZI/D/AIpxzo2fp8QSAAAAAElFTkSuQmCC;" vertex="1" parent="Xe_iNNLOO6JcA-pmjDCq-1">
          <mxGeometry x="-1077" y="414" width="972.04" height="179" as="geometry" />
        </mxCell>
      </root>
    </mxGraphModel>
  </diagram>
  <diagram name="Copy of WG Site to Site" id="LeOOK12iGuvaxtmSLye-">
    <mxGraphModel dx="1967" dy="719" grid="0" gridSize="10" guides="1" tooltips="1" connect="1" arrows="1" fold="1" page="1" pageScale="1" pageWidth="1100" pageHeight="850" math="0" shadow="0">
      <root>
        <mxCell id="ZaASA2PsLw-YjTPcbioR-0" />
        <mxCell id="ZaASA2PsLw-YjTPcbioR-1" parent="ZaASA2PsLw-YjTPcbioR-0" />
        <mxCell id="ZaASA2PsLw-YjTPcbioR-2" style="edgeStyle=orthogonalEdgeStyle;shape=connector;curved=0;rounded=1;orthogonalLoop=1;jettySize=auto;html=1;strokeColor=#FF0000;strokeWidth=5;align=center;verticalAlign=middle;fontFamily=Helvetica;fontSize=11;fontColor=default;labelBackgroundColor=default;endArrow=none;endFill=0;fillColor=#60a917;" edge="1" parent="ZaASA2PsLw-YjTPcbioR-1" target="ZaASA2PsLw-YjTPcbioR-20">
          <mxGeometry relative="1" as="geometry">
            <mxPoint x="-571" y="61.5" as="sourcePoint" />
            <Array as="points">
              <mxPoint x="-398" y="62" />
            </Array>
          </mxGeometry>
        </mxCell>
        <mxCell id="ZaASA2PsLw-YjTPcbioR-3" value="Site A" style="swimlane;whiteSpace=wrap;html=1;strokeColor=#FFFFFF;fontFamily=Helvetica;fontSize=17;fontColor=#FFFFFF;labelBackgroundColor=none;fillColor=#09555B;align=center;verticalAlign=middle;fontStyle=1;gradientColor=none;" vertex="1" parent="ZaASA2PsLw-YjTPcbioR-1">
          <mxGeometry x="-1077" y="38" width="253" height="349" as="geometry" />
        </mxCell>
        <mxCell id="ZaASA2PsLw-YjTPcbioR-4" value="&lt;span&gt;&lt;b&gt;&lt;font color=&quot;#80ff00&quot;&gt;WAN&lt;/font&gt;&lt;font color=&quot;#ffffff&quot;&gt; 100.69.69.43&lt;/font&gt;&lt;/b&gt;&lt;/span&gt;" style="text;strokeColor=none;fillColor=none;align=left;verticalAlign=middle;spacingLeft=4;spacingRight=4;overflow=hidden;points=[[0,0.5],[1,0.5]];portConstraint=eastwest;rotatable=0;whiteSpace=wrap;html=1;fontFamily=Helvetica;fontSize=20;fontColor=default;labelBackgroundColor=#09555B;" vertex="1" parent="ZaASA2PsLw-YjTPcbioR-3">
          <mxGeometry x="3.5" y="29" width="245.5" height="30" as="geometry" />
        </mxCell>
        <mxCell id="ZaASA2PsLw-YjTPcbioR-5" value="&lt;span&gt;&lt;b&gt;&lt;font color=&quot;#80ff00&quot;&gt;LAN&lt;/font&gt;&lt;font color=&quot;#ffffff&quot;&gt; 192.168.234.1/24&lt;/font&gt;&lt;/b&gt;&lt;/span&gt;" style="text;strokeColor=none;fillColor=none;align=left;verticalAlign=middle;spacingLeft=4;spacingRight=4;overflow=hidden;points=[[0,0.5],[1,0.5]];portConstraint=eastwest;rotatable=0;whiteSpace=wrap;html=1;fontFamily=Helvetica;fontSize=22;fontColor=default;labelBackgroundColor=#09555B;" vertex="1" parent="ZaASA2PsLw-YjTPcbioR-3">
          <mxGeometry x="3.5" y="69" width="247.5" height="30" as="geometry" />
        </mxCell>
        <mxCell id="ZaASA2PsLw-YjTPcbioR-6" value="&lt;span&gt;&lt;b&gt;&lt;font color=&quot;#80ff00&quot;&gt;tun_wg_0&amp;nbsp;&lt;/font&gt;&lt;font color=&quot;#ffffff&quot;&gt;&amp;nbsp;10.69.69.1/24&lt;/font&gt;&lt;/b&gt;&lt;/span&gt;" style="text;strokeColor=none;fillColor=none;align=left;verticalAlign=middle;spacingLeft=4;spacingRight=4;overflow=hidden;points=[[0,0.5],[1,0.5]];portConstraint=eastwest;rotatable=0;whiteSpace=wrap;html=1;fontFamily=Helvetica;fontSize=20;fontColor=default;labelBackgroundColor=#09555B;" vertex="1" parent="ZaASA2PsLw-YjTPcbioR-3">
          <mxGeometry x="3.5" y="109" width="246.5" height="30" as="geometry" />
        </mxCell>
        <mxCell id="ZaASA2PsLw-YjTPcbioR-7" value="192.168.234.12" style="fontColor=#FFFFFF;verticalAlign=top;verticalLabelPosition=bottom;labelPosition=center;align=center;html=1;outlineConnect=0;fillColor=#CCCCCC;strokeColor=#6881B3;gradientColor=none;gradientDirection=north;strokeWidth=2;shape=mxgraph.networks.pc;fontStyle=1;fontSize=19;" vertex="1" parent="ZaASA2PsLw-YjTPcbioR-3">
          <mxGeometry x="76.5" y="208" width="100" height="70" as="geometry" />
        </mxCell>
        <mxCell id="ZaASA2PsLw-YjTPcbioR-8" value="" style="group" vertex="1" connectable="0" parent="ZaASA2PsLw-YjTPcbioR-1">
          <mxGeometry x="-616" y="19" width="132" height="85" as="geometry" />
        </mxCell>
        <mxCell id="ZaASA2PsLw-YjTPcbioR-9" value="" style="shape=image;verticalLabelPosition=bottom;verticalAlign=top;imageAspect=0;image=data:image/png,iVBORw0KGgoAAAANSUhEUgAAAPoAAACvCAYAAADUr8N5AAAAAXNSR0IArs4c6QAAGc9JREFUeF7tnX3sZUdZx7/bdtvt9m37st0tQUJINcSUioQYNMQ02BBFxWoIfxg1aIgIhSBWJKLGICGtaJEaCgKKCiIFG2MMUay1EqwNaWpFaJoGK2G3L/v+/tvtbre79X7untmevfu7Z+bMmXPOnHOeJ7n5bXtn5sw8M987z3le18jIOGAcGD0H1ox+hbZA44BxQAZ0OwQpOLBZ0k9J+l5J/y7pa5KOpBjYxkjDAQN6Gj5OcZRXSnqjpJ+W9OoFBhyVdL+kf5H0FUmPTJFBOa3ZgJ7TbuQ9l3Wzm/p1BbC5vV9cY7rbC8AD/Hsl7a7R15om4IABPQETRzyEE8m5tW+UtD7BWk/OJIGHJd1T3PgPSHouwbg2RAUHDOh2PBY5gEjOjf0zkl4l6ZyWWbQi6T5J/1zc9o+3/LxJDm9An+S2n7FoRPIbCmDXFclPD3Teeedp7dq1OnbsmE6e5NKOJoDubnt+APghMGrIAQN6QwYOtPvVxa2NSP76GJF8zZo1Ov/887Vu3br559xzzz3NiuPHj88Bz+fZZ5/V888/H8umZyV9vbjtAf83JDX6FYmdyND7GdCHvoPh87++JJKjJa8tkp9zzjlzUF9wwQXzv4DdR4AcsAP6o0eP6rnnGr2Oo8QD8P9aKPdQ8hkFcMC/UwGDWJMsOYBI/qMlkfwlMbNEJHe3Njd4Uzpx4sTp2z6BmP/NAvi836PUw6xntAoHDOjjOhZOJP/JQiS/uO7yqkTyumOFtHe3vRPzQ/osaYODzlcLTT63/mMNxhpdVwP68LfUieS8b/9QVyJ5G2xDiQfwEfEBPrd/A9pauu1R6u1vMNbguxrQh7eFyM9OS/4GSS+NWUJqkTxmDr4+vM87pR5/Gyj1UOA9WFLq8e9JKfUM6L7Tlsf3Vy1oyWuL5CwDZRqiOR+05HxQrPHhu5yprNQD9Gj2G9DewnbvXHSfbDDWILoa0PPdputKWvIokRxAh96CgP2iiy6aK96GQIj5TpOfQKnH+zw++QB/lAE5BvR8TjUieVlLHi2SA/DYGw/N+oYNG4RoPyRKaLsfZUCOAb3f04xIzns2irQfl1RbJC9ryQHnwYMHo0HuWIEYf/nll89F+iESUkz53b6h7X4UATkG9O5P8veXwjtfE6sld04r7v0aDfXu3bubaqpPc4MfEG72Cy+8sHsOJX4ivHGafLT6DVx0BxuQY0BPfKhWGc6J5Nza+JK/LOaRVVpyDi4gX3ZzEU/Kg3npR4Tgnt4haUvxYvrfSyYE2K+88sq5q+uYqOypF/uKU/BjMAE5BvR2TjB4QhQnAgxf8kvrPqYsknNrV70z7927d35jLdJlkt4h6c2S1lZMgAwRt0v631XaIMZfffXV2Wvl6/LXtXdKPSfqN7TdZxuQY0CPPSFn90Mk5+Lk5v6RVCK5b3oc0D179pzVDLHhTknf4xug+P7YLCj8dwtD82IXtPGXXcbPxvgpoVIvq4AcA3r82UUtXdaSJxfJQ6a2a9eus5RvGyXdJWlTyAClNryA3izpPxb6IV1wq5cj1GoOPcjmiW33vQbkGNDrHcErFrTktUVyHuecVLBZNzFj8U6+c+fOs1ZwxwysP1ZvXadb75P0E6sEgV966aW6+OLaRoHIWeTZbcgBOQZ0/5l6eclxpTOR3D8taWVlZW5OK9MPSvpcSOeKNp+WxI9FmVDIXXUVqgcjxwHE/LI2vwFnWg/IMaCfvTtOJHda8mtjNrALX3LezXlHL9NHCu1fzJxdH1TJvJPwklmmzZs3j1Yp14Rf9HUBOc5br6FS77tFWi3Cb5ME5BjQT+0wIrnTkvO3V5E89NBt3779LJswGvQNoQNUtPvFmclg0ezGjT42U1sCVq06RG4BOVMG+veVHFde25WWPNXBQlG0bdu2M4bDPv5fiR5wS+H4XR4Ob7kxONAkYlHwMImVelEBOVMCOiI5gEYkp/BAI5HcKdSCdztxQ0TDHTtwe3mByM1M0vQU9EFJX1wYCBMbpjajZhzoIyBn7EBHJMdhBccVRPIoqTaVlrzZ8Tiz92pAv6ZIppbiOQb0FFwMGyOh7R6vKSyrv7z45DECHZHcOa5wg9cOw8IbbNGXPGzLumtlQO+O110+KUFADuWvXjFGoDuRnDxpiOQAvTY5LXnfInnoxA3ooZwadjtnu8eMFxiQMyqgI4KXfckR0WtTOS95E8eV2g9O0MGAnoCJAxwiIJnm4IGO8sxV7xytSB5y9jDdHDlyZO4wUyZ7Rw/h3jja4JbM5bRlCzGIZ9DggE4Ss7KWfBIi+bJjyLvbM888Mwf3snBUA/o4QFy1CvRHl1xyidavXz8/D48++ugggY6jStlxZXIi+WqbDLAJRfVlSjGgjxPo/Mhze2PeLGf9GRrQEcmdlhzPy1FqyWOPIO9kuLqGJHk0oMdyOc9+TjwnoGg1j8TcgY5ITnCIc1whaKQ28QvnTGAwIaQOWO2H9NwBhRthqKGpjwzoPW9Ywse7JJ1VocE5At2J5ICbZIgmkgccitWCVqq6GdADmJpxEy4rQpe5wUPy7OcCdBIxIJLjlYZSrXbisSE4rrR1blYzn/meZUD3cSjP7wE4MQQAvI5k2hfQyyI5ACe1Um2agkgewhQ2cd8+0kCEkwE9nFc5tATUJPOITejRJdARyfEldyJ5VGaCITuutHVgVksq4XuWAd3HoTy+L5vImsyobaBTQcQ5rqAlry2Su3cR3keGUPeryWbE9sUhZv/+egVAyRH3b7EPXOj3BzOR7EsL/8+i1+KZi9Vk7dq1cxNZqpj+1EBHJKfQgNOSR4nkaA8BNp+xasnjj8HZPYloQuNeh4hQ+tQsjvyH63RapS3JqW6apYpezEZ3xRVXDKY2W0MWJOvuTGQAHKCnpBRAJwsgjismkqfcmZpjkfjR5ySzOCTJJ94q6VeKQg11Hvl8IRHcJok6RIu0adOmyWWCrcO/cluXlx+At5U9NwXQ/0fS9XUX6URyZ98OMRHUfcaU2i/L2R7CA6J+flbSjUU437LCSieKii3/Oavkcrek/1syOHt7zTVoAYx8HECDDsDraNB9Y672fQqgf6uo4ON9vonkXhY1anDgwAEdPny40RiI9EAU8KM95b8Jh+FDYfCQSuNTKuIQw2wuNWcii+kf06d1oJuWPGZb4vtgZmNT+yJ+zDdu3BjkxNHXHPt6LgDHPNZHiq1WgA64iZhBmWYieffHCnPboUOHgnzeU85urIUWm/AInjgTWZ/JMlsBetm43/a7R5NNGHNfFHMUbFitoGIb6+YwUzqZH3ejUxzAoQsPthxqx7cCdLfRiHEuHtY2vx8OAHje27G1h0S1xczSvW+2pTGOmVNffeAxwEbBllMmolaB7piNTTCXX7a+DkDfz+UAcruz4Wjom4KePeX2BuQ5Heg++ewAnuMPXidAd8x30TZ2MPo8jqeejZMN8evc+HwIjCHEdTHMFZGcD4cXcPNBB5PjYe6Lq+ij6gaZdD3XToHuFofWEZHeFHVdb3f487jxTb+ynF/wxp3jcK7217IXoLPcsqnBDlR/B8CeXI8DfZrI6s30zNa9Ab2ssEPs6dP00ISB1nf8HHAmMs7pUK0KvQPdHRPe+5bluxr/UbIV5soBp0hOFUXW1zqzAbop7Po6Avbc1TgAsHMzkTXZqeyAzmKcogN3QVPYNdle61uXA4jmAHxs5y5LoLvNMYVd3WNq7WM44CIpu4gii5lfij5ZA90t0LkSDlURkmKjbIz0HBiaiawJBwYBdLdAPI+wvw9dMdJkw6xvcw4M1UTWZOWDArpbqPlWN9nyafZdVqpoKtwYJNCdws6lvzWHm6kc1/rr9JUqqj/iMHsMFuhlhR3ifB/B/MPc8unMemwmsiY7N3iglxV2ixUkmzDG+g6TA3VLFQ1zlfVnPRqglxV2eNilTpdbn7XWo0sOxJYq6nKOfT5rdEB3zCR0EJHewin7PF7tP7tpqaL2Z5jHE0YLdFPY5XHA2poFP+AoY/lBN/JzYNRAd8u3lFb+gzCEFq5UkWUrqr9bkwC6Y4ultKp/QHLogXju9s50L3E7MimglxV2Y4pMitv6/Ht1Uaoofy6kmeEkge5YZymt0hyiNkbpqlRRG3PPccxJA50Nwe8ZwKPYMQ+7fo8o/HeJFvudyfiePnmglxV2ltKqnwM+xSCTrjltQF/guKW06uYIcnvzsR/XbvhtQF/CZ8tB394BJL8AylALN26Px4sjG9AreG0prdIdRGzgAJv6bFbAIx1fQ0cyoAdwylJaBTCpoknOpYqarWw4vQ3oNfbKUlqFM2sKedjCudF/SwN6xB6Ywm4506aUhy3i6PTWxYDegPWW0uoF5hFPgA0cfwSjvDhAMc0nnnhC+/fvX5zYI5Jesfg/1yyZ/rckXZfX0rqbzZQVdmMoVdTdSen+SShAd+7cqaeffvqsKrnFbAzodbcFhd2UUlqNpVRR3X0eSvuVlRVt3bpViOwV9E1JP2A3esSuOhsxmuYxkuVhy3tXqXX/1FNPaffu3b6J3ifp7ZK+bUD3sarie4A+ppRWYy1V1GCLs+u6Z88ePfnkkwLsFbRT0i2S/mZZG3tHj9jaIae0sjxsERveQxfEc8R0xPUKOinpU5J+W9JZWrlyPwN65CaW85oNIULOTGSRG91xt5MnT2rbtm3asWOHULxV0MOS3ibpoZApGtBDuFTRJveUVhZF1nCDO+yOqQyTGaazCjoo6fckfUwSN3oQGdCD2ORvlFtKK36ALCe+f99yaAGwEdMPHDjgm86XJL1b0nZfw8XvDeh1OeZp73zA+wrysCiyxBva4nCI5ojoiOqI7BX0eKFNvzd2Ogb0WM55+nWd0spMZC1tZEvDBtrEj0q6VdKHJfHvaDKgR7PO37FthZ2VKvLvQW4tMJNhLsNs5iFub2zi3OaNyYDemIX+AXhfTpl1xUxkfp7n2AKHFxxfPDZx3r95D+d9PBkZ0JOx0j9QU4WdlSry8zjHFjVs4mjS0aijWU9KBvSk7AwbrG5KK+dzb6WKwvibSysUbASfEITisYljC8cmjm28FTKgt8JW/6AuDTJBMwB5kaxUkZ+HObfYt2/f/F3cYxPHmw2vNrzbgm3iMes2oMdwLWGfxZRW/AA4E5mVKkrI6I6GOnbs2NzpJcAmjl86/un4qbdOBvTWWRz2AMC9adMmbdy40cpCh7Esq1ZIYNu3b59/PDbxxyTdLIlIs87IgN4Zq/0Puvbaa+febEbD4sChQ4fmnm1Hj1aauvnyQ4VNvNLHtY3VG9Db4GrkmAb0SMb11O348ePz9/C9e/f6ZvBPkt4l6Tu+hm19b0Bvi7MR4xrQI5jWU5ddu3bNbeInTpyomsGTkt4zS8t2d0/TPP1YA3rfO1B6vgE9o81YMpUjR47MxfTDhw9XTZYsEc4mXhlQ3tWKlwH97yS9qatJ2HNOccCAnu9J4ObGJs5N7rGJP1C4rpK7LRtaBnQMux+Q9H6qEGcz25FPxICe5wZjE8dkxjt5BfGi/j5Jn2nbJh7DpWVAd2PdKOlzkjbHDG596nHAgF6PX223xiaOmH7woNcj9bOFTdybvbHtOS8b3wd0+gHyz0t6XV+TnMpzDeh57DR2cOLEA2zijxauq/fnMfPlswgBOr0R3xHjEedNlG9pVw3oLTG2xrDc3tzi3OYVdKTAwkdnuOjcJl5jOaebhgLddbihuN1fFPMw61PNAQN6fyeE92/ew3kf99CXC8+2rb6GOX1fF+jM/aoC7K/PaSFjmIsBvftdRIOOJh2NuscmDrBxevnH7mfZ/IkxQHdP/a3Cpe+85tOwEeCAAb3bc4AtHDEd23gFYRP/SCGqVzbsdvb1ntYE6DzptcXt/pJ6j7XWq3HAgN7NueDmxquNm9xDKNlI50ThwkFTU6Cz+CsKE9wbBs2JDCZvQG9/E/BLxz/dYxPHTPZeSX/V/oy6eUIKoLuZ/oakP5Rkonzk3hnQIxkX0I3IMsR0Is089OeF44s3UsU3UE7fpwQ663qNpC/MfglfmtMihzIXA3r6ncIm7uLEPa6ruKwipuPCOjpKDXQYtEHSX0q6aXTcanlBBvS0DCbLCyYzj02coJPfn72C/qmkypKlaWfX7WhtAN2t4J2Sbpd0frdLGu7TDOhp9o48bbyHB9jE/75IrUw46aipTaDDuFdL+qKkl42ai4kWZ0BvxkhnE0ej7knn9N3C6YWEEJOgtoEOEy+V9BcW9uo/TwZ0P4+WtcAmvmXLFpFDvYJwV/1jSR9sWuIofqb99OwC6G5lvybpTySt62ep+T/VgF5/j6h6wg1OFRQPfbVQtpGccXLUJdBh7islkdTi2slxOmDBBvQAJpWaUL+Md3FPiSPSKZNWmfTKk6WugQ6jL5b0SUk/P1muL1m4AT3sRNQoceRs4hRKmDT1AXTH8LdKumOW/nb9pHegtHgDevVJQMFGLXFixT028W8UceIP2tk6xYE+gc7zrytE+ZfbhlhQS9UZwCaOZ5unxBGpYChS+PEx28RjsNI30JkzN/qdkt4Ss4Ax9bEb/ezdBNg4vezf75W+KTNMauWnx3QmUq0lB6C7tfxSAXje4SdJBvQXth3RHBEdUd1jE3+8sInfM8lDE7jonIDOlBHh0coj0k+ODOintnxlZWUupgfYxG+TdOvUbOIxwMgN6E6Ux97+qzELGnKfqQMdMxnmMsxmHrq3sIlzmxsFcCBHoLtpY377ROFZF7CU4TeZMtBxeMHxxWMT3168h981/N3udgU5Ax1O4FiDKI+jzehpikCvYRNHk45G3auVG/1BiVhg7kBnSbjMEgX3joj1DarLlICOgo2EjDt37vTZxB8qbOIPD2ozM5vsEIDuWEYtOIJjCJIZJU0F6JjKMJl5bOLc3L8zKyDyZzmWOBraARwS0OEtmWsQ5Ql/HR2NHegkgADgOL946G8L/3TeyY0ScGBoQGfJJLIgN92vJ1h/VkOMFeg1bOLfLrTp92W1MSOYzBCB7thOqipSVpG6ahQ0RqCTjBGbOMkZK4gvPzTzkvzwUEocDe3ADRno8Jp88mSwISnl4GlMQK9hE/9K4dn2ncFvYMYLGDrQYS3ppfGO+s2M+Rw0tbEAncII2MQ9JY7wSX/3zAvy7iDmWKNGHBgD0B0DKCBBLXcKSgyShg50ShshppPWqYLItPqxwiZOBlajDjgwJqDDrhcXeeUpFTU4GirQubmxiXOTe+LEv14o24gXN+qQA2MDuhPlSf5HEchB1XIfItBJqYzJzFPiCJv4+2Y/xGR8Odnh+bZHFRwYI9Dd5lLW+fNFmedBbPiQgI5NHDH94EFyPVTSZwubuDd7o28g+z6eA2MGOlx5UQH2G+JZ1F3PIQAd0dyVOPLEiT9aiOlf646D9qRlHBg70Fk34vsHZvbZ9+cuyucO9ECbODXEeXWipjh51I0y4MAUgO7YzK1OAcjNGfB91SnkCnTev4kTp+Swh74s6V2ztGBUQjHKiANTAjpsB+R/PauYyft7dpQj0IkuQ6PusYlvLWzi/5AdU21Ccw5MDehOlEeMp4JmVrXccwI6NnFKHPG3grCJf7R4NTKbeMY/KlMEutsObO24z6Kwy4JyALqziXOTe+j+Qtn2iK+hfd8/B6YMdLh/VSHK41XXO/UNdN7BeRf32MQxk2ET/0zvDLMJBHNg6kB3jMK5huipXkX5voBOZBlOLwE2ccANyM0mHgyxPBoa0F/YByLgEOWJiOuFugY6dnBnE/e4riKev22mxHygF8bYQxtzwIB+JgsJiCHG/Y2NORsxQJdA5/bGsw0PtwpCwYYPAgo3FG9GA+WAAX31jSN7zR91Lcp3AXTevxHT8VH3EKYywkgxnRkNnAMG9OUbSF468tORp64TahPoiOZElwXYxHF2wekF5xejkXDAgF69kaSpIvPsz3Wx320BnfhwxHSPTRx3VdxWEdUr8z51wQt7RloOGNDD+PnOIrc8iSlbo9RAxyZOphducg8ReIKy7TFfQ/t+mBwwoIfv26sKrTzVY1qhlECnfhk2cU+JI7xi3iuJUFKjEXPAgF5vcyke8WlJb67XLax1CqBjE0dMJ9Ksgkj+QBIIbOJW4ihsewbdyoAet31Uer2jKBcVN8IqvZoAHZs4tcSpKe6xiZPGCTH9wWQTt4Gy54ABPX6Lri9EeWq6J6FYoFP5BJNZgE2cIoUkZjSbeJIdG84gBvRme3WxpE9KosRzY6oLdGqXAXBqmXmIlMrYxEmxbDRBDhjQ02z6WyTdOas0sr7JcKFARzR3ceKedE4URbh5VuCCIglGE+aAAT3d5l9XZLDhbxSFAH1lZWWubKOueAVhE7+tKGxhNvGo3RhXJwN62v3kRudm54avTVVAx0yGTXz3bm/gGAUK3z57naBgoZFxYM4BA3o7B+EXJH1CEu/wwbQM6IE2cUoM3yKJksNGxoEzOGBAb+9AoI0n7BXtfBAtAh3xHDEdcb2CsIl/vChx5NXKBU3EGo2OAwb0drd0XWFvx+7uJQf0Gjbxhwub+EPewa3BpDlgQO9m+/Gkw6MOz7qlBNDRqGMyw3RWQdzc2MS5ya3EUTd7OOinGNC72z585BHl8ZlfldatWydcWD10l6T3SOKd3Mg4EMQBA3oQm5I1Ivrt9lnONaLh6hJadGzi99btaO2NAwb0fs4A8e3EuRPv7iOu+FsLu7iVOPJxy75flQMG9P4OBplryGBDJptldE9xiz/e3zTtyWPggAG9310kvTS56chRVyZ80vFNx0fdyDjQmAMG9MYsTDLATYUoj1be2cS9hceTPNkGmQQHDOj5bDP55Ek3Tby4kXEgKQcM6EnZaYMZB/LkwP8DeB50N0G/2hUAAAAASUVORK5CYII=;strokeColor=#BAC8D3;fontFamily=Helvetica;fontSize=11;fontColor=default;labelBackgroundColor=default;fillColor=#09555B;" vertex="1" parent="ZaASA2PsLw-YjTPcbioR-8">
          <mxGeometry x="-46" width="132" height="85" as="geometry" />
        </mxCell>
        <mxCell id="ZaASA2PsLw-YjTPcbioR-10" value="The Internet" style="text;html=1;align=center;verticalAlign=middle;whiteSpace=wrap;rounded=0;fontFamily=Helvetica;fontSize=17;fontColor=#FFFFFF;labelBackgroundColor=none;fontStyle=1" vertex="1" parent="ZaASA2PsLw-YjTPcbioR-8">
          <mxGeometry x="-24" y="30" width="60" height="31" as="geometry" />
        </mxCell>
        <mxCell id="ZaASA2PsLw-YjTPcbioR-11" style="edgeStyle=orthogonalEdgeStyle;shape=connector;curved=0;rounded=1;orthogonalLoop=1;jettySize=auto;html=1;strokeColor=#80FF00;strokeWidth=5;align=center;verticalAlign=middle;fontFamily=Helvetica;fontSize=11;fontColor=default;labelBackgroundColor=default;endArrow=none;endFill=0;fillColor=#60a917;" edge="1" parent="ZaASA2PsLw-YjTPcbioR-1" source="ZaASA2PsLw-YjTPcbioR-13">
          <mxGeometry relative="1" as="geometry">
            <mxPoint x="-764" y="209" as="targetPoint" />
          </mxGeometry>
        </mxCell>
        <mxCell id="ZaASA2PsLw-YjTPcbioR-12" style="edgeStyle=orthogonalEdgeStyle;shape=connector;curved=0;rounded=1;orthogonalLoop=1;jettySize=auto;html=1;strokeColor=#80FF00;strokeWidth=5;align=center;verticalAlign=middle;fontFamily=Helvetica;fontSize=11;fontColor=default;labelBackgroundColor=default;endArrow=none;endFill=0;fillColor=#60a917;" edge="1" parent="ZaASA2PsLw-YjTPcbioR-1" source="ZaASA2PsLw-YjTPcbioR-13">
          <mxGeometry relative="1" as="geometry">
            <mxPoint x="-445" y="209" as="targetPoint" />
          </mxGeometry>
        </mxCell>
        <mxCell id="ZaASA2PsLw-YjTPcbioR-13" value="Wireguard Tunnel&lt;br&gt;Network 10.69.69.0/24" style="outlineConnect=0;dashed=0;verticalLabelPosition=bottom;verticalAlign=top;align=center;html=1;shape=mxgraph.aws3.vpn_connection;fillColor=#F58536;gradientColor=none;fontColor=#FFFFFF;fontSize=20;fontStyle=1" vertex="1" parent="ZaASA2PsLw-YjTPcbioR-1">
          <mxGeometry x="-632" y="184.99" width="58.5" height="48" as="geometry" />
        </mxCell>
        <mxCell id="ZaASA2PsLw-YjTPcbioR-14" style="edgeStyle=orthogonalEdgeStyle;rounded=1;orthogonalLoop=1;jettySize=auto;html=1;strokeColor=#FF0000;strokeWidth=5;align=center;verticalAlign=middle;fontFamily=Helvetica;fontSize=11;fontColor=default;labelBackgroundColor=default;endArrow=none;endFill=0;curved=0;fillColor=#60a917;" edge="1" parent="ZaASA2PsLw-YjTPcbioR-1" source="ZaASA2PsLw-YjTPcbioR-9">
          <mxGeometry relative="1" as="geometry">
            <mxPoint x="-796" y="204" as="targetPoint" />
          </mxGeometry>
        </mxCell>
        <mxCell id="ZaASA2PsLw-YjTPcbioR-15" value="" style="aspect=fixed;perimeter=ellipsePerimeter;html=1;align=center;fontSize=12;verticalAlign=top;shadow=0;dashed=0;image;image=img/lib/cumulus/switch_bare_metal_empty.svg;rounded=0;sketch=0;hachureGap=4;fillColor=#F45B69;strokeColor=#028090;fontColor=#E4FDE1;labelBackgroundColor=#114B5F;connectable=0;" vertex="1" parent="ZaASA2PsLw-YjTPcbioR-1">
          <mxGeometry x="-900" y="191" width="144" height="36" as="geometry" />
        </mxCell>
        <mxCell id="ZaASA2PsLw-YjTPcbioR-16" value="" style="shape=image;imageAspect=0;aspect=fixed;verticalLabelPosition=bottom;verticalAlign=top;rounded=0;labelBackgroundColor=none;sketch=0;hachureGap=4;fontSize=30;fontColor=#1A1A1A;strokeColor=#028090;fillColor=#F45B69;image=https://upload.wikimedia.org/wikipedia/commons/thumb/b/b9/PfSense_logo.png/1200px-PfSense_logo.png;" vertex="1" parent="ZaASA2PsLw-YjTPcbioR-1">
          <mxGeometry x="-893" y="199.06" width="67.55" height="19.87" as="geometry" />
        </mxCell>
        <mxCell id="ZaASA2PsLw-YjTPcbioR-17" value="Site B" style="swimlane;whiteSpace=wrap;html=1;strokeColor=#FFFFFF;fontFamily=Helvetica;fontSize=17;fontColor=#FFFFFF;labelBackgroundColor=none;fillColor=#09555B;align=center;verticalAlign=middle;fontStyle=1;gradientColor=none;" vertex="1" parent="ZaASA2PsLw-YjTPcbioR-1">
          <mxGeometry x="-364" y="38" width="253" height="349" as="geometry" />
        </mxCell>
        <mxCell id="ZaASA2PsLw-YjTPcbioR-18" value="192.168.177.10" style="fontColor=#FFFFFF;verticalAlign=top;verticalLabelPosition=bottom;labelPosition=center;align=center;html=1;outlineConnect=0;fillColor=#CCCCCC;strokeColor=#6881B3;gradientColor=none;gradientDirection=north;strokeWidth=2;shape=mxgraph.networks.pc;fontStyle=1;fontSize=19;" vertex="1" parent="ZaASA2PsLw-YjTPcbioR-17">
          <mxGeometry x="73" y="213" width="100" height="70" as="geometry" />
        </mxCell>
        <mxCell id="ZaASA2PsLw-YjTPcbioR-19" value="" style="aspect=fixed;perimeter=ellipsePerimeter;html=1;align=center;fontSize=12;verticalAlign=top;shadow=0;dashed=0;image;image=img/lib/cumulus/switch_bare_metal_empty.svg;rounded=0;sketch=0;hachureGap=4;fillColor=#F45B69;strokeColor=#028090;fontColor=#E4FDE1;labelBackgroundColor=#114B5F;connectable=0;" vertex="1" parent="ZaASA2PsLw-YjTPcbioR-17">
          <mxGeometry x="-84" y="150" width="144" height="36" as="geometry" />
        </mxCell>
        <mxCell id="ZaASA2PsLw-YjTPcbioR-20" value="" style="shape=image;imageAspect=0;aspect=fixed;verticalLabelPosition=bottom;verticalAlign=top;rounded=0;labelBackgroundColor=none;sketch=0;hachureGap=4;fontSize=30;fontColor=#1A1A1A;strokeColor=#028090;fillColor=#F45B69;image=https://upload.wikimedia.org/wikipedia/commons/thumb/b/b9/PfSense_logo.png/1200px-PfSense_logo.png;" vertex="1" parent="ZaASA2PsLw-YjTPcbioR-17">
          <mxGeometry x="-75" y="158.07" width="67.55" height="19.87" as="geometry" />
        </mxCell>
        <mxCell id="ZaASA2PsLw-YjTPcbioR-21" value="&lt;span&gt;&lt;b&gt;&lt;font color=&quot;#80ff00&quot;&gt;WAN&lt;/font&gt;&lt;font color=&quot;#ffffff&quot;&gt; 100.69.69.44&lt;/font&gt;&lt;/b&gt;&lt;/span&gt;" style="text;strokeColor=none;fillColor=none;align=left;verticalAlign=middle;spacingLeft=4;spacingRight=4;overflow=hidden;points=[[0,0.5],[1,0.5]];portConstraint=eastwest;rotatable=0;whiteSpace=wrap;html=1;fontFamily=Helvetica;fontSize=20;fontColor=default;labelBackgroundColor=#09555B;" vertex="1" parent="ZaASA2PsLw-YjTPcbioR-17">
          <mxGeometry x="5.5" y="33" width="245.5" height="30" as="geometry" />
        </mxCell>
        <mxCell id="ZaASA2PsLw-YjTPcbioR-22" value="&lt;span&gt;&lt;b&gt;&lt;font color=&quot;#80ff00&quot;&gt;LAN&lt;/font&gt;&lt;font color=&quot;#ffffff&quot;&gt; 192.168.177.1/24&lt;/font&gt;&lt;/b&gt;&lt;/span&gt;" style="text;strokeColor=none;fillColor=none;align=left;verticalAlign=middle;spacingLeft=4;spacingRight=4;overflow=hidden;points=[[0,0.5],[1,0.5]];portConstraint=eastwest;rotatable=0;whiteSpace=wrap;html=1;fontFamily=Helvetica;fontSize=22;fontColor=default;labelBackgroundColor=#09555B;" vertex="1" parent="ZaASA2PsLw-YjTPcbioR-17">
          <mxGeometry x="5.5" y="73" width="247.5" height="30" as="geometry" />
        </mxCell>
        <mxCell id="ZaASA2PsLw-YjTPcbioR-23" value="&lt;span&gt;&lt;b&gt;&lt;font color=&quot;#80ff00&quot;&gt;tun_wg_0&amp;nbsp;&lt;/font&gt;&lt;font color=&quot;#ffffff&quot;&gt;&amp;nbsp;10.69.69.2/24&lt;/font&gt;&lt;/b&gt;&lt;/span&gt;" style="text;strokeColor=none;fillColor=none;align=left;verticalAlign=middle;spacingLeft=4;spacingRight=4;overflow=hidden;points=[[0,0.5],[1,0.5]];portConstraint=eastwest;rotatable=0;whiteSpace=wrap;html=1;fontFamily=Helvetica;fontSize=20;fontColor=default;labelBackgroundColor=#09555B;" vertex="1" parent="ZaASA2PsLw-YjTPcbioR-17">
          <mxGeometry x="5.5" y="113" width="246.5" height="30" as="geometry" />
        </mxCell>
        <mxCell id="iz532ozH_m7gtuPgV2TW-4" value="Site B Public Key&amp;nbsp; &amp;nbsp; &amp;nbsp; &amp;nbsp; &amp;nbsp; &amp;nbsp; &amp;nbsp; &amp;nbsp; &amp;nbsp; &amp;nbsp; &amp;nbsp; &amp;nbsp; &amp;nbsp; &amp;nbsp; &amp;nbsp; &amp;nbsp; &amp;nbsp; &amp;nbsp;Site A Public Key" style="html=1;shadow=0;dashed=0;align=center;verticalAlign=middle;shape=mxgraph.arrows2.twoWayArrow;dy=0.59;dx=36.16;fontFamily=Helvetica;fontSize=15;fontColor=#ffffff;labelBackgroundColor=none;fontStyle=1;fillColor=#0050ef;strokeColor=#001DBC;" vertex="1" parent="ZaASA2PsLw-YjTPcbioR-1">
          <mxGeometry x="-832" y="273" width="473" height="60" as="geometry" />
        </mxCell>
      </root>
    </mxGraphModel>
  </diagram>
</mxfile>
